<?xml version="1.0" encoding="UTF-8"?>
<!DOCTYPE svg PUBLIC "-//W3C//DTD SVG 1.1//EN" "http://www.w3.org/Graphics/SVG/1.1/DTD/svg11.dtd">
<!-- Creator: CorelDRAW X7 -->
<svg xmlns="http://www.w3.org/2000/svg" xml:space="preserve" width="200mm" height="200mm" version="1.1" style="shape-rendering:geometricPrecision; text-rendering:geometricPrecision; image-rendering:optimizeQuality; fill-rule:evenodd; clip-rule:evenodd"
viewBox="0 0 20000 20000"
 xmlns:xlink="http://www.w3.org/1999/xlink">
 <defs>
  <style type="text/css">
   <![CDATA[
    .fil0 {fill:#009846}
   ]]>
  </style>
 </defs>
 <g id="Laag_x0020_1">
  <metadata id="CorelCorpID_0Corel-Layer"/>
  <path class="fil0" d="M10000 0c5523,0 10000,4477 10000,10000 0,5523 -4477,10000 -10000,10000 -5523,0 -10000,-4477 -10000,-10000 0,-5523 4477,-10000 10000,-10000zm0 1913c4466,0 8087,3621 8087,8087 0,4466 -3621,8087 -8087,8087 -4466,0 -8087,-3621 -8087,-8087 0,-4466 3621,-8087 8087,-8087z"/>
  <path class="fil0" d="M10366 16149l-6 557 -218 -198c-94,-85 -154,-161 -269,-207l493 -152zm-4 -2195l-1 1976c-177,25 -600,199 -729,136l-494 -417 312 -1457 912 -238zm-366 2763c-663,-35 -1408,-4 -2079,-4 -872,0 -867,138 -1305,-254 -67,-61 -69,-69 -132,-123l-1250 -1096c-232,-243 -818,-959 -311,-1392 183,-157 539,-231 848,-200 676,66 1486,675 1990,1129l1410 1226c88,78 182,178 264,242l565 472zm-1791 -1881c89,-212 199,-449 306,-685 398,-877 199,-688 649,-807 123,-32 248,-64 375,-96 235,-60 496,-125 729,-191 69,216 108,396 117,648 -173,25 -400,91 -577,137l-496 147c-6,4 -20,24 -25,16 -5,-8 -17,11 -19,18l-308 1481c-70,-65 -116,-119 -199,-181l-552 -487zm-1176 -944c-49,-1713 1441,-2219 2371,-1745 368,187 555,384 754,696l-1195 312c-323,83 -265,27 -332,148 -114,205 -480,1181 -617,1376l-981 -787zm6134 -3200c618,-195 1155,8 1590,406 84,76 133,163 196,249 152,205 203,298 280,579 91,330 95,3088 51,3531l-4710 1258c27,-525 -2,-1088 4,-1619 12,-990 153,-2035 -481,-2734 -325,-357 -703,-437 -966,-580l2150 -573 -5 3511c163,-15 576,-105 695,-177l7 -2607 1173 -355c56,-250 22,-620 16,-889zm-1893 -418l5 689c-719,195 -2947,732 -3470,984 -189,91 -311,200 -451,347 -346,362 -557,805 -533,1475 -671,-325 -1523,-634 -2143,21 -55,59 -70,84 -112,182 -134,305 -70,606 73,872 266,494 1107,1172 1578,1577 62,53 75,53 138,115l425 397 3750 5c244,-13 754,-185 1012,-254 736,-195 3472,-882 3961,-1059 -37,-788 71,-3269 -71,-3800 -130,-485 -418,-834 -782,-1111 -409,-311 -945,-376 -1490,-259l7 -687 -1897 506z"/>
  <path class="fil0" d="M9427 3199c-1744,147 -2770,730 -3992,1650l-538 504c-91,92 -164,166 -226,313 -412,970 715,1772 1417,1127 497,-458 538,-533 1153,-927 877,-562 2105,-887 3331,-748 1255,141 2069,627 2857,1237 307,237 706,872 1382,611 440,-169 821,-805 466,-1381 -140,-228 -328,-372 -507,-537 -595,-550 -1101,-874 -1870,-1243 -972,-467 -2270,-707 -3473,-606z"/>
  <path class="fil0" d="M9582 6384c-818,82 -1434,370 -1990,753 -536,368 -1230,983 -889,1733 132,290 400,545 825,540 460,-6 670,-323 880,-515 804,-735 2017,-858 2976,-171 286,206 442,486 765,622 975,410 2366,-1198 -331,-2563 -631,-319 -1445,-479 -2236,-399z"/>
 </g>
</svg>
