<?xml version="1.0" encoding="UTF-8"?>
<!DOCTYPE svg PUBLIC "-//W3C//DTD SVG 1.1//EN" "http://www.w3.org/Graphics/SVG/1.1/DTD/svg11.dtd">
<!-- Creator: CorelDRAW X7 -->
<svg xmlns="http://www.w3.org/2000/svg" xml:space="preserve" width="210mm" height="100mm" version="1.1" style="shape-rendering:geometricPrecision; text-rendering:geometricPrecision; image-rendering:optimizeQuality; fill-rule:evenodd; clip-rule:evenodd"
viewBox="0 0 21000 10000"
 xmlns:xlink="http://www.w3.org/1999/xlink">
 <defs>
  <style type="text/css">
   <![CDATA[
    .str2 {stroke:#2B2A29;stroke-width:100}
    .str1 {stroke:#D2CDE7;stroke-width:100}
    .str0 {stroke:#2B2A29;stroke-width:20}
    .fil5 {fill:none}
    .fil6 {fill:#C5C6C6}
    .fil135 {fill:#2B2A29}
    .fil4 {fill:#2B2A29}
    .fil134 {fill:#FFED00}
    .fil136 {fill:#E31E24}
    .fil2 {fill:#A2D9F7}
    .fil34 {fill:#090909}
    .fil58 {fill:#0C0B0B}
    .fil68 {fill:#0E0D0D}
    .fil63 {fill:#110D0D}
    .fil76 {fill:#120E11}
    .fil54 {fill:#121112}
    .fil60 {fill:#13110E}
    .fil74 {fill:#141413}
    .fil45 {fill:#151212}
    .fil16 {fill:#191616}
    .fil61 {fill:#191718}
    .fil42 {fill:#1A1819}
    .fil17 {fill:#1B1718}
    .fil53 {fill:#1B191A}
    .fil67 {fill:#1C191B}
    .fil70 {fill:#1D1B1C}
    .fil32 {fill:#1E191A}
    .fil10 {fill:#1E1C1D}
    .fil93 {fill:#1F1B1C}
    .fil20 {fill:#1F1D1E}
    .fil33 {fill:#211C1A}
    .fil29 {fill:#211F20}
    .fil38 {fill:#221E1F}
    .fil55 {fill:#222021}
    .fil62 {fill:#231C1B}
    .fil40 {fill:#231F1E}
    .fil66 {fill:#232122}
    .fil36 {fill:#242021}
    .fil13 {fill:#252120}
    .fil25 {fill:#252122}
    .fil21 {fill:#262221}
    .fil41 {fill:#262425}
    .fil114 {fill:#262428}
    .fil82 {fill:#272322}
    .fil7 {fill:#272324}
    .fil52 {fill:#272526}
    .fil9 {fill:#282425}
    .fil14 {fill:#282627}
    .fil37 {fill:#292526}
    .fil81 {fill:#2A221D}
    .fil102 {fill:#2A2529}
    .fil22 {fill:#2A2625}
    .fil50 {fill:#2A2627}
    .fil73 {fill:#2B2423}
    .fil97 {fill:#2B2728}
    .fil28 {fill:#2B2A2B}
    .fil1 {fill:#2B2B2B}
    .fil24 {fill:#2C2829}
    .fil11 {fill:#2D2928}
    .fil15 {fill:#2D292A}
    .fil44 {fill:#2F2B2C}
    .fil8 {fill:#302C2D}
    .fil86 {fill:#311214}
    .fil19 {fill:#312D2E}
    .fil69 {fill:#322E2D}
    .fil65 {fill:#322E2F}
    .fil48 {fill:#332F30}
    .fil35 {fill:#333031}
    .fil83 {fill:#34302E}
    .fil80 {fill:#353032}
    .fil99 {fill:#362819}
    .fil23 {fill:#363233}
    .fil43 {fill:#363435}
    .fil18 {fill:#393636}
    .fil39 {fill:#3A3738}
    .fil26 {fill:#3D393A}
    .fil51 {fill:#3D3B3C}
    .fil94 {fill:#413D3D}
    .fil31 {fill:#423F40}
    .fil120 {fill:#443C3C}
    .fil72 {fill:#45352A}
    .fil103 {fill:#463936}
    .fil79 {fill:#493315}
    .fil90 {fill:#4B423D}
    .fil27 {fill:#4B4748}
    .fil46 {fill:#4C4443}
    .fil98 {fill:#534A45}
    .fil56 {fill:#534C4C}
    .fil101 {fill:#564539}
    .fil117 {fill:#564946}
    .fil57 {fill:#5A524C}
    .fil64 {fill:#5A5454}
    .fil106 {fill:#645A54}
    .fil49 {fill:#645D61}
    .fil110 {fill:#66554A}
    .fil78 {fill:#685133}
    .fil131 {fill:#6B5121}
    .fil75 {fill:#6B625C}
    .fil0 {fill:#6D6D6D}
    .fil128 {fill:#74655B}
    .fil104 {fill:#756B68}
    .fil123 {fill:#7A7577}
    .fil47 {fill:#837D81}
    .fil113 {fill:#857669}
    .fil116 {fill:#857B78}
    .fil95 {fill:#8B7451}
    .fil109 {fill:#8B837A}
    .fil126 {fill:#8C878A}
    .fil127 {fill:#8F702E}
    .fil77 {fill:#938E91}
    .fil115 {fill:#948A89}
    .fil92 {fill:#968579}
    .fil125 {fill:#99928D}
    .fil59 {fill:#9A9597}
    .fil91 {fill:#A39DA1}
    .fil121 {fill:#A59A96}
    .fil124 {fill:#A98F5E}
    .fil119 {fill:#A9A29C}
    .fil108 {fill:#B09A8E}
    .fil130 {fill:#B6AAA7}
    .fil132 {fill:#B6AEB1}
    .fil133 {fill:#BDB4B3}
    .fil96 {fill:#C6B6AA}
    .fil105 {fill:#C6BBB7}
    .fil129 {fill:#C7BEC0}
    .fil100 {fill:#CCB6AC}
    .fil87 {fill:#CFAE62}
    .fil12 {fill:#D5CCCA}
    .fil88 {fill:#D6C6BA}
    .fil118 {fill:#D6CAC7}
    .fil111 {fill:#DDD4D2}
    .fil122 {fill:#E4D9D6}
    .fil89 {fill:#EBE4E3}
    .fil112 {fill:#F4EBE5}
    .fil84 {fill:#FBF4EC}
    .fil107 {fill:#FBF5F5}
    .fil30 {fill:#FCFCFC}
    .fil85 {fill:#FEFBF5}
    .fil71 {fill:#FEFDF9}
    .fil3 {fill:#2B2A29;fill-rule:nonzero}
   ]]>
  </style>
 </defs>
 <g id="Laag_x0020_1">
  <metadata id="CorelCorpID_0Corel-Layer"/>
  <g id="_1062925219744">
   <g>
    <path class="fil0" d="M18949 4720l-493 -301c-168,-110 -338,-195 -521,-306 0,41 -33,48 -97,71 -66,24 -112,30 -153,54 6,-126 82,-54 207,-140l-211 58 -72 -190c-133,-10 -241,70 -357,110l28 243c-156,30 -2039,712 -2218,788 -330,139 -1117,338 -1318,490 -83,-63 -31,26 -70,-116 -23,-82 26,-64 -38,-97 -30,-15 -171,42 -217,55 -1,4 3,6 3,10 -1,69 72,-22 -5,26 -79,51 57,-41 -44,10 -178,89 155,-14 -59,23 -17,3 -47,5 -64,13 210,23 215,-64 392,-52l60 241c-118,52 -323,134 -434,154l-54 -230c-20,-95 43,1 -24,-73 4,-2 12,-6 13,-2l108 -24c-70,-9 -76,-14 -127,-1 -43,112 4,149 -3,274 -105,23 -263,75 -341,131 102,-11 197,-78 293,-91 115,-14 58,-16 86,36 -14,21 -246,92 -320,133 63,128 180,221 272,321 114,123 191,227 296,313 -58,-114 -419,-488 -545,-631 116,-33 350,-119 408,-150 111,110 258,202 264,371 119,-110 47,-31 211,-94 146,-55 173,-55 234,69l-205 85c-3,2 -10,7 -15,11 134,-19 232,-115 331,-31 37,32 -8,-2 36,39l53 40c-89,72 -163,74 -246,125 279,-31 400,-272 573,1 -108,96 -269,97 -388,177 -3,2 -10,8 -12,10 -3,1 -9,6 -12,10 120,-19 445,-214 541,-195 61,37 35,18 83,65 5,5 35,38 36,40 31,37 12,6 31,43 -33,23 5,0 -46,28 -144,79 -296,111 -451,195 241,-34 296,-213 450,-51l62 59c3,2 11,7 13,9 3,2 9,6 14,9l-269 150c166,-25 250,-172 423,155 -267,39 -279,248 -507,-81l70 -64c2,-2 10,-6 14,-10 -102,11 -104,39 -186,-10 -185,-110 -57,-116 -171,-181 -64,-37 -80,-88 -129,-145l-199 -225c-43,-30 -43,-22 -85,-68 -59,-67 -89,-146 -175,-186 -35,-16 20,-21 -46,-7 -14,119 372,435 492,573 57,64 488,536 576,555 79,-11 125,-37 206,-74 110,-51 113,-56 222,-85l-186 -164c-35,-28 -7,-9 -46,-32 12,-44 -2,-16 26,-52 3,-4 8,-11 11,-15l42 -34c-119,-18 -167,-71 -206,-186l206 -69c-94,-53 -165,-46 -219,-133 28,-46 92,-71 144,-102 5,-3 14,-8 20,-13 -187,47 -277,146 -386,22 -54,-63 -22,-45 -84,-107 -128,76 -156,75 -254,-7l-54 -39 77 -88c-148,17 -143,90 -230,-67l-16 -77c0,-1 2,-7 1,-10 -284,124 130,-29 -125,104 -37,-65 24,29 0,-54 -259,114 63,36 -88,64l-62 36c-125,-61 -218,-167 -306,-283 -2,-2 -6,-8 -9,-12 53,-33 328,-141 406,-162 -111,-22 -42,25 -101,-88 404,-113 754,-243 1132,-402 341,-143 1191,-409 1586,-564 137,-53 294,-106 437,-160 109,-41 372,-156 466,-136 -38,53 -98,66 -180,94l-1551 574c-277,107 -612,218 -896,328l-892 348c181,-49 287,-101 452,-166l1371 -498c343,-124 580,-223 893,-332 284,-99 621,-261 922,-333 -126,-91 -62,-21 -117,-246 62,-45 192,-98 294,-92l50 208c-58,27 -34,11 -115,46l-101 51c-3,2 -10,6 -15,10 89,-6 103,-32 193,-48 5,-1 12,-3 17,-3 4,0 11,-1 15,-1l141 63c188,115 217,185 287,192 22,-51 5,7 3,-28 -4,-93 -18,51 -3,-20 41,18 60,27 106,52 -80,11 -71,-47 -60,15 11,64 144,10 276,130 -74,-29 -74,-47 -154,-79l227 136c71,54 30,-6 76,39 0,1 5,5 6,6 1,1 6,5 7,6l33 17c3,2 11,6 13,7l36 38c30,28 25,5 44,-14 1,-1 4,-7 8,-8l169 113c67,41 85,56 171,103 70,39 99,62 171,104 74,43 127,77 171,92l-203 108c-8,3 -31,10 -38,13 -6,2 -12,5 -18,7 -89,42 -127,105 -241,53l0 27c-53,193 -245,31 -361,-26l36 -76c-130,59 -575,285 -676,227l-122 125c124,-19 156,-6 267,111 35,36 13,8 43,53 -162,32 -245,166 -363,61 -1,3 2,6 2,11 1,50 28,51 -25,88l-1514 659c-105,39 -61,4 -163,59l-251 105c-6,3 -13,5 -19,7l-67 37c-155,94 -344,130 -427,-92 98,-72 241,-154 340,-56l86 115c54,-45 41,-33 -5,-70 -22,-17 -20,-15 -40,-37l-53 -79 82 -77c-146,-13 -161,-85 -248,-176 -201,86 -241,40 -325,-122l-107 53c-8,-11 -15,-25 -17,-21l-142 -128c50,-68 95,-55 161,-100 -191,-9 -337,231 -475,29 -73,-108 7,1 -20,-86 -78,30 -127,28 -166,-28 -92,-131 99,-18 -42,-116l75 13c1,-1 7,-2 8,-3 158,-56 -184,36 75,-52 24,81 -6,-61 -5,18l2 15c0,0 1,6 3,8 120,-63 137,-21 207,37 -35,66 -46,54 -107,93l-33 20c116,-22 206,-106 287,-31 4,4 9,10 12,13l49 77 51 -43 -225 -130c-5,-2 -12,-5 -17,-8 -27,-15 -26,-26 -76,-56l83 -85c42,-9 21,-43 74,-34 36,22 -86,26 69,17 47,-3 47,-1 83,-32 122,-107 -63,110 17,-45 2,-3 6,-18 51,-41 52,79 -26,-54 0,54l75 -72c74,31 80,28 125,91 46,-35 20,-42 19,-41l-103 -56c35,-25 49,-31 84,-46 77,93 -35,-87 0,48 278,-112 -110,21 125,-102 37,68 2,-43 0,32l0 21c80,-34 46,-38 125,0l21 -63c9,-57 -98,10 54,-60 65,71 6,-50 3,18 -6,153 -31,-121 -3,30 157,-70 191,-36 102,-101l99 -20c48,88 -2,-62 -1,31 0,1 0,6 1,8 36,-22 69,-23 75,-58l0 -19c45,29 116,39 173,14 1,0 6,-3 7,-4 1,-1 5,-6 7,-7l138 -70c1,-3 -2,-12 -2,-10 0,1 -51,-65 143,-81 1,0 6,5 52,-2 99,-17 29,-32 132,-79 7,13 -63,18 88,96 -15,-23 -20,-41 -22,-51 -1,-3 -4,-12 -4,-15 -9,-55 -16,-43 63,-82l0 50c29,-15 52,-23 70,-41 62,-65 -83,31 5,-26l44 -17c30,-15 53,-29 73,-30 100,-3 -8,-7 9,41 134,-62 -1,-21 79,-63 85,-45 -53,52 39,-7 122,-76 -18,51 8,-9l-1 -24c32,-6 111,-10 119,-13 90,-28 -23,-12 81,-55 26,50 -4,-30 -1,35 0,1 -1,7 1,10 59,-27 82,-18 166,-44 -50,-34 -46,-7 -121,-29 63,-17 97,-27 155,-46l-3 33c0,1 1,6 3,9l76 -62c0,0 -2,-4 -1,-5l127 65c33,-127 4,108 -6,-27l4 -93c75,34 101,-10 226,-5 -27,-66 -79,-61 5,-84 1,-1 9,-2 10,-2 91,3 15,-25 12,32 0,1 -3,7 -3,11 70,-34 141,-66 244,-26 -10,59 -50,60 -96,96 117,-24 160,-35 242,6 5,3 11,7 16,9l72 30 -99 73c310,-37 241,89 533,207 -3,6 -10,8 -11,17 -7,48 -30,31 -25,61 85,-31 70,-40 150,-2 2,-4 1,-17 2,-14 0,3 1,-11 2,-13 40,-100 192,-95 310,12 2,3 8,9 13,13 -9,7 -102,60 -151,57 -70,-4 -80,-33 -153,-56l54 47c20,18 23,16 46,47 -48,25 -128,78 -220,46 -61,-21 -105,-60 -109,-101 0,-4 2,-18 3,-22l-245 83c-84,47 -160,94 -227,34 -34,64 2,-65 4,19 0,19 4,31 -4,52 -118,38 -186,110 -276,23l44 66 -420 156c38,25 64,38 109,66l115 70c-47,58 -151,110 -222,107 -92,-5 -150,-86 -201,-149l-242 86c-87,45 -126,84 -253,89 -40,-58 -35,-53 -97,-75 4,4 11,3 12,11 3,11 20,20 25,25l51 75 -153 43c75,58 121,61 181,122 3,3 8,9 11,12 2,3 7,10 10,13l17 26c-37,25 -132,71 -193,93 -110,39 -83,-15 -188,-72l44 124c-52,29 -2,3 -52,28 -116,58 -191,95 -274,-22 -5,5 -17,3 -18,11 -5,42 -11,10 33,47 44,35 16,1 38,43 -13,17 -205,141 -293,85 -5,-3 -20,-17 -26,-22 -4,-3 -9,-8 -13,-12 -4,-3 -9,-9 -13,-12 -32,-29 -61,-55 -108,-97 -149,78 -245,46 -332,-102 89,-15 178,-51 232,-92l-75 -54c-4,-3 -9,-8 -13,-11 -68,-51 14,-22 -88,-53 17,-53 35,-55 25,-87 -219,102 -215,104 -367,-40l161 -86c166,-42 378,-227 507,-48 6,-5 20,-18 21,-11 2,7 11,-13 18,-17 7,-5 -60,-26 -73,-36 -54,-40 -21,-7 -53,-56l859 -327c68,-31 125,-27 185,-108 116,39 48,30 144,82 2,-14 12,-5 -50,-56 92,-110 207,-75 287,-137 2,-2 8,-7 11,-9 20,-14 29,-19 62,-31 70,-28 87,-41 165,-11 52,-95 181,-149 284,-87 44,26 10,3 42,33 34,31 24,21 54,60l-162 68c129,-6 185,39 267,133 -179,35 -87,108 -285,49l-6 75c-125,17 -106,46 -260,51l-84 -89c-38,-41 -4,11 -43,-50 211,-49 156,-149 347,-1l-87 -91 156 -56c-48,-32 -52,-24 -99,-46l-102 -49c59,68 135,108 9,158 -176,69 -166,16 -282,-56 4,4 11,4 13,11l41 38c4,5 10,11 14,15l-73 101c-4,2 -12,5 -17,8 102,-2 95,4 159,63 5,4 10,10 14,14l28 30c3,3 9,10 14,16 -113,75 -119,65 -255,110 -118,39 -155,94 -277,109 -67,-63 -108,-61 -151,-152 84,-25 132,-75 215,-73 112,3 106,61 199,104l-132 -123 189 -91c-108,6 -89,40 -160,-28l5 77c-210,93 -218,86 -353,-29 -41,36 64,74 95,127 -65,38 -73,41 -140,60l119 62c49,39 55,45 85,90 -118,44 -206,135 -307,31 -19,44 -4,-5 2,33 10,73 19,-102 11,54 -162,53 -227,125 -353,-2 -58,-59 -10,17 -51,-71 259,-58 145,-132 369,-15 -32,-42 -48,-31 -75,-102 81,-13 85,-33 179,-48 -75,-33 -147,-45 -198,-129l-52 36 89 114 -160 69c-100,15 -73,-18 -138,-60 -53,-35 20,0 -54,-30l37 44c3,4 9,10 12,14 5,5 19,20 23,25 33,39 7,-4 29,38l-227 86c-95,31 11,-51 -73,38 76,8 226,-77 323,39l32 95c76,-37 112,-54 190,3 4,3 10,9 14,12l68 76c-279,122 -204,159 -395,-21l-262 -146c-1,-2 1,-10 1,-12l9 -44c-61,30 -139,80 -262,85l-63 -81c-2,-3 -8,-11 -10,-14 -2,-2 -8,-9 -11,-13l37 84c6,6 20,22 25,28 1,2 31,42 33,45 141,-85 215,-47 316,55 2,3 8,9 13,13l-229 105c31,24 13,9 44,28l158 117 -78 71c89,-14 82,-33 187,-48 -7,-3 -17,-14 -21,-8 -4,7 -27,-10 -39,-15 -63,-29 -119,-75 -154,-149 177,-75 281,-144 408,48 -78,37 -91,56 -198,71 44,23 104,11 138,58 49,-76 -18,-28 11,-69l205 -93 99 2c-22,-47 -26,-40 35,-68l154 -74c-86,16 -97,37 -173,-22 -4,-3 -10,-8 -14,-12l-58 -66c37,-35 140,-87 201,-88 143,-2 24,-8 62,16l66 -73c73,-48 159,-85 239,-50l-5 -50c128,-52 267,-136 373,5 38,51 3,-14 12,31l0 37c53,-25 78,-39 159,-50l-36 -8c-88,-14 -143,-44 -212,-106 -3,-3 -9,-8 -13,-13 5,-3 14,-15 16,-10l64 -39c190,-106 170,-9 306,49 -5,-5 -12,-19 -14,-15l-112 -67c47,-59 149,-137 240,-117 88,18 43,3 67,56 50,-68 12,9 8,-54l-8 -38c48,-28 84,-58 141,-64 108,-11 69,18 169,53 -194,-193 -128,13 -319,-159 -49,-44 -18,-15 -43,-43 72,-41 173,-88 213,-85 57,4 131,83 194,106l-51 45c-54,53 -38,-9 -18,24 100,-29 81,-22 175,-70 62,72 67,75 157,100 -4,-4 -11,-16 -13,-12 -17,33 -12,-64 -199,-96 -61,-11 -104,-29 -167,-89l-41 -47 171 -75c-150,27 -264,166 -400,91l-96 -87c67,-52 188,-66 260,-129 -108,15 -65,43 -148,-25l0 76c-246,72 -378,203 -500,100 -29,69 -19,-38 10,29 19,45 36,62 -80,99 -135,42 -140,-52 -234,-79 23,53 68,77 114,123l-410 153c-153,40 -163,98 -340,130 -58,-86 -131,-65 -41,-127 -71,8 -64,1 -118,44 83,10 124,48 157,101 -38,21 -94,42 -157,58 -123,32 -63,43 -128,-33l-40 22c-2,12 21,0 37,27 35,61 19,-23 4,32 -145,77 -211,88 -307,-1l46 91c-38,25 -136,92 -205,70 -83,-27 -35,-19 -53,-47 -3,3 -3,7 -3,13 0,6 -2,11 -2,13 -6,64 68,87 -205,134 -43,7 -18,-1 -45,8l-27 11c-193,93 -143,121 -331,25l62 94c-57,19 -117,36 -148,79 47,-13 170,-72 230,-83 110,-20 110,46 200,96 -5,5 -13,6 -16,17 -3,11 -26,26 -31,30 -61,47 -105,53 -173,66 6,2 15,-3 18,3l53 7c82,13 148,66 182,138l-102 65c-2,2 -9,6 -14,10l193 -94c-92,-33 -111,-83 -194,-128 46,-45 156,-99 237,-110 68,-9 125,60 169,119 2,3 7,9 10,14l-194 121 102 79c4,3 10,8 13,12l20 23c85,135 -74,-30 -11,90 71,-36 173,-68 248,-99l171 177 -224 85c85,-3 100,-39 175,-27 68,11 -3,-11 48,20 58,36 100,110 161,129 -11,-19 1,-5 -28,-39l-122 -124c-1,-1 -4,-5 -6,-8l116 -76c63,-27 85,-34 157,-65l598 -255c44,-20 101,-41 142,-58l160 -90c-203,68 -292,129 -410,-80 94,-22 190,-85 252,-70 57,13 129,87 165,128 3,4 9,11 12,14 2,3 8,10 12,15 85,-33 190,-71 264,-131 -147,34 -217,110 -333,24 -52,-39 -39,-21 -79,-69 15,-16 -1,-7 40,-32 149,-91 237,-79 355,33l53 50c185,-86 139,-40 302,48l-130 -132c83,-21 141,-50 212,-65 -123,-64 -171,10 -284,-159 170,-27 178,-106 331,-23 56,30 -19,1 53,27l-93 -93c43,-47 132,-93 213,-92 54,1 49,9 91,42 0,0 22,22 41,35 53,37 7,13 62,31 -12,-15 -3,-8 -34,-35 -66,-57 -82,-46 -113,-115 377,-81 307,-234 584,-49 -2,49 -26,17 -9,60 108,-39 204,49 256,70l-139 -126c295,-85 146,-17 378,51 -3,-4 -9,-16 -10,-12l-146 -112c41,-31 98,-77 181,-64 101,16 99,60 184,89 -95,-111 -505,-329 -623,-379l168 103c-79,68 -174,104 -268,49 -1,0 -37,-28 -43,-33l-39 -39 121 -68c5,-2 14,-7 20,-11 -119,28 -191,72 -289,4 -1,-1 -39,-33 -41,-35l-36 -39c37,-25 109,-60 120,-67 -121,4 2,-2 -93,22 -55,14 23,31 -93,10 -55,-10 -97,-54 -159,-86l100 -79c-74,10 -91,37 -146,31 -97,-10 -32,-2 -72,-38l-39 -43c8,-1 43,-5 47,-6 47,-15 46,-36 36,-72 -43,24 -67,32 -126,53 -20,62 64,12 -68,41l-17 7c-1,0 -6,2 -8,3l-86 18c-129,35 -114,77 -202,91l-270 89c-60,22 -119,41 -181,67 -207,83 -950,332 -1070,418 -79,57 80,-22 -41,24 -42,16 -29,14 -31,15l-24 13c-105,35 -5,-21 -214,53 -29,10 -65,23 -80,36 -84,67 -10,-37 -13,32l4 20c-76,-29 -118,-6 -201,28 -10,38 4,-13 4,16 -1,45 40,-43 -4,17 -123,-39 -402,117 -525,156 -1,3 2,6 2,10l2 18c-16,41 125,-36 -54,20l-89 19c-55,9 -88,24 -136,36 -3,41 29,39 -50,73 -1,-2 0,-9 0,-7 1,8 25,8 0,-45 -78,38 -192,78 -276,102 -6,43 29,34 -50,74l0 -32c0,-1 0,-8 0,-9 0,-1 1,-7 0,-11 -100,47 -34,64 -94,65 0,0 -44,-6 -77,-3 55,33 16,32 21,71 96,-39 131,-65 232,-75 35,38 48,43 71,96l-108 74c102,-19 277,-88 311,62 2,9 5,19 -5,40l-42 40c191,-4 213,-176 402,21l23 26c56,42 243,11 244,168 1,89 -80,-48 -2,41 57,-27 158,-69 225,-96 60,52 129,104 159,171l-51 31c-74,39 -141,68 -233,72 -57,-54 -128,-105 -129,-183l-148 39c109,41 61,-43 157,59 4,4 8,10 12,14l57 67c2,3 8,10 10,13 2,2 7,8 10,12 -60,57 -107,52 -182,87l-62 38c91,-18 159,-81 253,-29 52,28 125,122 140,183l-245 120c162,-29 1777,-755 2068,-885 216,-97 795,-364 981,-403 -6,-6 -17,-20 -21,-14l-143 -75c-73,-41 -61,-46 -122,-94l123 -67c40,-16 99,-48 145,-47 85,2 182,86 226,160 -86,34 -156,54 -226,111 96,-29 154,-57 235,-91l225 -114c-156,29 -263,92 -396,-97 23,-18 148,-92 214,-98 100,-9 149,60 229,112l-6 28c-15,96 -61,-19 -2,55 100,-62 260,-118 376,-173 112,-53 272,-124 375,-164 -36,-117 -193,-173 -302,-235l-582 -343c-72,-32 -51,-1 -92,-28 -71,-46 75,82 -16,-21 -76,-85 -148,-76 -224,-144 -77,-70 -166,-63 -256,-117 -87,-52 -173,-109 -227,-141 77,-63 241,-133 351,-82 238,111 633,417 898,528zm-6230 1221l101 99c-124,-108 87,-20 -52,-223 -9,189 1,81 -49,124zm-787 -4837l-53 27c95,37 30,15 -61,46 -218,77 -260,90 -192,345 56,207 110,413 156,617 44,190 110,429 160,613l733 2755c16,59 31,106 44,160l41 133c1,4 5,12 8,17 -7,-129 -1000,-3844 -1117,-4296 -59,-228 -16,-318 372,-367 -6,-3 -15,-15 -18,-10l-73 -40zm-147 51c87,-3 39,10 42,-29l-42 29zm244 -78c-72,27 -31,-5 -36,39 71,13 45,34 129,-7 -165,0 -45,-2 -93,-32zm-107 3c56,-2 35,17 29,-26l-29 26zm284 -51l-37 29c45,74 44,-74 -22,43 0,1 -5,6 -4,9l153 -34 -90 -47zm-118 57l29 -24c-56,0 -42,-19 -29,24zm-74 -37c55,3 47,22 29,-24l-29 24zm182 -43c133,-21 33,-18 72,33l109 -26c-141,53 -67,20 -59,48l122 -37c-1,3 -33,-20 35,-23 80,-4 95,-8 168,-20 3,-16 80,-22 -59,-27l161 -41c-144,61 -60,22 -52,49l125 -33c3,-11 87,-18 -60,-26 118,-15 56,1 173,5 -15,-10 -18,-15 -50,-27 -102,-37 -16,-7 -13,1l126 -35c67,47 32,-44 -8,10 -39,52 -35,-32 -18,25 316,-70 212,-38 203,-75 -7,-27 -129,30 180,-55 117,-32 230,-64 352,-92l-450 131c-5,2 -14,7 -18,8 -4,2 -11,6 -17,10 120,-4 679,-167 926,-207 -160,-78 -8,18 -125,-92 -253,53 -1708,421 -1823,496zm2566 -596c-126,12 -26,14 -67,-30l-650 124c118,87 40,54 200,34 -5,3 -14,-1 -17,6 -8,22 -17,7 -34,15l-53 26c127,-2 206,-46 353,-59l-105 -19c79,-14 199,-11 306,-23 29,-78 42,58 -17,-21 -28,-39 -145,5 159,-3 -7,-5 -16,-21 -19,-15 -4,5 -16,-11 -19,-14 -5,-2 -29,-17 -37,-21zm3148 3658l0 34 0 -34z"/>
    <path class="fil1" d="M12820 6040l-101 -99c-1,-107 -284,-1102 -298,-1147 -115,-376 -202,-784 -305,-1167l-451 -1742c-24,-92 -63,-239 -79,-291 -89,-298 -58,-375 199,-439l42 -29 52 5 53 -27 61 12c5,-44 -36,-12 36,-39l59 9c-13,-43 -27,-24 29,-24l52 -4 37 -29 62 10c-39,-51 61,-54 -72,-33l-153 19c18,46 26,27 -29,24l-63 5c6,43 27,24 -29,26 -251,37 -302,50 -430,207l0 161c65,107 36,83 68,234 3,17 12,54 14,62 24,95 51,181 75,276l434 1683c108,357 209,760 297,1125 45,189 97,358 151,548l142 559c30,108 148,289 178,365 61,153 40,177 212,318 247,202 255,297 509,562 262,274 404,524 638,786 111,124 258,210 363,335 103,124 380,490 515,523 80,19 125,52 210,103l132 0 790 -347c251,-125 525,-241 789,-362 1203,-552 2624,-1315 3743,-2002 169,-104 240,-193 248,-270l0 -32c-13,-120 -173,-213 -327,-299l-2177 -1270c-549,-342 -456,-170 -537,-609l-326 -1460c-4,-20 -8,-45 -12,-65 -8,-42 -14,-86 -24,-129 -72,-328 -414,-1961 -466,-2076 -227,-40 -981,120 -1256,162 -344,53 -866,197 -1180,212 41,44 -59,42 67,30l158 18c22,-47 31,25 -14,-19 -39,-39 -44,32 -11,-10l175 0c1,-1 -2,-2 -2,-2 0,0 -1,-3 -1,-4 -13,-69 -49,51 3,-26l250 -14c32,-49 25,33 -15,-18 -53,-67 -46,46 -10,-15l191 -31c-6,3 -16,6 -21,8 -5,2 -15,6 -21,8l-72 25c153,-4 255,-47 416,-58 -4,-1 -61,-7 -103,-27 132,-12 111,17 255,-2l-125 -21c154,-20 123,22 288,-8 119,-21 161,-33 287,-45l-102 -22c126,-11 114,16 252,-4l106 -14c34,-63 -5,42 -17,-18 -4,-24 -77,5 17,-17l126 11c89,-21 17,5 16,-16 -4,-57 -59,41 -16,-15l175 -22c139,-8 148,-30 170,94 101,565 275,1295 405,1855l355 1589c20,87 41,175 62,266 26,111 63,183 -29,212l0 34 25 11c183,111 353,196 521,306l493 301 616 355c129,74 130,43 167,151 -701,265 -5245,2372 -5387,2338 -90,-21 -630,-658 -770,-812l484 541c62,74 203,279 308,276 158,-5 673,-267 846,-345l2105 -922c55,-29 54,-27 101,-44l2190 -960c48,-17 68,-21 104,-50 56,-45 44,-8 54,-61 2,-7 6,-9 10,-13 235,153 480,280 718,422 260,154 660,266 237,525l-669 390c-29,17 -22,21 -23,21l-42 29c-11,-8 -98,86 -206,118l57 -63c-15,13 -35,30 -49,44 -2,2 -7,8 -9,10 -2,2 -6,8 -8,10l-57 28c-57,7 -75,71 -157,94l57 -61c-18,15 -39,32 -59,54 -59,65 -64,38 -66,39l-94 59c-119,106 32,-40 -48,12 -50,32 -18,51 -70,55 -3,0 67,-25 -19,-1 -3,1 -11,5 -14,7 -86,46 30,-17 -30,20 -13,8 -31,20 -33,22l-23 2c-45,18 -106,47 -150,74 -111,67 -183,158 -314,186l-24 13c-1,1 -6,4 -7,5 -1,1 -5,3 -6,4l-199 71 96 23c-206,49 -323,188 -492,222 24,-32 1,-14 53,-47 4,-3 48,-23 50,-25 45,-21 62,-28 102,-48 44,-21 56,-25 102,-48l86 -57c-92,32 -189,89 -270,128 -14,7 -127,60 -131,63 -105,83 62,-21 -26,62 -68,65 -35,6 -38,5 -9,-2 31,-45 -140,30l-1824 804c-730,327 -730,338 -1014,23 -78,-87 -106,-115 -175,-196 -59,-69 -162,-234 -196,-180 174,124 466,590 651,617 248,37 2439,-1053 2668,-1082 -4,4 -10,9 -13,11l-105 68c-597,308 -1221,557 -1824,851 -245,119 -604,340 -792,223 -64,-40 -159,-61 -222,-129l-469 -554c-84,-88 -108,-80 -157,-192 -1,4 2,10 2,11l7 45c0,3 0,11 0,13l-4 25c-99,-51 -80,-98 -83,-241 -2,4 -2,11 -3,14l-12 33c-19,43 -14,33 -34,59 -60,-124 -94,-59 -104,-223 75,35 10,-10 72,48 9,9 38,68 52,64l-120 -171c-26,66 -17,91 -61,139 -15,-73 12,-86 -21,-136 -74,-116 -33,26 -91,-74 -30,-52 -45,-45 -95,-84l68 7c-116,-90 -66,-27 -133,-109 -21,-26 -20,-22 -37,-42 -25,-28 -32,-39 -59,-71 -50,-61 -87,-78 -135,-139 -24,-30 -42,-52 -41,-86 7,-163 3,-44 40,-92 132,185 343,392 517,587l261 290c52,56 91,94 131,141 24,28 106,180 130,120 -221,-187 -654,-731 -890,-983l-263 -233c-10,-7 -24,-2 -29,-21l-3 -29c0,-8 11,-7 15,-12 26,43 14,20 43,60 9,13 41,65 45,34 1,-7 6,-11 10,-16 -99,-66 -242,-236 -297,-328l-8 36c-2,7 -9,31 -11,37 -18,53 1,22 -26,57 -61,-141 -168,-98 -242,-240 -30,-56 -33,-104 -59,-161 -43,-92 -11,-7 -48,-80 -24,-46 -12,-1 -25,-72l395 397c-91,-59 -336,-363 -424,-469z"/>
    <path class="fil0" d="M12878 1380c165,-8 247,-38 372,-70l2318 -532c23,-5 68,-12 125,-26 74,-18 178,-45 255,-65l1053 -230c54,353 450,2062 538,2427 59,243 156,597 185,818 -372,171 -2490,887 -2983,1058l-1202 425c-151,47 -451,186 -621,206l-39 -83c0,0 -21,-90 -28,-124l-185 -708c-2,-6 -4,-12 -6,-19 -2,-6 -4,-13 -6,-19l-172 -677c-2,-6 -11,-42 -15,-57l-359 -1363c-4,-16 -10,-40 -16,-59l-110 -414c-12,-39 -20,-77 -31,-119 -6,-20 -10,-33 -16,-52 -2,-6 -13,-34 -16,-42 109,-118 542,-164 701,-201 77,-17 163,-30 232,-73 -118,4 -864,181 -953,231 13,210 423,1611 486,1893l371 1422c16,62 88,426 136,468l4845 -1683c11,-230 -293,-1318 -354,-1645l-182 -814c-64,-266 -127,-587 -193,-820 -232,8 -4130,946 -4130,947z"/>
    <path class="fil0" d="M16965 7327l290 -135c73,-32 111,-59 170,-84 65,-28 86,-43 147,25l-2 -45c-10,-89 179,-106 324,-197l177 147c-227,45 -297,192 -408,136 -5,-2 -22,-17 -25,-28 -3,-9 -6,-23 -15,-22l-36 45c72,34 6,-64 64,59 -107,39 -223,100 -298,137 -75,38 -159,91 -281,124 -43,-31 -61,-35 -93,-63l-53 -68c24,-24 1,-8 39,-31zm-75 31c37,76 17,48 83,98 151,114 120,57 503,-123l1171 -573c-26,-38 3,-8 -45,-52 -2,-1 -38,-28 -42,-32 -37,-26 -50,-37 -112,-68l-460 218c-79,48 -15,9 -50,34 327,-80 424,-282 571,-186l102 76c-79,68 -362,209 -513,250 -31,-13 -24,-6 -62,-29 -39,-24 -12,-2 -43,-31 -52,-49 -36,-5 -48,-92 -117,40 -989,433 -1055,510z"/>
    <path class="fil0" d="M14623 702c221,-85 217,-23 253,23 -27,-131 20,-50 -91,-112l136 6c4,139 -17,146 -149,141l76 -46c-82,-1 -49,6 -111,14 -170,22 -78,8 -114,-26zm23 -54l105 1 -105 -1zm292 -60c121,-2 72,-17 121,35 10,78 -2,85 -89,107l-32 -142zm-417 72c0,154 -10,161 134,171 -6,-3 -15,-14 -18,-9 0,1 -67,-10 -90,-69 -19,-50 -5,-29 -7,-82l99 -15c-43,47 -38,21 -47,105l180 -2 -117 53c80,-4 372,-37 418,-101 16,-21 34,-86 -2,-125 -64,-70 -461,42 -550,74z"/>
   </g>
   <rect class="fil2" x="85" y="1514" width="10952" height="6460"/>
   <path class="fil3" d="M85 1430l10952 0 86 0 0 84 0 6460 0 85 -86 0 -10952 0 -85 0 0 -85 0 -6460 0 -84 85 0zm10867 169l-10782 0 0 6290 10782 0 0 -6290z"/>
   <polygon class="fil4 str0" points="4277,4039 6512,4036 6837,4370 6846,5452 4277,5452 "/>
   <path class="fil5 str1" d="M11037 7331c3952,1357 1871,1873 -6243,1548"/>
   <rect class="fil6" x="3713" y="8363" width="1172" height="1637"/>
   <g>
    <path class="fil7" d="M2330 4368l-4 10c14,82 -10,90 -27,104 -9,7 -8,2 -23,18l33 -7 41 83c39,42 9,41 33,96l48 125c2,32 -7,42 -8,42 0,-2 -2,7 -4,10 15,21 -7,3 12,3l9 -1c0,-2 2,-2 3,-1l2 95c34,12 -24,13 36,-29 0,13 -3,69 -7,79 -27,70 -79,-11 -57,70l8 32c2,-81 28,-61 28,-61 28,81 7,280 -3,372 -24,-21 2,-14 -39,-29 -31,-11 -40,-10 -71,-13l67 52c20,16 9,22 46,32l-3 34c-13,117 -27,130 -151,129 -34,6 -22,14 -61,-30l-15 33c33,18 58,58 106,50l86 -7c2,0 5,-2 7,-2 47,-9 14,-20 41,2 13,133 -6,143 0,223 5,72 -3,190 11,245 46,-28 2,-28 89,-31 1,-1 2,-7 3,-5l5 -13c1,-1 2,-5 3,-7 26,-71 11,-64 21,-102 -51,12 -5,-7 -25,30 -19,35 30,23 -27,30 0,-93 -1,-146 36,-205 14,-23 5,4 16,-35 22,-80 -22,-104 64,-149 -3,-65 -27,-143 0,-209 58,111 -3,406 22,473 17,45 -11,9 30,41l0 -979c-1,1 1,2 1,3 1,12 16,-3 35,1 -8,-29 2,-9 -14,-28 -23,-26 -4,-5 -28,-20l-5 -1c-1,0 -6,-1 -7,-2 -2,0 -19,-5 -22,-6l0 527c-2,-4 -3,-8 -3,-10l-32 -74c-14,-53 4,-109 1,-159 -64,21 -12,26 -66,-4 -1,4 -2,43 -2,45 -5,31 5,3 -9,24l9 -171c0,-2 1,-5 1,-7 7,-39 14,-51 34,-66 -30,-16 -42,11 -29,-113 2,-18 -9,-10 8,-26 16,-14 54,10 22,2 -16,-47 -4,-18 0,-50l-106 -76c2,-164 -11,-369 16,-524 -26,5 -38,-19 -40,99l-21 3c0,-35 6,-58 -5,-81l-6 141c-31,-29 -5,7 -18,-29 -13,-33 2,-66 -11,-92 -21,-40 12,-1 -29,-31 5,50 15,132 33,166l-21 9c-23,16 -18,27 -53,45 15,-129 1,-77 -14,-93z"/>
    <path class="fil8" d="M2129 4830c0,-3 14,-47 14,-47 8,-52 -5,14 -4,-29 43,-26 -6,-10 43,-21l11 95c64,-3 23,-5 43,11 -73,30 -111,17 -189,20 27,-81 -8,18 8,-34 11,-36 4,-19 35,-54 11,6 32,-1 39,59zm-153 207l6 390c119,-7 69,72 69,92 0,2 1,23 2,26 7,89 12,131 8,229 9,60 6,32 29,71 55,-11 10,-5 24,16 -16,52 -8,32 4,85l18 -15c4,-2 9,-5 14,-7 -30,58 -21,40 -21,106 21,-19 53,-15 10,-106 1,1 68,5 21,43 17,-60 4,-28 39,-43 -10,32 -25,52 -15,87l22 6c0,-2 3,-5 4,-7 4,-7 3,-12 4,-19l4 -22c14,-30 1,-12 27,-34l19 38c2,2 5,5 6,7 2,2 5,5 7,8 -15,37 -19,20 -32,49 34,-26 37,-19 53,-60 -2,-3 -7,-9 -8,-7 0,0 -23,-14 -35,-38 -13,-29 36,-22 -24,-43l19 -7c46,-21 28,-1 37,-27 0,-1 0,-69 0,-78 46,19 46,55 36,63 0,-83 0,-66 28,-77l-25 -56 -104 -1 -22 -67 -32 -18c0,-1 8,-19 8,-21 7,-42 17,22 -5,-16 -12,-21 -2,28 -13,-27 -4,-19 -2,-23 -1,-42 -22,52 1,35 -19,30 -12,-23 -18,-36 -8,-73 11,-35 12,-12 19,-1 1,2 3,6 4,8l8 18c8,-84 26,-69 42,-77l-53 -12c-3,0 -7,1 -11,0l-20 -55c-23,-47 -52,-14 -39,-187 5,-57 13,-40 17,-137l-24 -12c-35,-16 -31,-7 -31,-64 48,-18 -13,-17 34,-86l125 15c-107,52 -2,65 -36,154 -17,45 -16,20 -47,42 35,8 32,26 71,14 -11,-34 -20,-25 -26,-73 -3,-27 -2,-76 -3,-106 41,14 43,-33 41,61l21 -52c6,36 15,89 2,112l8 -111c49,17 8,-3 32,51l34 -27c15,51 3,92 21,118l0 -205c30,24 35,9 33,106 -1,39 1,66 -6,105l16 28c0,18 -5,49 -5,66 1,44 11,92 12,148 0,15 -1,16 -7,25 14,-24 -2,-60 21,-88l5 75c-5,50 27,19 -14,32l-96 25c21,23 0,12 29,19 1,0 36,-4 44,-4l19 27c33,11 15,1 39,21 8,6 9,9 16,16 17,16 5,7 25,23l3 -34c-37,-10 -26,-16 -46,-32l-67 -52c31,3 40,2 71,13 41,15 15,8 39,29 10,-92 31,-291 3,-372 0,0 -26,-20 -28,61l-8 -32c-22,-81 30,0 57,-70 4,-10 7,-66 7,-79 -60,42 -2,41 -36,29l-2 -95c-1,-1 -3,-1 -3,1l-9 1c-19,0 3,18 -12,-3l-5 -46c-22,46 5,27 -31,52 3,-56 2,-54 -23,-100 -33,-62 -11,-50 -81,-63 2,-13 -8,-67 30,-21 -57,-3 -67,-2 -86,-43 2,-1 5,-3 7,-4l14 -8c5,-2 21,-7 26,-8 24,-7 25,-11 41,-6 -61,-6 -55,-16 -79,16 -4,-23 -7,-43 -8,-64l0 -41c-28,-8 -24,-3 -40,-7 -20,-5 -24,-8 -24,-8 -59,-17 -44,-5 -63,14 60,29 25,25 110,32 1,25 -3,81 -5,84 -17,32 -15,6 -62,7l-19 4c3,1 16,3 19,5l52 27c-238,-40 -105,45 -220,55l0 277c14,9 29,15 54,27l-50 7z"/>
    <path class="fil9" d="M1855 4582l-8 26c-1,3 -1,6 -2,10 -14,93 8,530 -2,649l-2 1058c1,21 1,44 2,65 1,6 2,22 3,28 5,23 3,14 7,19 22,-59 -4,-41 1,-123l9 -263c-3,-45 -13,-63 3,-117l8 -20c-16,104 -6,390 1,498 32,-13 29,-106 29,-142l68 -1 0 82c83,5 35,39 76,73 53,45 51,-28 51,96l18 -57c12,-41 25,-13 54,-83l3 61c33,-32 14,-18 53,0l3 -53c-61,28 -16,2 -36,-10l-97 -74c-17,34 0,29 -28,48l-7 -88c-28,-12 -39,-14 -66,-29 52,-20 20,-9 12,-59 -7,-46 5,-97 -6,-144 -12,-53 -23,-180 -19,-258l-1 -347 -6 -390c-14,5 -17,352 -17,390l-21 3c0,-11 1,-52 -1,-60 -25,-70 37,46 -15,-22l-16 -14c3,-2 8,-3 10,-5l23 -16c7,-9 6,-1 6,-20 1,-10 -8,-34 -11,-54 -16,-123 10,-215 9,-347 0,-332 56,-204 122,-337 10,-20 13,-28 24,-42 -13,-43 -19,-16 -22,-64 16,-7 2,-3 25,6 -22,-60 -19,-29 21,-82 -97,13 -18,53 -132,182 -23,26 -1,8 -26,23l-25 14c-2,-3 -7,3 -10,5l0 77c0,-1 -2,-3 -2,-3l-27 -32c-1,-4 -4,-5 -6,-7 -4,21 -11,27 -11,27l-5 72c-5,39 4,23 6,48l-18 -108c-5,-54 6,-45 -2,-89z"/>
    <path class="fil10" d="M1388 6649c39,-10 52,-12 79,-42 30,23 7,-1 26,27 26,38 13,80 13,133l-78 82c-2,2 -4,6 -18,17 -55,42 -3,-32 -12,8 -44,20 -8,12 -58,10l22 -17c23,-32 -6,41 2,-15 6,-42 14,-21 21,-54 9,-46 -18,-30 -5,-110 0,0 7,-31 8,-39zm-403 -472c-17,74 6,-7 -33,53l46 8c77,13 61,58 139,135 69,67 42,124 37,268l13 -21c1,-3 3,-6 4,-10 2,-4 3,-6 4,-11 8,-33 -7,-79 9,-101l25 -19c-11,14 -11,-1 14,50 47,-5 41,-11 52,-22l8 99c28,1 30,-2 53,14 -18,27 -18,33 -53,42 4,48 35,92 38,138 7,106 -41,23 -40,93 0,41 -5,7 13,28 101,10 114,16 148,-16 1,1 0,3 0,5l1 25c-1,22 7,0 -1,22l-253 29c49,-11 73,8 127,12 13,1 52,-3 52,-3 26,2 -1,-11 7,5l154 21c-17,-18 -29,-12 -65,-12 -79,0 -233,-12 -276,19 86,-2 282,-13 357,6l1 113c27,-22 9,5 21,-31 3,-9 2,-20 2,-30l0 -55c1,1 3,2 3,5 4,24 32,18 47,14 2,-1 6,-3 9,-5l-9 32c-2,23 -4,4 3,19 10,-11 -10,-24 53,-20 54,4 29,-1 50,29 -22,-10 21,-32 22,-32 9,42 8,86 45,102l1 -95c-2,-3 -5,-12 -6,-10 -12,20 -10,-16 -11,-18 -25,-46 -9,-20 -24,9l-5 -30c-35,12 -30,-16 -30,13 0,-70 4,-6 -21,-34l-64 0c-17,-57 -17,-44 -77,-37 4,-44 7,-21 -3,-44 -18,-40 -38,-9 -4,-87 37,-82 11,-85 28,-145 -3,-1 -6,-7 -6,-5l-28 -45c21,79 -13,51 -16,53l-25 -47c-8,-22 -3,11 -6,-23 -2,-26 0,-15 3,-25l0 -157c-54,-12 -94,3 -200,-17 -24,-5 -92,-12 -110,-1 -58,-66 -12,-161 -16,-250l-12 -77c-20,19 -12,18 -23,55 -23,-32 3,-52 -23,-76l-27 -19 -33 -408 -4 -57c-21,-55 2,-49 5,-108 -19,17 -21,44 -25,56 -5,-115 40,-37 11,-188 -3,-21 -2,1 -1,-21 5,-106 -10,-302 25,-388 0,-1 1,-4 2,-6l82 -26c-31,-32 -28,-27 -87,-25 8,-7 5,-14 12,-24l-30 13c-7,93 -16,13 -42,102 1,0 13,1 16,0l14 -7c-14,28 0,-5 -16,20 -29,46 -16,201 -16,286 -1,66 0,112 8,163l-9 469c-3,172 26,133 19,182l-5 28c0,49 23,48 23,48l-27 41c-25,13 30,15 -7,1l-37 -37z"/>
    <path class="fil11" d="M1275 5790c-4,25 -6,56 -6,71 -39,4 -16,-5 -53,4l6 -64 53 -11zm123 -982c-30,18 -16,-40 -29,36l79 19c28,3 -1,7 35,0 57,-10 15,2 24,-12l10 22 28 8c-7,142 6,339 11,485 4,163 -11,334 -2,495 3,19 -3,194 -18,221 -34,-15 -16,-9 -24,-66 -31,16 -16,12 -48,-2 -2,76 7,37 -29,55l-14 -88c12,22 6,35 4,70 -48,-16 -30,-30 -64,-13 -43,21 -7,5 -23,16 -25,18 10,16 -15,9 -30,-12 -29,-2 -37,-46l3 -62c40,-12 5,10 42,18 40,9 28,11 33,-21 -18,-2 -63,-21 -73,-27 -22,-16 -21,-1 -19,-30 3,-42 -2,-18 17,-18 18,-42 -1,17 1,-68 0,-6 1,-7 2,-11 50,21 41,50 40,51l4 -53c-51,-8 -53,-10 -92,-46 -44,-40 -50,-29 -68,-40l-9 17c-8,21 -11,4 -4,33 -2,-40 0,-58 -20,-75 -4,68 0,135 -13,218l-6 25c0,2 -1,5 -2,7l3 23c47,86 -1,41 47,77 52,39 28,17 70,76l50 -11c3,3 6,3 7,7l59 36c41,13 21,-2 72,-15 22,18 7,29 37,24l23 -13c62,93 50,19 110,70 12,10 14,17 31,30 15,-23 10,-14 12,-50l32 0c0,19 -2,40 2,59 7,26 3,5 10,22 33,83 -12,99 20,167l7 11c14,35 9,151 14,191 29,-27 13,0 23,-40l-1 -250c10,-64 8,-28 23,-45l10 140c0,-21 -2,-46 -2,-65 0,-3 0,-22 2,-27 9,-31 -3,-14 21,-34l-14 -288 -5 -22c-1,-3 -2,-6 -3,-10 -11,-44 6,-30 -15,-33 -26,-50 -16,-191 -19,-249 12,35 1,96 -11,133l9 118c-1,0 -4,0 -5,0 -52,8 -21,19 -57,49 -29,-24 -10,-15 -21,-28 -15,-19 15,-3 -24,-24 -9,158 -22,60 -27,142 -49,-4 -52,-5 -51,-55l-3 -274 -6 -169c9,-186 -13,-419 9,-599 4,-41 5,-56 1,-96l-26 -84c26,7 17,5 34,14 57,28 7,16 50,27 7,-34 -2,-63 20,-95 31,-44 29,-5 29,-108 38,-10 21,-13 43,-20l19 -3c52,-9 32,-40 28,-96 -34,19 0,10 -26,-2 -128,-58 93,17 -35,-19 -18,27 -19,19 -36,49l-104 13c-3,92 -65,158 -81,204 -13,-32 6,-21 -46,-16 -9,33 -2,31 -33,31z"/>
    <path class="fil12" d="M805 4888c14,41 31,1204 28,1216l-17 36c-2,-10 14,-646 -11,-714l0 864 16 -56c1,-3 2,-7 4,-9 2,82 6,165 8,247 2,87 -6,166 -4,248 -2,-3 -3,-10 -4,-9l-9 -28c-2,-4 -2,-7 -3,-11 -2,-3 -3,-7 -4,-10 -1,-3 -2,-7 -4,-10l0 549c30,-49 -13,-292 21,-345l10 249c1,0 4,-2 4,-1 9,34 -1,-2 13,0l17 5 6 -10c27,-53 26,-853 11,-948 -30,-14 -7,1 -12,-19 -25,-16 -21,-9 -25,-49l-12 -1002c-1,-68 -13,-103 46,-109 -9,-164 1,-333 -10,-499 -7,-116 -3,-369 -36,-461 -30,-5 -20,1 -27,-47l-6 2 0 921z"/>
    <path class="fil13" d="M1571 3968c-176,1 -88,9 -116,-17 20,0 51,-1 71,1l45 16zm-39 -48c16,12 8,-1 12,25l-209 -30c-15,20 24,23 -30,15 21,-4 45,-10 40,29l194 16 10 23 -4 20 37 5c-19,17 -3,11 -35,20 -2,0 -33,1 -36,2l-39 -2c24,20 -31,16 31,16l-21 18 22 22c2,-3 8,4 10,5l-58 6c19,1 19,13 37,23l-42 7c-29,8 -13,2 -32,14l153 29c-18,16 25,16 -47,18 -44,1 -95,-24 -107,-27 -40,-9 -100,13 -162,8l-69 -9c16,15 -16,11 30,15 -1,1 -5,3 -6,3l-13 22c58,-23 46,-5 91,-14l-7 22c55,16 19,3 88,4 -66,57 -40,12 -110,33 67,43 93,28 166,38 43,6 35,11 46,21l55 2c27,18 11,-5 19,23 -27,6 -14,8 -43,5 -58,-6 -5,0 -28,-11l-30 -2c-58,-10 -37,-19 -112,-16l-44 6c-2,-2 -5,-5 -6,-7 -2,-1 -5,-4 -7,-6l-12 -11c-15,-10 -18,-9 -35,-15 -50,-24 -25,10 -32,17l21 11c2,1 19,6 21,7 29,12 -2,-27 9,10l150 14c-28,22 -2,18 -55,17l0 15c19,0 35,0 54,3 1,0 24,4 26,5 16,6 14,8 22,14l48 6 23 3 20 11 32 -2c77,-11 54,9 56,-40 37,11 10,-2 28,39l64 -8c0,-107 -5,-34 31,-63l0 116c-2,-4 -14,0 7,-33l9 -12c20,-26 9,16 16,-18l5 -344c0,-1 1,-4 1,-6l0 -16c-1,-42 -16,-4 5,-67 -34,33 -27,45 -37,117 -55,-39 1,-23 -33,-20 -42,3 -34,5 -65,-12 2,-48 -2,-44 18,-86 -52,2 -23,5 -32,-14 -48,-10 -37,13 -75,-10 28,-20 -42,5 17,-6 29,-5 7,3 22,-1 74,-20 22,-6 47,-38 -27,-13 -7,-17 -56,-10l-5 14c-17,14 7,5 -34,18 -7,3 -20,3 -25,4z"/>
    <path class="fil14" d="M1596 6697c1,2 3,4 3,7l24 46c40,30 -1,9 13,2 -5,42 -47,-2 -10,84l17 -11c50,-43 4,-29 41,-44 26,49 -1,67 -2,69 3,1 7,0 8,4 7,20 -2,-7 37,19 4,26 9,54 14,83 13,70 22,10 26,75l5 30c15,-29 -1,-55 24,-9 1,2 -1,38 11,18 1,-2 4,7 6,10 -6,-67 14,-66 18,-72 1,-2 3,-4 4,-6 15,-30 1,-67 -2,-107l-28 -570 -1 -7c-24,20 -12,3 -21,34 -2,5 -2,24 -2,27 0,19 2,44 2,65l-10 -140c-15,17 -13,-19 -23,45l1 250c-10,40 6,13 -23,40 -5,-40 0,-156 -14,-191l-7 -11c-32,-68 13,-84 -20,-167 -7,-17 -3,4 -10,-22 -4,-19 -2,-40 -2,-59l-32 0c-2,36 3,27 -12,50 -17,-13 -19,-20 -31,-30 -60,-51 -48,23 -110,-70l-23 13c-30,5 -15,-6 -37,-24 -51,13 -31,28 -72,15l-59 -36c-1,-4 -4,-4 -7,-7l-50 11c3,24 5,51 22,49l17 -4c12,-6 11,-9 16,-17 11,24 12,20 48,41 12,7 15,9 26,15l33 20c10,-32 -8,-32 26,-43 42,107 -20,42 102,135 33,25 -1,-1 26,15 31,18 30,6 35,54 6,58 -8,135 -2,173 8,49 17,93 5,148z"/>
    <path class="fil15" d="M2329 5666l-3 41 25 56c-28,11 -28,-6 -28,77 10,-8 10,-44 -36,-63 0,9 0,77 0,78 -9,26 9,6 -37,27l-19 7c60,21 11,14 24,43 12,24 35,38 35,38 1,-2 6,4 8,7 -16,41 -19,34 -53,60 13,-29 17,-12 32,-49 -2,-3 -5,-6 -7,-8 -1,-2 -4,-5 -6,-7l-19 -38c-26,22 -13,4 -27,34l-4 22c-1,7 0,12 -4,19 -1,2 -4,5 -4,7l-22 -6c-10,-35 5,-55 15,-87 -35,15 -22,-17 -39,43 47,-38 -20,-42 -21,-43 43,91 11,87 -10,106 0,-66 -9,-48 21,-106 -5,2 -10,5 -14,7l-18 15c-12,-53 -20,-33 -4,-85 -14,-21 31,-27 -24,-16 -49,12 -12,84 -16,133 -6,72 -54,6 -28,197 10,73 14,-23 9,54l186 -3 119 -14c-2,-104 22,-109 54,-117 23,29 24,-42 17,52 -7,95 15,-67 -15,34 -9,31 24,56 41,69l5 -220 1 -371c-27,-22 6,-11 -41,-2 -2,0 -5,2 -7,2l-86 7z"/>
    <path class="fil16" d="M875 6132c5,20 -18,5 12,19 23,-4 18,-10 22,9 52,-4 -21,-23 37,-5 7,2 30,18 39,22l37 37c37,14 -18,12 7,-1l27 -41c0,0 -23,1 -23,-48l5 -28c7,-49 -22,-10 -19,-182l9 -469c-8,-51 -9,-97 -8,-163 0,-85 -13,-240 16,-286 16,-25 2,8 16,-20l-14 7c-3,1 -15,0 -16,0 26,-89 35,-9 42,-102l30 -13 10 -3c-11,-25 -12,-23 -42,-5 -24,14 -21,28 -91,81 -31,22 -31,6 -38,56 1,-2 34,4 -5,-5 -25,-6 -5,-3 -36,-5 25,156 12,385 12,558 0,93 9,185 12,274 3,92 -13,186 -7,285 -39,16 -20,-14 -34,28z"/>
    <path class="fil17" d="M956 7400c-29,-12 -13,-7 -30,-32l152 10c-25,44 -112,27 -122,22zm-151 -199l0 22 31 -3c-6,65 -3,8 -14,46 -5,21 -5,43 -7,65l11 0c78,42 74,87 77,81 1,-2 3,7 4,10 59,38 736,6 872,7 151,1 300,4 451,8 98,2 348,15 429,-1 0,-28 -8,-22 17,-22 -1,0 -10,0 -16,-6 -22,-25 -23,24 9,-28 48,2 39,-4 78,-4 -6,-22 -5,1 2,-31 -122,10 -99,17 -212,-5 -40,-8 -49,7 -91,9 -27,1 -64,-4 -93,-5l51 -41c-84,8 -140,12 -230,12 50,14 17,-1 44,5 4,1 7,1 10,2 104,29 7,57 7,57l-824 0c-47,5 -36,12 -116,0 17,11 1,8 11,-19l-87 2c-21,-50 -18,-19 -36,-68l-8 4c-10,44 -2,16 -2,38 0,13 2,13 0,26l-48 3 -4 -27 -17 10c-41,21 -202,32 -211,-37l-20 -5c-17,-4 4,24 -15,-6 -12,-18 2,-38 27,-20l-1 -31c1,-25 8,-68 3,-90 -7,-39 3,4 -8,-21 -1,-1 -3,-4 -3,-5 -1,-1 -3,-4 -3,-5 0,0 -5,-9 -3,-19l-17 -5c-14,-2 -4,34 -13,0 0,-1 -3,1 -4,1l-10 -249c-34,53 9,296 -21,345z"/>
    <path class="fil18" d="M1511 4890c12,15 9,5 15,32l-2 93c-34,-26 -21,-15 -38,-52 -4,52 -14,21 -59,22l-50 99c-36,-19 -45,-59 -72,-13 43,22 39,18 92,11 -3,2 -6,5 -9,8l-16 16c-38,40 -7,25 -37,44 -4,-27 9,-38 -33,-56l0 71c-1,-2 -1,6 -2,9 -51,14 -22,20 -58,-18 -42,-45 33,-17 -21,-18l22 42 67 10c-13,38 11,7 -33,28 41,20 5,-1 30,22 -2,2 -5,6 -6,7l-23 17c56,-2 6,-4 32,15 11,21 22,29 67,34l12 58c9,38 4,35 13,75 -33,-30 -21,-5 -78,4 -27,-66 -89,-23 -180,-48l-5 62c-6,55 -14,-9 2,21l24 -24c37,-34 80,-44 125,-19 61,32 51,98 24,156 92,-28 49,-114 36,-157 3,2 45,0 41,90 -1,37 -8,60 -28,81 38,-21 -42,9 25,-4 3,-1 6,-1 10,-2l21 -5c3,-1 7,-1 11,-3 1,-67 14,-26 0,-148 51,123 22,47 30,137 2,21 4,10 7,43 4,50 -15,69 -15,69 -7,18 -7,8 -10,37 15,52 9,57 37,87 3,-40 -4,-58 -2,-89l25 -58c2,-2 5,-5 6,-7 13,-16 -2,-129 3,-179l4 403 39 -32c-9,-161 6,-332 2,-495 -5,-146 -18,-343 -11,-485l-28 -8 -6 17z"/>
    <path class="fil19" d="M1759 4548c4,56 24,87 -28,96l-19 3c-22,7 -5,10 -43,20 0,103 2,64 -29,108 -22,32 -13,61 -20,95 -43,-11 7,1 -50,-27 -17,-9 -8,-7 -34,-14l26 84c4,40 3,55 -1,96 52,5 12,-4 40,19 3,2 19,20 25,26l27 26c1,2 60,21 15,122 -7,16 -26,16 -5,17 2,88 21,10 18,105 -4,113 4,3 24,105 -66,-14 -59,-30 -71,-18 -25,25 12,-23 7,57 -2,34 -4,-7 -9,41 2,2 4,5 6,6 1,1 5,5 7,6l28 3c-10,48 -15,41 -17,48 -1,2 0,6 -1,8 -9,24 -77,26 -103,28l6 169 41 0 0 -84 47 -40c25,-57 -31,29 24,-17l12 -22c30,34 22,-17 6,21l-22 23c66,-14 44,-45 60,24 0,-7 2,-55 0,-61l-31 -44c31,-1 35,-5 63,-11 -11,-43 7,-19 -21,-42 16,14 -21,13 11,5 32,-7 0,-4 0,-5l0 192c3,58 -7,199 19,249 0,-96 -4,-186 -7,-283l0 -196c-6,-43 16,10 -18,-36 -2,-2 -5,-6 -7,-8 -2,-2 -5,-5 -7,-8 60,-18 22,-83 25,-216 4,-170 -1,-319 18,-495 9,-77 41,-145 34,-226 -22,21 -18,-28 -19,26 -19,10 15,8 -12,-9l-15 34z"/>
    <path class="fil20" d="M2404 4026c11,24 -3,33 10,14 -67,-2 -81,-3 -126,19 14,69 25,-6 26,45l-83 1 5 58 5 25c36,8 62,22 87,42l2 138c15,16 29,-36 14,93 35,-18 30,-29 53,-45l21 -9c-18,-34 -28,-116 -33,-166 41,30 8,-9 29,31 13,26 -2,59 11,92 13,36 -13,0 18,29l6 -141c11,23 5,46 5,81l21 -3c2,-118 14,-94 40,-99 5,-23 -2,-7 13,-25l75 -60c17,47 14,26 23,93 18,69 10,60 20,138 17,132 26,279 8,400 -1,1 -1,5 -1,6 0,2 0,6 0,7 -2,23 3,10 -3,35l-2 19c20,22 46,43 67,57 18,-25 5,-120 5,-167 1,-64 -2,-126 -1,-190 2,-128 5,-253 9,-381 -23,21 -5,-30 -24,44 -9,35 3,49 -9,90l-16 33c-3,-26 2,-47 -4,-80 -6,-28 -19,-47 -23,-76 -8,-60 31,-70 61,-115l-49 15c-2,1 -5,2 -6,3l-52 26c-20,-19 -38,-17 -76,-24l-15 -2c-73,-19 -8,-24 -3,-48l-2 -22 0 -36c0,-54 6,-41 -10,-80l-13 -21c2,130 37,153 -83,156z"/>
    <path class="fil21" d="M1283 4520c-45,3 -42,9 -68,37l-18 -45c0,9 2,37 1,42 -3,41 -6,45 -22,64 -22,-31 -15,-59 -28,-79 -1,46 11,173 -2,207 -12,34 -79,91 -119,109l-9 -10c-8,19 12,17 -14,15l-33 37c-18,24 1,20 -43,26 -15,22 4,26 -44,49 -59,6 -47,41 -46,109l12 1002c4,40 0,33 25,49 14,-42 -5,-12 34,-28 -6,-99 10,-193 7,-285 -3,-89 -12,-181 -12,-274 0,-173 13,-402 -12,-558 31,2 11,-1 36,5 39,9 6,3 5,5 7,-50 7,-34 38,-56 70,-53 67,-67 91,-81 30,-18 31,-20 42,5l82 -5c-69,-2 -31,-20 -32,-28 -2,-47 -2,-9 12,-30l60 -109c2,-3 9,-11 11,-13 23,-25 -18,2 24,-20l16 14c2,1 5,4 7,6l24 33 5 -16c0,-44 6,-40 -10,-76 -16,-45 -11,-49 -11,-98 35,-13 69,-1 74,-21 14,24 21,-10 -34,0 -2,0 -5,1 -6,2l-43 16z"/>
    <path class="fil22" d="M1308 4713c-18,89 -6,54 -1,126 -31,5 -44,24 -93,42l62 19c-69,18 -21,12 -20,25 0,1 2,4 2,6l9 47c-47,13 -32,-7 -63,10 -50,28 23,33 -54,20 7,43 13,23 -6,52 0,0 -33,-60 -42,149 -3,78 36,83 10,168 -55,178 -16,75 -39,206l-3 15 4 57c24,29 5,15 14,29 15,21 -4,12 24,26 26,-11 21,-3 31,-25 -5,-19 3,-7 -12,-31 -23,-36 -4,-1 -20,-23 -13,-18 -16,-23 -14,-51 42,114 155,142 266,32 20,-21 27,-44 28,-81 4,-90 -38,-88 -41,-90 13,43 56,129 -36,157 -121,21 -160,38 -173,-113 -16,-30 -8,34 -2,-21l5 -62c32,-39 79,-40 127,-59 -14,-2 -23,-22 -24,-24 60,-7 20,-3 38,-18 -27,-6 -46,-11 -77,-17l-11 -192 64 5 9 -27c23,-77 -19,-35 31,-58l-78 -12 89 -14c2,0 5,1 7,2l15 7c1,-2 5,4 8,5 -1,0 -13,-24 -14,-27l7 -25c30,10 34,11 58,44 -24,-58 13,-73 -49,-78 51,-20 117,19 167,-24l6 -17 -10 -22c-9,14 33,2 -24,12 -36,7 -7,3 -35,0l-79 -19c13,-76 -1,-18 29,-36l-26 -16c-4,-28 28,22 -48,15 -5,-17 -11,-42 -14,-66 -8,-62 -4,-34 3,-44l-5 16z"/>
    <path class="fil23" d="M2167 5296c41,1 26,12 57,-14l6 57c-35,-6 -32,-11 -70,-3l-1 -47c-1,-2 -1,-6 -2,-9 0,-2 -1,-6 -1,-9l21 9c-2,3 -8,14 -10,16zm36 124c26,-40 26,7 21,-48 48,26 3,-11 21,15l31 -12c-2,-2 -6,-10 -8,-8 -1,2 -5,-6 -7,-9 -1,-2 -4,-5 -5,-8 -13,-33 2,-12 5,-49 4,-75 -29,-46 -56,-51 26,-50 8,-44 2,-55 -2,-2 -4,-4 -5,-6 -13,-20 -20,-13 -20,-42l55 14c32,0 1,9 29,-6l0 -31c-23,-14 -64,3 -86,-11 27,-22 -8,-2 23,-11 65,-17 70,16 74,-52l32 63c-73,54 -9,62 -2,95l8 104 54 1c-1,-56 -11,-104 -12,-148 0,-17 5,-48 5,-66l-16 -28c7,-39 5,-66 6,-105 2,-97 -3,-82 -33,-106l0 205c-18,-26 -6,-67 -21,-118l-34 27c-24,-54 17,-34 -32,-51l-8 111c13,-23 4,-76 -2,-112l-21 52c2,-94 0,-47 -41,-61 1,30 0,79 3,106 6,48 15,39 26,73 -39,12 -36,-6 -71,-14 31,-22 30,3 47,-42 34,-89 -71,-102 36,-154l-125 -15c-47,69 14,68 -34,86 0,57 -4,48 31,64l24 12c-4,97 -12,80 -17,137 -13,173 16,140 39,187l20 55c4,1 8,0 11,0l53 12z"/>
    <path class="fil9" d="M1790 3964c-21,63 -6,25 -5,67l0 16c0,2 -1,5 -1,6l-5 344c-7,34 4,-8 -16,18l-9 12c-21,33 -9,29 -7,33l0 -116c-36,29 -31,-44 -31,63l-64 8c-18,-41 9,-28 -28,-39 -2,49 21,29 -56,40l-32 2c0,3 2,39 2,42 -2,31 6,14 -10,29l-34 -6c4,-24 -1,-17 14,-30 -11,-19 1,-17 -25,-27l-12 6c-45,4 -56,-7 -112,-2l-27 -26 -50 7c-22,28 -18,-21 3,6 6,9 10,16 11,13 1,-2 5,6 7,9l-6 -3 99 7 47 22 -49 9 -38 -4c44,33 73,21 96,21 31,1 8,-2 36,8 4,1 15,5 17,6 3,1 8,6 10,4 2,-3 7,2 10,3 -31,10 18,22 -39,78 -2,2 -4,4 -6,5l-22 19c-2,2 -4,4 -6,5 -1,1 -4,3 -5,5 -34,32 -27,40 -51,76 -37,-17 6,3 -21,-18 -11,-8 4,-4 -20,-14l-31 58c-4,-61 14,-76 -21,-105 16,36 10,32 10,76 -7,10 -11,-18 -3,44 3,24 9,49 14,66 76,7 44,-43 48,-15l26 16c31,0 24,2 33,-31 52,-5 33,-16 46,16 16,-46 78,-112 81,-204l104 -13c17,-30 18,-22 36,-49 128,36 -93,-39 35,19 26,12 -8,21 26,2l15 -34c27,17 -7,19 12,9 1,-54 -3,-5 19,-26 -8,-61 6,-221 13,-287 6,-56 -1,-63 -9,-129 -10,-84 -10,-69 -1,-148 -35,19 -27,-9 -18,31z"/>
    <path class="fil10" d="M2563 6096c0,92 2,67 21,134 -27,3 -22,-19 -50,21 7,14 18,10 39,77 35,-28 9,-43 18,-80 29,20 17,8 3,17 34,39 -18,15 34,11 19,-9 10,-6 20,-15 1,-1 3,-4 5,-5l10 -11c58,-70 -2,-171 39,-234 0,59 -18,132 7,180l38 -35c3,-4 8,-15 9,-16l12 -16c3,-3 6,-7 8,-10l3 -116c-39,12 -28,15 -28,63 -20,-65 8,0 -50,-31 25,-127 3,-256 9,-390l-10 -390c16,-12 -32,-32 53,-15l0 -51c-9,10 -15,6 -42,-18l15 -9c2,-1 5,-3 7,-4 14,-11 20,4 20,-61 -24,-6 5,5 -23,-6l-30 -15 37 -16c58,-23 -23,24 16,-5l2 -63 -8 -17c-19,-4 -34,11 -35,-1 0,-1 -2,-2 -1,-3l0 979c-41,-32 -13,4 -30,-41 -25,-67 36,-362 -22,-473 -27,66 -3,144 0,209 -86,45 -42,69 -64,149 -11,39 -2,12 -16,35 -37,59 -36,112 -36,205 57,-7 8,5 27,-30 20,-37 -26,-18 25,-30 -10,38 5,31 -21,102 -1,2 -2,6 -3,7l-5 13c-1,-2 -2,4 -3,5z"/>
    <path class="fil24" d="M2113 4373c-40,53 -43,22 -21,82 -23,-9 -9,-13 -25,-6 3,48 9,21 22,64 -11,14 -14,22 -24,42 -66,133 -122,5 -122,337 1,132 -25,224 -9,347 3,20 12,44 11,54 0,19 1,11 -6,20l-23 16c-2,2 -7,3 -10,5l16 14c52,68 -10,-48 15,22 2,8 1,49 1,60l21 -3c0,-38 3,-385 17,-390l50 -7c-25,-12 -40,-18 -54,-27l0 -277c115,-10 -18,-95 220,-55l-52 -27c-3,-2 -16,-4 -19,-5l19 -4c47,-1 45,25 62,-7 2,-3 6,-59 5,-84 -85,-7 -50,-3 -110,-32 19,-19 4,-31 63,-14 0,0 4,3 24,8 16,4 12,-1 40,7l0 41c1,21 4,41 8,64 24,-32 18,-22 79,-16 -16,-5 -17,-1 -41,6 -5,1 -21,6 -26,8l-14 8c-2,1 -5,3 -7,4 19,41 29,40 86,43 -38,-46 -28,8 -30,21 70,13 48,1 81,63 25,46 26,44 23,100 36,-25 9,-6 31,-52l5 46c2,-3 4,-12 4,-10 1,0 10,-10 8,-42l-48 -125c-24,-55 6,-54 -33,-96l-41 -83 -33 7c-47,1 -147,42 -170,-74 26,-12 64,-31 79,-10 17,23 -53,-7 18,60 61,-30 31,-69 62,-122 -17,17 -4,3 -17,22 -1,1 -12,22 -14,25l-42 -23c-15,-1 -20,5 -32,12 -1,-4 0,-15 -1,-17 -11,-29 16,8 -14,-23 -13,18 -4,15 -32,23z"/>
    <path class="fil25" d="M2063 4242c46,8 -20,-9 23,5 3,1 8,8 10,5 2,-3 5,5 8,8 -7,99 -27,-1 -32,77 -88,-3 -40,-11 -87,-29 -32,-12 -59,-2 -92,-12l-29 111c40,1 24,24 27,-29 1,7 5,35 4,39 -4,22 -4,11 -9,20 -30,47 27,-6 -11,8 -5,-42 12,-94 -20,-122 -1,80 -24,187 0,259 8,44 -3,35 2,89l18 108c-2,-25 -11,-9 -6,-48l5 -72c0,0 7,-6 11,-27 2,2 5,3 6,7l27 32c0,0 2,2 2,3l0 -77c3,-2 8,-8 10,-5l25 -14c25,-15 3,3 26,-23 114,-129 35,-169 132,-182 28,-8 19,-5 32,-23 30,31 3,-6 14,23 1,2 0,13 1,17 12,-7 17,-13 32,-12l42 23c2,-3 13,-24 14,-25 13,-19 0,-5 17,-22l-9 -42 -53 -7 -46 -63c-6,-17 -3,-3 -5,-31l124 9 3 43c9,23 8,43 20,70 13,26 20,19 27,45l4 -10 -2 -138c-25,-20 -51,-34 -87,-42l-5 -25c-43,-1 -82,4 -110,19 -4,2 -28,22 -35,30 -19,21 -4,13 -28,30z"/>
    <path class="fil26" d="M991 6366c16,-26 11,-39 11,-78 51,20 66,45 90,78 54,73 24,83 20,264l-11 152c-1,2 -2,5 -4,7l1 106c1,39 1,29 -8,58 0,1 -7,20 -9,25 -7,23 -1,-2 -7,25 -74,6 -11,20 -77,39l1 -671c-36,34 1,-4 -22,38l-12 -149c60,34 2,-10 27,106zm-82 -206c76,255 -13,642 8,932 25,-29 34,-417 33,-462 0,-34 -5,-90 7,-120 11,-28 4,-15 21,-33 0,101 3,201 3,301l2 222c1,23 3,45 -9,62l20 12c28,-19 58,-41 80,-71 39,-12 62,-38 89,-67l6 -164 5 -131c5,-144 32,-201 -37,-268 -78,-77 -62,-122 -139,-135l-46 -8c39,-60 16,21 33,-53 -9,-4 -32,-20 -39,-22 -58,-18 15,1 -37,5z"/>
    <path class="fil27" d="M1790 6030l14 288 1 7 36 0 2 -1058 -15 -270c-2,-88 -7,-176 -1,-264 -42,18 -37,1 -40,52 -17,277 -8,270 -8,560l11 685z"/>
    <path class="fil28" d="M2628 6276c-11,21 -24,50 -39,74 -18,28 -22,29 -48,38l-20 5c60,11 32,17 42,155 15,-16 20,-11 18,-42 -4,-70 -50,-12 17,-145l36 -7c55,142 1,311 52,565 13,63 -18,107 74,139l-17 -828c-13,15 -19,-19 -24,63 -2,41 3,19 -12,59 -39,-16 -8,7 -27,-19l-11 -71c30,-9 47,-29 67,-48l3 17c26,-25 14,-37 8,-75l-38 35c-25,-48 -7,-121 -7,-180 -41,63 19,164 -39,234l-10 11c-2,1 -4,4 -5,5 -10,9 -1,6 -20,15z"/>
    <path class="fil29" d="M2462 6030c20,63 -11,135 -3,199l9 41c-3,101 14,2 16,88l-70 3c-16,49 -27,63 -80,73 35,19 13,-4 14,34 2,79 -13,65 -36,69 -24,4 2,-19 -31,-1 57,40 2,67 28,101l39 19c1,1 4,4 6,6 -50,31 -24,-22 -106,13 -6,10 -5,11 10,15 -59,0 -6,-2 -29,14l37 -4 72 3 24 -14c28,-10 18,-11 12,21l18 -8c0,-43 2,-35 -15,-72 4,-1 10,-1 11,-2 1,0 4,-2 5,-2 16,-15 11,-27 21,-51l64 0 20 -49c17,39 22,48 20,89l3 -222 20 -5c26,-9 30,-10 48,-38 15,-24 28,-53 39,-74 -52,4 0,28 -34,-11 14,-9 26,3 -3,-17 -9,37 17,52 -18,80 -21,-67 -32,-63 -39,-77 28,-40 23,-18 50,-21 -19,-67 -21,-42 -21,-134 -87,3 -43,3 -89,31 -14,-55 -6,-173 -11,-245 -6,-80 13,-90 0,-223l-1 371z"/>
    <path class="fil26" d="M1808 3933c-9,79 -9,64 1,148 8,66 15,73 9,129 -7,66 -21,226 -13,287 7,81 -25,149 -34,226 -19,176 -14,325 -18,495 -3,133 35,198 -25,216 2,3 5,6 7,8 2,2 5,6 7,8 34,46 12,-7 18,36l0 196c3,97 7,187 7,283 21,3 4,-11 15,33 1,4 2,7 3,10l5 22 -11 -685c0,-290 -9,-283 8,-560 3,-51 -2,-34 40,-52 -6,88 -1,176 1,264l15 270c10,-119 -12,-556 2,-649 1,-4 1,-7 2,-10l8 -26c-24,-72 -1,-179 0,-259l-1 -68c-1,-42 -1,-70 2,-111 5,-74 -11,-205 -16,-274 -16,-12 -10,-6 -34,-14l2 77z"/>
    <path class="fil25" d="M1192 6180l37 -2 0 63c36,13 103,12 157,19 -2,2 -6,2 -7,5 -7,17 -60,4 -76,28 37,23 139,19 183,51l46 37c28,30 25,86 25,134 -1,84 25,66 10,95 -26,50 2,-1 -24,27 -7,-51 6,-14 -25,-32 -3,10 -5,-1 -3,25 3,34 -2,1 6,23l25 47c3,-2 37,26 16,-53l28 45c0,-2 3,4 6,5 12,-55 3,-99 -5,-148 -6,-38 8,-115 2,-173 -5,-48 -4,-36 -35,-54 -27,-16 7,10 -26,-15 -122,-93 -60,-28 -102,-135 -34,11 -16,11 -26,43l-33 -20c-11,-6 -14,-8 -26,-15 -36,-21 -37,-17 -48,-41 -5,8 -4,11 -16,17l-17 4c-17,2 -19,-25 -22,-49 -42,-59 -18,-37 -70,-76 -48,-36 0,9 -47,-77l-3 -23c1,-2 2,-5 2,-7l6 -25c13,-83 9,-150 13,-218 -10,22 -5,14 -31,25 -28,-14 -9,-5 -24,-26 -9,-14 10,0 -14,-29l33 408 27 19c26,24 0,44 23,76 11,-37 3,-36 23,-55l12 77z"/>
    <path class="fil30" d="M1114 7104l5 85 183 7 9 7c11,-8 5,-8 24,-13 0,-1 31,-6 31,-6 91,-10 125,40 198,-4l2 -33 -1 -113c-75,-19 -271,-8 -357,-6l-93 17 -1 59z"/>
    <path class="fil31" d="M2747 6156c6,38 18,50 -8,75l4 -1 17 828c-92,-32 -61,-76 -74,-139 -51,-254 3,-423 -52,-565 -25,69 -35,7 -37,76 -1,25 5,65 5,95l15 369c7,59 7,28 25,65l15 55c0,-2 2,6 3,9 1,1 3,2 4,5l21 18c17,13 20,12 32,21 39,25 33,33 82,44l-23 -997c-2,3 -5,7 -8,10l-12 16c-1,1 -6,12 -9,16z"/>
    <path class="fil32" d="M1898 7010l-6 -40 132 -12c2,-1 4,-2 6,-3 2,-1 5,-2 7,-3 31,-9 -5,-2 22,-5 1,0 40,0 47,0l-34 27c-2,3 -9,9 -11,10 -24,21 -1,8 -11,9 36,-5 62,-3 98,-5l18 -2c10,0 2,-3 26,1 3,0 6,0 8,1l34 11c-10,0 -55,-2 -64,0l-52 19 344 -2c-6,-32 -9,-15 -32,-43l-21 -23c-1,-3 -3,-3 -5,-3l-19 2c-6,6 -6,15 -25,20 -32,8 -26,-2 -36,-7 -4,-3 -21,-12 -26,-15 -53,5 -36,21 -98,14 -16,-15 -5,19 -18,-20l22 -9 126 -6 32 -12c3,-31 -7,-6 20,-46 -1,0 -37,-5 -38,-6 -32,-8 -28,-13 -33,-16l-13 4 -115 -14c5,-31 -2,-10 25,-46 -25,5 -56,17 -50,-12 -23,-27 34,-23 -27,-23l-65 -7 -10 139 -141 -2c-38,-19 -1,-2 -20,-30l3 155z"/>
    <path class="fil33" d="M1855 3799c95,0 54,-7 81,46 15,28 28,38 57,57 -33,-52 -48,-6 -52,-72l71 -8c18,22 5,-19 21,38 41,-12 37,-27 87,35l14 -4 58 -10c31,-41 -26,-25 38,-37l-17 2 -53 2c8,-13 20,-29 24,-36l6 -13c1,0 1,-2 2,-4 67,-2 57,26 127,22 54,-3 90,-11 139,11 -19,15 27,7 -32,11 -27,3 -14,-6 -54,3l-38 8c62,-18 20,13 4,26l66 1c55,-3 37,-33 89,-20l1 -24c-53,3 -16,5 -28,-16 11,-8 -14,-29 22,4l55 -17 30 -11c3,-1 6,-2 9,-3 8,-2 19,-1 32,-5 -65,-33 -23,19 -51,-42 85,-2 168,-20 173,26l-72 12 130 36c2,-3 5,-12 6,-10 0,2 6,-10 8,-18 4,-10 3,-6 5,-23l-18 -44 -388 0 -329 30c-18,0 -23,-7 -55,-5 -10,19 21,-18 2,16 -19,32 8,-5 -31,17 67,15 64,-8 109,13l-32 45c-3,2 -6,3 -9,4 -41,17 28,3 -39,7 22,-62 -26,-25 53,-49l-221 -1z"/>
    <path class="fil34" d="M2538 7215l19 1 3 31c-18,13 36,25 -37,5 17,4 21,-9 29,20l-4 18 -7 -3c-18,19 -1,6 -30,13 -18,4 -26,3 -37,3 -24,0 -47,1 -70,0l-51 41c29,1 66,6 93,5 42,-2 51,-17 91,-9 113,22 90,15 212,5 70,-16 10,-21 58,-60l-6 -62 0 -71c-30,31 1,6 -16,45l-26 41c-39,-137 31,-95 -92,-163 -42,-23 -17,-18 -83,-22 -30,69 31,36 -40,52l11 8c1,1 4,4 5,5 11,16 2,-2 7,13 7,19 4,14 1,37 -36,23 34,-13 -16,4 -29,9 4,-9 -15,6l1 37z"/>
    <path class="fil8" d="M1558 5777l3 274c-1,50 2,51 51,55 5,-82 18,16 27,-142 39,21 9,5 24,24 11,13 -8,4 21,28 36,-30 5,-41 57,-49 1,0 4,0 5,0l-9 -118c12,-37 23,-98 11,-133l0 -192c0,1 32,-2 0,5 -32,8 5,9 -11,-5 28,23 10,-1 21,42 -28,6 -32,10 -63,11l31 44c2,6 0,54 0,61 -16,-69 6,-38 -60,-24l22 -23c16,-38 24,13 -6,-21l-12 22c-55,46 1,-40 -24,17l-47 40 0 84 -41 0z"/>
    <path class="fil13" d="M1104 4865l-10 3c-7,10 -4,17 -12,24 59,-2 56,-7 87,25l-82 26c-1,2 -2,5 -2,6 -35,86 -20,282 -25,388 -1,22 -2,0 1,21 29,151 -16,73 -11,188 4,-12 6,-39 25,-56 -3,59 -26,53 -5,108l3 -15c23,-131 -16,-28 39,-206 26,-85 -13,-90 -10,-168 9,-209 42,-149 42,-149 19,-29 13,-9 6,-52 77,13 4,8 54,-20 31,-17 16,3 63,-10l-9 -47c0,-2 -2,-5 -2,-6 -1,-13 -49,-7 20,-25l-62 -19c49,-18 62,-37 93,-42 -5,-72 -17,-37 1,-126l-24 -33c-2,-2 -5,-5 -7,-6l-16 -14c-42,22 -1,-5 -24,20 -2,2 -9,10 -11,13l-60 109c-14,21 -14,-17 -12,30 1,8 -37,26 32,28l-82 5z"/>
    <path class="fil35" d="M1552 5608c26,-2 94,-4 103,-28 1,-2 0,-6 1,-8 2,-7 7,0 17,-48l-28 -3c-2,-1 -6,-5 -7,-6 -2,-1 -4,-4 -6,-6 5,-48 7,-7 9,-41 5,-80 -32,-32 -7,-57 12,-12 5,4 71,18 -20,-102 -28,8 -24,-105 3,-95 -16,-17 -18,-105 -21,-1 -2,-1 5,-17 45,-101 -14,-120 -15,-122l-27 -26c-6,-6 -22,-24 -25,-26 -28,-23 12,-14 -40,-19 -22,180 0,413 -9,599z"/>
    <path class="fil13" d="M2779 5998l-5 -1011 -19 0 -2 63c-39,29 42,-18 -16,5l-37 16 30 15c28,11 -1,0 23,6 0,65 -6,50 -20,61 -2,1 -5,3 -7,4l-15 9c27,24 33,28 42,18l0 51c-85,-17 -37,3 -53,15l10 390c-6,134 16,263 -9,390 58,31 30,-34 50,31 0,-48 -11,-51 28,-63z"/>
    <path class="fil36" d="M1853 6437c26,21 16,16 22,56l26 -58 0 85 69 0 9 -116c24,13 42,21 54,51l24 76c12,28 8,43 8,75 108,8 81,18 95,-18 56,14 8,-2 33,24 50,4 30,20 48,-28l-6 19c13,-10 13,2 9,-18l-27 -39c1,-3 4,-6 5,-8l21 -46 74 0c-11,-26 -10,-16 -72,-18l-15 -147 1 -56 -1 117 -3 53c-39,-18 -20,-32 -53,0l-3 -61c-29,70 -42,42 -54,83l-18 57c0,-124 2,-51 -51,-96 -41,-34 7,-68 -76,-73l0 -82 -68 1c0,36 3,129 -29,142 -7,-108 -17,-394 -1,-498l-8 20c-16,54 -6,72 -3,117l-9 263c-5,82 21,64 -1,123z"/>
    <path class="fil37" d="M1482 3813l42 -6 115 -2c35,-10 60,-6 98,-9 90,-6 14,-17 88,-23 -12,23 -22,50 -19,83 24,8 18,2 34,14 5,69 21,200 16,274 -3,41 -3,69 -2,111l11 -101c5,-48 9,-130 0,-178l-10 -177 221 1c-79,24 -31,-13 -53,49 67,-4 -2,10 39,-7 3,-1 6,-2 9,-4l32 -45c-45,-21 -42,2 -109,-13 39,-22 12,15 31,-17 19,-34 -12,3 -2,-16 32,-2 37,5 55,5l329 -30 -1185 0 359 38c-34,22 5,2 -27,11 -35,9 -49,17 -90,8 0,-1 -26,-9 -27,-9 10,19 19,32 45,43z"/>
    <path class="fil38" d="M1518 6605c31,18 18,-19 25,32 26,-28 -2,23 24,-27 15,-29 -11,-11 -10,-95 0,-48 3,-104 -25,-134l-46 -37c-44,-32 -146,-28 -183,-51 16,-24 69,-11 76,-28 1,-3 5,-3 7,-5 -54,-7 -121,-6 -157,-19l0 -63 -37 2c4,89 -42,184 16,250 18,-11 86,-4 110,1 106,20 146,5 200,17l0 157z"/>
    <path class="fil30" d="M2404 3877c-2,1 -5,3 -7,4 -2,1 -5,3 -7,4l-48 17c-25,8 -34,10 -65,11l-143 -22 -14 4 -84 22c-15,130 7,111 124,110 77,-1 157,2 233,-1l11 0c120,-3 85,-26 83,-156l6 -13c-52,-13 -34,17 -89,20z"/>
    <path class="fil39" d="M1363 5612c-111,110 -224,82 -266,-32 -2,28 1,33 14,51 16,22 -3,-13 20,23 15,24 7,12 12,31 20,17 18,35 20,75 -7,-29 -4,-12 4,-33l9 -17c18,11 24,0 68,40 39,36 41,38 92,46 43,17 34,23 30,65 -47,23 -22,-10 -46,29 -30,-7 -23,9 -31,-13 -19,0 -14,-24 -17,18 -2,29 -3,14 19,30 10,6 55,25 73,27 46,0 15,-18 44,63 1,2 2,6 4,9l7 -231c-13,28 8,96 16,129l5 18c16,-41 8,-153 2,-204 3,-29 3,-19 10,-37 0,0 19,-19 15,-69 -3,-33 -5,-22 -7,-43 -8,-90 21,-14 -30,-137 14,122 1,81 0,148 -4,2 -8,2 -11,3l-21 5c-4,1 -7,1 -10,2 -67,13 13,-17 -25,4z"/>
    <path class="fil40" d="M805 3763l0 204 6 -2c36,-19 10,10 28,-55 2,2 4,3 5,6l29 27c-20,-69 -39,-138 28,-148l125 -5c51,16 34,11 64,48l0 -29c13,-19 -11,-32 55,-16 39,9 37,-7 29,25l26 3 42 -13 113 -2 21 -1 12 -15c60,8 -6,32 94,23 -26,-11 -35,-24 -45,-43 1,0 27,8 27,9 41,9 55,1 90,-8 32,-9 -7,11 27,-11l-359 -38 -385 0 -32 41z"/>
    <path class="fil41" d="M2241 6226c24,-14 128,4 166,4 -58,38 -88,30 -173,32 -54,0 -132,-3 -172,2 98,-2 152,-2 249,6 -6,29 -13,47 -15,85 -40,4 -37,-1 -66,-28l15 147c62,2 61,-8 72,18l-74 0 -21 46c-1,2 -4,5 -5,8l27 39c4,20 4,8 -9,18 0,7 -1,17 1,22 0,1 1,4 2,6l13 19 58 -13c-26,-34 29,-61 -28,-101 33,-18 7,5 31,1 23,-4 38,10 36,-69 -1,-38 21,-15 -14,-34 53,-10 64,-24 80,-73l70 -3c-2,-86 -19,13 -16,-88l-9 -41c-8,-64 23,-136 3,-199l-5 220c-17,-13 -50,-38 -41,-69 30,-101 8,61 15,-34 7,-94 6,-23 -17,-52 -32,8 -56,13 -54,117l-119 14z"/>
    <path class="fil10" d="M1927 6691l96 -8 0 105c-60,0 -46,5 -96,-21l0 -76zm266 -79c1,35 -15,35 -54,55 -80,-30 -29,-7 -79,-42 -30,-21 -44,-19 -76,-1 -38,21 -17,17 -85,17l-23 140c-15,48 -4,122 -2,176 1,30 2,56 6,79 4,32 9,38 7,73l-3 75 21 -66 -7 -108 -3 -155c19,28 -18,11 20,30l141 2 10 -139 65 7c61,0 4,-4 27,23l34 10 -22 -41c0,-1 -1,-1 -2,-1 4,4 -24,9 22,4 29,-4 2,1 25,-9 -26,-62 -29,3 -33,-89l69 -2 -13 -19c-1,-2 -2,-5 -2,-6 -2,-5 -1,-15 -1,-22l6 -19c-18,48 2,32 -48,28z"/>
    <path class="fil8" d="M2515 4231c-27,155 -14,360 -16,524l106 76c26,26 1,12 42,23 -16,-18 -8,-6 1,-10l2 -19 -46 -16c19,-53 4,-1 24,-37l-33 -28c20,-49 -26,45 20,-21 29,-41 9,-52 17,-123 8,-79 9,-43 -24,-80l-22 -26c15,114 -5,85 -22,100 -19,-72 -23,-200 -11,-282 31,-49 -36,32 12,-12l61 -61c-9,-67 -6,-46 -23,-93l-75 60c-15,18 -8,2 -13,25z"/>
    <path class="fil16" d="M1169 6772l-6 164c-27,29 -50,55 -89,67 -22,30 -52,52 -80,71 57,15 -7,-20 82,19 20,9 -3,3 38,11l1 -59 93 -17c43,-31 197,-19 276,-19 36,0 48,-6 65,12l-154 -21c-8,-16 19,-3 -7,-5 0,0 -39,4 -52,3 -54,-4 -78,-23 -127,-12l253 -29c8,-22 0,0 1,-22l-1 -25c0,-2 1,-4 0,-5 -34,32 -47,26 -148,16 -19,-7 -27,-8 -44,-16 0,-98 21,-208 -41,-253 -20,37 -21,66 -23,117l-21 -78 -16 81z"/>
    <path class="fil36" d="M1528 7350c-29,4 -210,14 -222,10 -10,27 6,30 -11,19 80,12 69,5 116,0l824 0c0,0 97,-28 -7,-57 -3,-1 -6,-1 -10,-2 -27,-6 6,9 -44,-5 90,0 146,-4 230,-12 23,1 46,0 70,0 11,0 19,1 37,-3 29,-7 12,6 30,-13 -35,-7 -14,8 -34,-11 75,-12 18,-7 41,14l4 -18c-8,-29 -12,-16 -29,-20 73,20 19,8 37,-5 -49,-29 -19,-30 -73,-36l6 28c1,-1 0,5 0,11l-87 15c0,1 -1,4 -2,6 -48,-17 9,-5 -30,-20 -49,-20 -24,13 -7,33l-27 15c-56,-7 -88,5 -137,2 -35,-1 -85,-13 -121,-18 -51,17 -18,22 -49,69 -50,-2 -120,-8 -158,-9 11,-34 6,-45 35,-59l-35 -11c-15,20 -10,30 -36,48l-7 -93c-4,-22 -1,-14 -8,-32 -6,-15 -9,-17 -12,-21 2,56 11,30 -11,56 23,40 29,12 42,126 -48,-7 -40,-11 -86,-10l-229 3z"/>
    <path class="fil42" d="M2392 6702l-18 8c4,8 8,4 7,25 -1,23 -2,9 -9,20l-47 -6c-10,7 -22,2 -31,6 -15,5 -6,1 -21,11l55 18 36 5c-31,29 -13,14 19,29l-30 2c36,19 41,14 50,46l-21 2c-27,40 -17,15 -20,46l7 21 37 0 -2 12c2,0 4,0 5,3l21 23c23,28 26,11 32,43 -27,35 -39,33 -88,43l-2 15 19 -2c52,-2 74,-1 111,-34l-2 71c0,0 25,5 22,-59 -2,-54 4,-40 -34,-50 15,-1 34,-7 39,-8l26 -4c35,0 27,20 83,32 -30,-56 -52,-47 -91,-84l-14 -116 -16 -26c-8,-20 -1,-49 -26,-79 -3,3 -5,7 -6,10l-12 30c0,1 -3,22 -4,25 -9,-13 -19,24 -9,-43 7,-45 40,-13 34,-103 -112,21 -22,65 -67,123 -2,-2 -5,-5 -5,-7 -1,-2 -4,-5 -5,-7 0,-3 -2,-6 -2,-9l12 -51c-28,29 2,11 -33,19z"/>
    <path class="fil32" d="M1865 4154l17 -64 16 103c21,0 46,3 65,-4l12 -8c2,-1 5,-3 7,-4 16,-8 -29,-8 34,-14l0 82c38,11 24,4 42,32l5 -35c24,-17 9,-9 28,-30 7,-8 31,-28 35,-30 28,-15 67,-20 110,-19l-5 -58 83 -1c-1,-51 -12,24 -26,-45 45,-22 59,-21 126,-19 -13,19 1,10 -10,-14l-11 0c-42,10 -99,-6 -147,9 -50,16 5,15 -46,19l-124 18c-1,0 -5,1 -6,1 -2,0 -5,1 -7,1l-51 2c-3,0 -6,0 -9,0l-118 -6c-2,-25 -5,-31 -6,-51 -1,-18 1,-22 0,-43l-14 0c9,48 5,130 0,178z"/>
    <path class="fil43" d="M2521 6393l-3 222 13 205 14 116c39,37 61,28 91,84l24 3c-1,-3 -3,-11 -3,-9l-15 -55c-18,-37 -18,-6 -25,-65l-15 -369c0,-30 -6,-70 -5,-95 2,-69 12,-7 37,-76l-36 7c-67,133 -21,75 -17,145 2,31 -3,26 -18,42 -10,-138 18,-144 -42,-155z"/>
    <path class="fil44" d="M1285 5301c57,3 8,5 25,-22 -26,-19 24,-17 -32,-15l23 -17c1,-1 4,-5 6,-7 -25,-23 11,-2 -30,-22 44,-21 20,10 33,-28l-67 -10 -22 -42c54,1 -21,-27 21,18 36,38 7,32 58,18 1,-3 1,-11 2,-9l0 -71c42,18 29,29 33,56 30,-19 -1,-4 37,-44l16 -16c3,-3 6,-6 9,-8 -53,7 -49,11 -92,-11 27,-46 36,-6 72,13l50 -99c45,-1 55,30 59,-22 17,37 4,26 38,52l2 -93c-6,-27 -3,-17 -15,-32 -50,43 -116,4 -167,24 62,5 25,20 49,78 -24,-33 -28,-34 -58,-44l-7 25c1,3 13,27 14,27 -3,-1 -7,-7 -8,-5l-15 -7c-2,-1 -5,-2 -7,-2l-89 14 78 12c-50,23 -8,-19 -31,58l-9 27 -64 -5 11 192c31,6 50,11 77,17z"/>
    <path class="fil14" d="M928 4923c44,-6 25,-2 43,-26 -3,-26 8,-54 7,-89 0,-42 -7,-57 -9,-96 -4,-67 -3,-142 -5,-211 -4,-133 -9,-264 -9,-399 61,17 68,42 110,68l24 -10 -60 -53c-32,-28 -41,-27 -81,-44 -61,-25 -28,-25 -72,-50 -3,64 17,21 24,88 3,34 -2,80 0,116 13,210 42,503 28,706z"/>
    <path class="fil16" d="M1865 3976l14 0c1,21 -1,25 0,43 1,20 4,26 6,51l118 6c3,0 6,0 9,0l51 -2c2,0 5,-1 7,-1 1,0 5,-1 6,-1l124 -18c51,-4 -4,-3 46,-19 48,-15 105,1 147,-9 -76,3 -156,0 -233,1 -117,1 -139,20 -124,-110l-43 -15c-29,-19 -42,-29 -57,-57 -27,-53 14,-46 -81,-46l10 177z"/>
    <path class="fil45" d="M2543 3804l168 3c0,1 0,3 0,4l9 18c1,1 7,7 13,10l-18 111c-7,-7 -102,-48 -144,-20l-14 -50c-3,4 -6,7 -7,11l-15 48c-10,-11 13,15 -7,-11l-20 -24c-1,33 -7,49 2,67l0 36 2 22 0 -43c3,2 15,9 18,10l36 4c4,0 28,-4 33,-4 2,25 14,64 46,58 44,-9 24,-43 36,-90 28,20 19,18 7,53l44 -17c-6,6 -8,6 -14,17 -8,14 -6,7 -13,30l42 -13c1,-3 2,-8 3,-9 9,-11 5,-7 16,-17l18 -12 7 -173 3 -6 -130 -36 72 -12c-5,-46 -88,-28 -173,-26 28,61 -14,9 51,42 -13,4 -24,3 -32,5 -3,1 -6,2 -9,3l-30 11z"/>
    <path class="fil38" d="M1853 6437c-4,75 0,289 23,344l23 -140c68,0 47,4 85,-17 32,-18 46,-20 76,1 50,35 -1,12 79,42 39,-20 55,-20 54,-55 -25,-26 23,-10 -33,-24 -14,36 13,26 -95,18 0,-32 4,-47 -8,-75l-24 -76c-12,-30 -30,-38 -54,-51l-9 116 -69 0 0 -85 -26 58c-6,-40 4,-35 -22,-56z"/>
    <path class="fil10" d="M2705 4922c-3,-8 6,-1 -12,-23 -18,-22 2,2 -16,-15 -17,-16 -15,-10 -30,-30 -41,-11 -16,3 -42,-23 -4,32 -16,3 0,50 32,8 -6,-16 -22,-2 -17,16 -6,8 -8,26 -13,124 -1,97 29,113 -20,15 -27,27 -34,66 0,2 -1,5 -1,7l-9 171c14,-21 4,7 9,-24 0,-2 1,-41 2,-45 54,30 2,25 66,4 3,50 -15,106 -1,159l32 74c0,2 1,6 3,10l0 -527c3,1 20,6 22,6 1,1 6,2 7,2l5 1z"/>
    <path class="fil46" d="M884 4972c48,-23 29,-27 44,-49 14,-203 -15,-496 -28,-706 -2,-36 3,-82 0,-116 -7,-67 -27,-24 -24,-88l-38 -1c33,92 29,345 36,461 11,166 1,335 10,499z"/>
    <path class="fil47" d="M1004 4860c26,2 6,4 14,-15 -24,-34 -12,-49 -9,-85 3,-43 -6,-139 50,-172 7,10 17,-2 10,71l-1 100c18,-31 10,-18 13,-88l-4 -254c-9,-97 5,-125 -35,-203 -33,-64 -17,-61 -67,-63l0 35c0,1 8,17 9,20 20,39 22,48 15,103 -13,113 -8,266 -12,383 0,13 1,175 17,168z"/>
    <path class="fil48" d="M1442 5736c6,51 14,163 -2,204l-5 -18c-8,-33 -29,-101 -16,-129l-7 231c-2,-3 -3,-7 -4,-9 -29,-81 2,-63 -44,-63 -5,32 7,30 -33,21 -37,-8 -2,-30 -42,-18l-3 62c8,44 7,34 37,46 25,7 -10,9 15,-9 16,-11 -20,5 23,-16 34,-17 16,-3 64,13 2,-35 8,-48 -4,-70l14 88c36,-18 27,21 29,-55 32,14 17,18 48,2 8,57 -10,51 24,66 15,-27 21,-202 18,-221l-39 32 -4 -403c-5,50 10,163 -3,179 -1,2 -4,5 -6,7l-25 58c-2,31 5,49 2,89 -28,-30 -22,-35 -37,-87z"/>
    <path class="fil34" d="M884 7249l1 31c-25,-18 -39,2 -27,20 19,30 -2,2 15,6l20 5c128,21 -24,19 91,39 76,13 41,-36 111,-6l-9 -88c-3,-28 -10,-8 -1,-63l-31 19c11,-39 -23,14 16,-21l-6 -40c-28,-45 1,-19 -23,-36 -18,-12 -44,-7 -64,-2l-72 23 61 32c-46,-27 -10,-15 -71,-19 6,44 14,62 -11,100z"/>
    <path class="fil49" d="M971 4897l33 -37c-16,7 -17,-155 -17,-168 4,-117 -1,-270 12,-383 7,-55 5,-64 -15,-103 -1,-3 -9,-19 -9,-20l0 -35c50,2 34,-1 67,63 40,78 26,106 35,203l4 254c-3,70 5,57 -13,88l-6 48c82,-46 42,-148 40,-199 -4,-120 3,-236 -9,-360 -8,-75 1,-24 -28,-78 -42,-26 -49,-51 -110,-68 0,135 5,266 9,399 2,69 1,144 5,211 2,39 9,54 9,96 1,35 -10,63 -7,89z"/>
    <path class="fil50" d="M2062 6264c40,-5 118,-2 172,-2 85,-2 115,6 173,-32 -38,0 -142,-18 -166,-4l-186 3c5,-77 1,19 -9,-54 -26,-191 22,-125 28,-197 4,-49 -33,-121 16,-133 -23,-39 -20,-11 -29,-71l-78 0c-4,78 7,205 19,258 11,47 -1,98 6,144 8,50 40,39 -12,59 27,15 38,17 66,29z"/>
    <path class="fil47" d="M991 6366l7 5 -1 671c66,-19 3,-33 77,-39 6,-27 0,-2 7,-25 2,-5 9,-24 9,-25 9,-29 9,-19 8,-58 -2,2 -3,6 -4,7 -16,24 -21,36 -45,48 -18,-23 -8,5 -15,-36 -4,-28 7,-12 -4,-85 -3,-20 -30,-405 8,-447 64,7 27,-10 39,34 46,181 -11,224 20,373 2,-2 3,-5 4,-7l11 -152c4,-181 34,-191 -20,-264 -24,-33 -39,-58 -90,-78 0,39 5,52 -11,78z"/>
    <path class="fil51" d="M1813 7080l-1 95c3,4 6,6 12,21 7,18 4,10 8,32 45,-21 26,17 32,-50 1,-14 0,-57 1,-78l22 9c2,-35 -3,-41 -7,-73 -4,-23 -5,-49 -6,-79 -2,-54 -13,-128 2,-176 -23,-55 -27,-269 -23,-344 -4,-5 -2,4 -7,-19 -1,-6 -2,-22 -3,-28 -1,-21 -1,-44 -2,-65l-36 0 28 570c3,40 17,77 2,107 -1,2 -3,4 -4,6 -4,6 -24,5 -18,72z"/>
    <path class="fil52" d="M2650 4825c6,-25 1,-12 3,-35 0,-1 0,-5 0,-7 0,-1 0,-5 1,-6 18,-121 9,-268 -8,-400 -10,-78 -2,-69 -20,-138l-61 61c-48,44 19,-37 -12,12 -12,82 -8,210 11,282 17,-15 37,14 22,-100l22 26c33,37 32,1 24,80 -8,71 12,82 -17,123 -46,66 0,-28 -20,21l33 28c-20,36 -5,-16 -24,37l46 16z"/>
    <path class="fil16" d="M1898 7010l7 108c68,1 11,16 51,40 25,14 35,-19 67,-43 3,5 15,3 -11,21l30 7 2 -57c45,3 23,0 39,13l22 -9 45 4c22,-36 -2,-24 53,-32 -52,14 -30,-7 -57,-14 -29,-9 -50,0 -81,-3 -14,-21 -14,11 -11,-23l64 -4 52 -19c9,-2 54,0 64,0l-34 -11c-2,-1 -5,-1 -8,-1 -24,-4 -16,-1 -26,-1l-18 2c-36,2 -62,0 -98,5 10,-1 -13,12 11,-9 2,-1 9,-7 11,-10l34 -27c-7,0 -46,0 -47,0 -27,3 9,-4 -22,5 -2,1 -5,2 -7,3 -2,1 -4,2 -6,3l-132 12 6 40z"/>
    <path class="fil13" d="M1283 4520l43 -16c1,-1 4,-2 6,-2 55,-10 48,24 34,0 -5,20 -39,8 -74,21 0,49 -5,53 11,98 35,29 17,44 21,105l31 -58c24,10 9,6 20,14 27,21 -16,1 21,18 24,-36 17,-44 51,-76 1,-2 4,-4 5,-5 2,-1 4,-3 6,-5l22 -19c2,-1 4,-3 6,-5 57,-56 8,-68 39,-78 -3,-1 -8,-6 -10,-3 -2,2 -7,-3 -10,-4 -2,-1 -13,-5 -17,-6 -28,-10 -5,-7 -36,-8 -23,0 -52,12 -96,-21l0 -9 -44 0 -51 -4 13 45c1,3 3,6 4,9 2,2 4,6 5,9z"/>
    <path class="fil33" d="M1148 4539c13,20 6,48 28,79 16,-19 19,-23 22,-64 1,-5 -1,-33 -1,-42l18 45c26,-28 23,-34 68,-37 -1,-3 -3,-7 -5,-9 -1,-3 -3,-6 -4,-9l-13 -45 -31 -8c0,0 -38,-10 -42,-12 3,-3 5,-8 9,-10 43,-42 33,-7 58,-45 -38,-2 -38,4 -70,-17 50,-39 27,18 158,-4 53,1 27,5 55,-17l-150 -14c-11,-37 20,2 -9,-10 -2,-1 -19,-6 -21,-7l-21 -11c7,-7 -18,-41 32,-17l-7 -8 -46 -28c10,-19 -33,-15 32,-15 -4,-8 -6,-21 -11,-27l-67 0 18 332z"/>
    <path class="fil16" d="M1029 4107l60 53c50,33 6,40 41,47l67 0c5,6 7,19 11,27l52 24c70,-21 44,24 110,-33 -69,-1 -33,12 -88,-4l7 -22c-45,9 -33,-9 -91,14l13 -22c1,0 5,-2 6,-3 -46,-4 -14,0 -30,-15 2,-2 4,-7 5,-5l62 -28 -24 -4c-10,-6 -33,-22 -41,-27 -33,-25 -14,12 -25,-42 62,8 34,21 97,42 8,-82 -5,16 9,-32 10,-37 2,-10 1,-10 39,5 18,37 52,-1 -62,-33 -107,0 -116,-34 -1,-5 -4,-6 -6,-9l-53 9 -58 -4 -1 -176c-13,16 -6,0 -15,28 -17,53 -7,123 17,169 -72,-8 -33,-10 -45,23 2,-2 13,-9 16,-10l17 -2c37,2 2,-6 24,14 -43,2 -20,-1 -42,11 -3,1 -6,3 -8,4l-24 18z"/>
    <path class="fil53" d="M1174 6641l-5 131 16 -81 21 78c2,-51 3,-80 23,-117 62,45 41,155 41,253 17,8 25,9 44,16 -18,-21 -13,13 -13,-28 -1,-70 47,13 40,-93 -3,-46 -34,-90 -38,-138 35,-9 35,-15 53,-42 -23,-16 -25,-13 -53,-14l-8 -99c-11,11 -5,17 -52,22 -25,-51 -25,-36 -14,-50l-25 19c-16,22 -1,68 -9,101 -1,5 -2,7 -4,11 -1,4 -3,7 -4,10l-13 21z"/>
    <path class="fil54" d="M873 3943l-29 -27c-1,-3 -3,-4 -5,-6 -18,65 8,36 -28,55 7,48 -3,42 27,47l38 1c44,25 11,25 72,50 40,17 49,16 81,44l24 -18c2,-1 5,-3 8,-4 22,-12 -1,-9 42,-11 -22,-20 13,-12 -24,-14l-17 2c-3,1 -14,8 -16,10 12,-33 -27,-31 45,-23 -24,-46 -34,-116 -17,-169 9,-28 2,-12 15,-28 51,7 21,2 33,17 20,-10 2,0 21,-10 1,-1 5,-1 6,-4 1,-2 5,-2 7,-3l-3 -12 -15 -7 -48 5c-30,-37 -13,-32 -64,-48 -1,2 -5,2 -6,6 -6,36 -39,-13 2,42 1,2 4,6 6,8 1,3 5,6 6,9 -35,34 9,40 -65,67l-1 104c-53,-25 -55,-21 -122,-28 34,-32 18,-1 27,-55z"/>
    <path class="fil16" d="M1589 7086c1,4 3,14 4,16l26 32c30,13 99,-10 111,27 0,2 2,5 2,6l1 26c0,1 0,4 0,5l0 33 -92 4c-26,6 -16,3 -31,14l76 -1c44,4 83,-8 107,8 25,17 10,2 20,30l-56 -3 -10 45c-60,13 -49,4 -96,-4 -36,-7 -75,-5 -113,-8 -6,9 -7,22 -10,34l229 -3c46,-1 38,3 86,10 -13,-114 -19,-86 -42,-126 22,-26 13,0 11,-56 -37,-16 -36,-60 -45,-102 -1,0 -44,22 -22,32 -21,-30 4,-25 -50,-29 -63,-4 -43,9 -53,20 -7,-15 -5,4 -3,-19l9 -32c-3,2 -7,4 -9,5 -15,4 -43,10 -47,-14 0,-3 -2,-4 -3,-5l0 55z"/>
    <path class="fil45" d="M2500 7109c-40,-22 -52,-24 -96,-29l-29 25 105 25 21 -4 9 25c-12,28 -9,17 -26,27l-119 -22c-7,30 13,13 -19,23 42,28 71,44 137,21l55 15 -1 -37c19,-15 -14,3 15,-6 50,-17 -20,19 16,-4 3,-23 6,-18 -1,-37 -5,-15 4,3 -7,-13 -1,-1 -4,-4 -5,-5l-11 -8c71,-16 10,17 40,-52 66,4 41,-1 83,22 123,68 53,26 92,163l26 -41c17,-39 -14,-14 16,-45l-2 -41c-49,-11 -43,-19 -82,-44 -12,-9 -15,-8 -32,-21l-21 -18c-1,-3 -3,-4 -4,-5l-24 -3c-56,-12 -48,-32 -83,-32l-26 4c-5,1 -24,7 -39,8 38,10 32,-4 34,50 3,64 -22,59 -22,59z"/>
    <path class="fil55" d="M1767 7031c-4,-65 -13,-5 -26,-75 -5,-29 -10,-57 -14,-83 -39,-26 -30,1 -37,-19 -1,-4 -5,-3 -8,-4 1,-2 28,-20 2,-69 -37,15 9,1 -41,44l-17 11c-37,-86 5,-42 10,-84 -14,7 27,28 -13,-2l-24 -46c0,-3 -2,-5 -3,-7 -17,60 9,63 -28,145 -34,78 -14,47 4,87 10,23 7,0 3,44 60,-7 60,-20 77,37l64 0c25,28 21,-36 21,34 0,-29 -5,-1 30,-13z"/>
    <path class="fil56" d="M876 7099c17,24 -7,10 23,14 21,2 10,0 20,-5l-2 -16c-21,-290 68,-677 -8,-932 -4,-19 1,-13 -22,-9 15,95 16,895 -11,948z"/>
    <path class="fil30" d="M2299 5613c124,1 138,-12 151,-129 -20,-16 -8,-7 -25,-23 -7,-7 -8,-10 -16,-16 -24,-20 -6,-10 -39,-21 -101,-7 -138,58 -116,129 10,29 28,41 45,60z"/>
    <path class="fil57" d="M2147 7220l204 -9c-37,15 -65,4 -101,15 0,0 -34,28 -79,12 -27,-9 -16,-10 -24,-18zm149 -44c-38,34 -162,16 -220,14l71 23c-45,28 -9,22 -71,7 -32,18 -42,-31 -26,64l28 0c-10,-13 7,-9 -13,-18 48,-1 85,2 132,7l137 21c2,1 4,3 6,5l27 -15c-17,-20 -42,-53 7,-33 39,15 -18,3 30,20 1,-2 2,-5 2,-6l87 -15c0,-6 1,-12 0,-11l-6 -28 -4 -11c-66,23 -95,7 -137,-21 7,-18 9,-13 -10,-13 -23,15 29,13 -40,10z"/>
    <path class="fil38" d="M1865 4154l-11 101 1 68c32,28 15,80 20,122 38,-14 -19,39 11,-8 5,-9 5,2 9,-20 1,-4 -3,-32 -4,-39 -3,53 13,30 -27,29l29 -111c33,10 60,0 92,12 47,18 -1,26 87,29 5,-78 25,22 32,-77 -3,-3 -6,-11 -8,-8 -2,3 -7,-4 -10,-5 -43,-14 23,3 -23,-5l-5 35c-18,-28 -4,-21 -42,-32l0 -82c-63,6 -18,6 -34,14 -2,1 -5,3 -7,4l-12 8c-19,7 -44,4 -65,4l-16 -103 -17 64z"/>
    <path class="fil30" d="M1141 5485c13,151 52,134 173,113 27,-58 37,-124 -24,-156 -45,-25 -88,-15 -125,19l-24 24z"/>
    <path class="fil58" d="M873 3943c-9,54 7,23 -27,55 67,7 69,3 122,28l1 -104c74,-27 30,-33 65,-67 -1,-3 -5,-6 -6,-9 -2,-2 -5,-6 -6,-8 -41,-55 -8,-6 -2,-42 1,-4 5,-4 6,-6l-125 5c-67,10 -48,79 -28,148z"/>
    <path class="fil59" d="M1085 6524c3,99 13,90 -44,116 0,-48 9,-92 8,-121 -1,-25 -31,-46 -3,-103 46,36 37,44 39,108zm13 371l-1 -106c-31,-149 26,-192 -20,-373 -12,-44 25,-27 -39,-34 -38,42 -11,427 -8,447 11,73 0,57 4,85 7,41 -3,13 15,36 24,-12 29,-24 45,-48 1,-1 2,-5 4,-7z"/>
    <path class="fil18" d="M2245 5387c-18,-26 27,11 -21,-15 5,55 5,8 -21,48 -16,8 -34,-7 -42,77l-8 -18c-1,-2 -3,-6 -4,-8 -7,-11 -8,-34 -19,1 -10,37 -4,50 8,73 20,5 -3,22 19,-30 -1,19 -3,23 1,42 11,55 1,6 13,27 22,38 12,-26 5,16 0,2 -8,20 -8,21l32 18 4 -29 19 6 15 -33c39,44 27,36 61,30 -17,-19 -35,-31 -45,-60 -22,-71 15,-136 116,-129l-19 -27c-8,0 -43,4 -44,4 -29,-7 -8,4 -29,-19l96 -25c-29,2 -10,6 -64,-23 -10,29 3,16 -20,35 -26,23 9,21 -45,18z"/>
    <path class="fil60" d="M1528 7273l-29 2 -20 -1 -142 25 -34 19c-10,3 -21,2 -33,6l31 0 41 6c-22,36 21,9 -29,31 -19,9 -59,-3 -94,1l87 -2c12,4 193,-6 222,-10 3,-12 4,-25 10,-34 38,3 77,1 113,8 47,8 36,17 96,4l10 -45 -10 -19 -61 1 -158 8z"/>
    <path class="fil26" d="M1065 4170c29,54 20,3 28,78 12,124 5,240 9,360 2,51 42,153 -40,199l-35 48c40,-18 107,-75 119,-109 13,-34 1,-161 2,-207l-18 -332c-35,-7 9,-14 -41,-47l-24 10z"/>
    <path class="fil61" d="M2512 4029c-5,24 -70,29 3,48l15 2c38,7 56,5 76,24l52 -26c1,-1 4,-2 6,-3l49 -15c-30,45 -69,55 -61,115 4,29 17,48 23,76 6,33 1,54 4,80l16 -33c12,-41 0,-55 9,-90 19,-74 1,-23 24,-44l19 -129 -42 13c7,-23 5,-16 13,-30 6,-11 8,-11 14,-17l-44 17c12,-35 21,-33 -7,-53 -12,47 8,81 -36,90 -32,6 -44,-33 -46,-58 -5,0 -29,4 -33,4l-36 -4c-3,-1 -15,-8 -18,-10l0 43z"/>
    <path class="fil29" d="M1364 6852c-8,56 21,-17 -2,15l-22 17c50,2 14,10 58,-10 9,-40 -43,34 12,-8 14,-11 16,-15 18,-17l78 -82c0,-53 13,-95 -13,-133 -19,-28 4,-4 -26,-27 -27,30 -40,32 -79,42 -1,8 -8,39 -8,39 -13,80 14,64 5,110 -7,33 -15,12 -21,54z"/>
    <path class="fil62" d="M1201 4023c2,3 5,4 6,9 9,34 54,1 116,34 -34,38 -13,6 -52,1 1,0 9,-27 -1,10 -14,48 -1,-50 -9,32 2,2 8,5 15,11l19 16c43,23 70,13 124,18 19,-12 3,-6 32,-14l42 -7c-18,-10 -18,-22 -37,-23l58 -6c-2,-1 -8,-8 -10,-5l-22 -22 21 -18c-62,0 -7,4 -31,-16 -21,-9 -26,-9 -32,-30l-82 15 -110 -1 -38 -18 -9 14z"/>
    <path class="fil63" d="M2488 3821l6 12 -1 24 -6 13 13 21c16,39 10,26 10,80 -9,-18 -3,-34 -2,-67l20 24c20,26 -3,0 7,11l15 -48c1,-4 4,-7 7,-11l14 50c42,-28 137,13 144,20l18 -111c-6,-3 -12,-9 -13,-10l-9 -18c0,-1 0,-3 0,-4l-168 -3 -55 17z"/>
    <path class="fil11" d="M1983 5774l78 0c4,-98 -1,-140 -8,-229 -1,-3 -2,-24 -2,-26 0,-20 50,-99 -69,-92l1 347z"/>
    <path class="fil48" d="M2203 4305l53 7 9 42c-31,53 -1,92 -62,122 -71,-67 -1,-37 -18,-60 -15,-21 -53,-2 -79,10 23,116 123,75 170,74 15,-16 14,-11 23,-18 17,-14 41,-22 27,-104 -7,-26 -14,-19 -27,-45 -12,-27 -11,-47 -20,-70 -12,-10 -16,-10 -34,-21 -24,54 -32,23 -42,63z"/>
    <path class="fil64" d="M2715 4901c-21,-14 -47,-35 -67,-57 -9,4 -17,-8 -1,10 15,20 13,14 30,30 18,17 -2,-7 16,15 18,22 9,15 12,23 24,15 5,-6 28,20 16,19 6,-1 14,28l8 17 19 0c-15,-140 -2,-348 -1,-496 1,-166 8,-330 11,-495l-18 12c-17,300 -21,601 -21,908 -62,0 -5,3 -30,-15z"/>
    <path class="fil23" d="M2747 4034l-19 129c-4,128 -7,253 -9,381 -1,64 2,126 1,190 0,47 13,142 -5,167 25,18 -32,15 30,15 0,-307 4,-608 21,-908 -11,10 -7,6 -16,17 -1,1 -2,6 -3,9z"/>
    <path class="fil65" d="M2245 5387c54,3 19,5 45,-18 23,-19 10,-6 20,-35 54,29 35,25 64,23 41,-13 9,18 14,-32l-5 -75c-23,28 -7,64 -21,88 6,-9 7,-10 7,-25l-54 -1 -8 -104c-7,-33 -71,-41 2,-95l-32 -63c-4,68 -9,35 -74,52 -31,9 4,-11 -23,11 22,14 63,-3 86,11l0 31c-28,15 3,6 -29,6l-55 -14c0,29 7,22 20,42 1,2 3,4 5,6 6,11 24,5 -2,55 27,5 60,-24 56,51 -3,37 -18,16 -5,49 1,3 4,6 5,8 2,3 6,11 7,9 2,-2 6,6 8,8l-31 12z"/>
    <path class="fil66" d="M917 7092l2 16c31,-13 13,-6 40,-19l35 -15 -20 -12c12,-17 10,-39 9,-62l-2 -222c0,-100 -3,-200 -3,-301 -17,18 -10,5 -21,33 -12,30 -7,86 -7,120 1,45 -8,433 -33,462z"/>
    <path class="fil67" d="M1639 3805l154 10c2,41 -20,56 -20,56 -1,1 -3,3 -3,4 -29,38 19,48 -69,30 3,3 13,15 13,17 0,1 1,3 1,4 0,1 -2,3 -2,3 -1,2 -23,10 -24,11 -13,13 -15,13 -16,23 -20,42 -16,38 -18,86 31,17 23,15 65,12 34,-3 -22,-19 33,20 10,-72 3,-84 37,-117 -9,-40 -17,-12 18,-31l-2 -77c-3,-33 7,-60 19,-83 -74,6 2,17 -88,23 -38,3 -63,-1 -98,9z"/>
    <path class="fil68" d="M919 7108c-10,5 1,7 -20,5 -30,-4 -6,10 -23,-14l-6 10c-2,10 3,19 3,19 0,1 2,4 3,5 0,1 2,4 3,5 11,25 1,-18 8,21 5,22 -2,65 -3,90 25,-38 17,-56 11,-100 61,4 25,-8 71,19l-61 -32 72 -23c20,-5 46,-10 64,2 24,17 -5,-9 23,36l6 40c-39,35 -5,-18 -16,21l31 -19c-9,55 -2,35 1,63l9 88c-70,-30 -35,19 -111,6 -115,-20 37,-18 -91,-39 9,69 170,58 211,37l17 -10 2 -39 -6 -54 6 -21 2 -19 -6 -16 -5 -85c-41,-8 -18,-2 -38,-11 -89,-39 -25,-4 -82,-19l-35 15c-27,13 -9,6 -40,19z"/>
    <path class="fil69" d="M1285 5301c-18,15 22,11 -38,18 1,2 10,22 24,24 -48,19 -95,20 -127,59 91,25 153,-18 180,48 57,-9 45,-34 78,-4 -9,-40 -4,-37 -13,-75l-12 -58c-45,-5 -56,-13 -67,-34 -17,27 32,25 -25,22z"/>
    <path class="fil15" d="M2230 6388l1 -117 -1 56c29,27 26,32 66,28 2,-38 9,-56 15,-85 -97,-8 -151,-8 -249,-6l7 88c28,-19 11,-14 28,-48l97 74c20,12 -25,38 36,10z"/>
    <path class="fil70" d="M2392 6702c35,-8 5,10 33,-19l-12 51c0,3 2,6 2,9 1,2 4,5 5,7 0,2 3,5 5,7 45,-58 -45,-102 67,-123 6,90 -27,58 -34,103 -10,67 0,30 9,43 1,-3 4,-24 4,-25l12 -30c1,-3 3,-7 6,-10 25,30 18,59 26,79l16 26 -13 -205c2,-41 -3,-50 -20,-89l-20 49 -64 0c-10,24 -5,36 -21,51 -1,0 -4,2 -5,2 -1,1 -7,1 -11,2 17,37 15,29 15,72z"/>
    <path class="fil71" d="M2092 7137l231 11 42 8 119 22 6 -35 -10 -13 -105 -25 -61 -1 -21 -2c-32,19 -101,17 -132,2 -17,0 -14,2 -32,-1 -22,-5 -13,-1 -24,-13l-22 9c-50,0 -25,-18 -32,27 22,14 -29,14 41,11z"/>
    <path class="fil54" d="M1566 7147l-2 33c-9,55 -6,20 8,73l38 -4c15,-11 5,-8 31,-14l92 -4 0 -33c0,-1 0,-4 0,-5l-1 -26c0,-1 -2,-4 -2,-6 -12,-37 -81,-14 -111,-27l-26 -32c-1,-2 -3,-12 -4,-16 0,10 1,21 -2,30 -12,36 6,9 -21,31z"/>
    <path class="fil72" d="M1376 3805l31 38 -51 17 19 14 -60 10c59,26 116,32 185,36 8,-14 7,-13 13,-29 -20,-7 -10,2 -21,-15l104 8c-2,-2 -5,-8 -6,-6 -3,6 -1,-22 -65,-30 -40,12 -14,16 -42,0 -8,-28 47,-24 81,-20l-40 -21 -42 6c-100,9 -34,-15 -94,-23l-12 15z"/>
    <path class="fil73" d="M2042 7143l-30 -7 -10 32c31,25 -41,21 39,21 -22,-1 -36,-2 -36,21l54 4c20,-5 17,-11 17,6 62,15 26,21 71,-7l-71 -23 -19 -7c79,-15 164,4 239,-7 69,3 17,5 40,-10 -24,-14 -20,17 -20,-15l7 -3 -231 -11 -50 6z"/>
    <path class="fil74" d="M1564 3828l12 -4c43,-3 53,0 61,40l54 27c0,0 -1,17 -1,20l-1 29c1,-1 23,-9 24,-11 0,0 2,-2 2,-3 0,-1 -1,-3 -1,-4 0,-2 -10,-14 -13,-17 88,18 40,8 69,-30 0,-1 2,-3 3,-4 0,0 22,-15 20,-56l-154 -10 -115 2 40 21z"/>
    <path class="fil75" d="M805 5426c25,68 9,704 11,714l17 -36c3,-12 -14,-1175 -28,-1216l0 538z"/>
    <path class="fil11" d="M2158 6778c-6,29 25,17 50,12 -27,36 -20,15 -25,46l115 14 9 -29 -31 7c-40,3 -26,10 -63,-8 10,-8 4,-8 20,-14l65 -10c35,-6 13,0 30,-12l-55 -18c15,-10 6,-6 21,-11 9,-4 21,1 31,-6l-2 -9 -4 -19 -34 9 -31 11 -33 -16 8 -21c23,-16 -30,-14 29,-14 -15,-4 -16,-5 -10,-15l3 -25 -69 2c4,92 7,27 33,89 -23,10 4,5 -25,9 -46,5 -18,0 -22,-4 1,0 2,0 2,1l22 41 -34 -10z"/>
    <path class="fil76" d="M1910 7284c-29,14 -24,25 -35,59 38,1 108,7 158,9 31,-47 -2,-52 49,-69l-4 1 -28 0c-54,-25 -69,-33 -133,-35 -10,14 -17,-16 -7,35z"/>
    <path class="fil45" d="M1884 7184l2 43c57,14 81,18 147,22 18,-60 2,-8 26,-35l-54 -4c0,-23 14,-22 36,-21 -80,0 -8,4 -39,-21l10 -32c26,-18 14,-16 11,-21 -32,24 -42,57 -67,43 -40,-24 17,-39 -51,-40l-21 66z"/>
    <path class="fil77" d="M1018 4845l9 10 35 -48 6 -48 1 -100c7,-73 -3,-61 -10,-71 -56,33 -47,129 -50,172 -3,36 -15,51 9,85z"/>
    <path class="fil78" d="M1336 7210c23,-24 10,-33 49,0 -10,6 25,9 -28,8 -40,-1 -5,0 -21,-8zm-25 -7c17,28 12,21 66,17 -4,2 -9,2 -11,8 -2,6 -8,7 -10,9 -3,2 -7,7 -11,10 57,-5 98,-5 134,27l20 1c16,-39 4,-14 25,-24l-27 -18c-2,-1 -5,-4 -6,-5 -1,-1 -4,-4 -5,-5l-11 -11c31,5 28,0 49,14l28 27 20 0c-14,-53 -17,-18 -8,-73 -73,44 -107,-6 -198,4 0,0 -31,5 -31,6 -19,5 -13,5 -24,13z"/>
    <path class="fil79" d="M2256 3891c32,-22 22,-14 68,-8 -26,14 -35,24 -68,8zm-122 0l143 22c31,-1 40,-3 65,-11l48 -17c2,-1 5,-3 7,-4 2,-1 5,-3 7,-4l-66 -1c16,-13 58,-44 -4,-26l38 -8c-72,-40 -86,-6 -159,-4l0 8 17 -2c-64,12 -7,-4 -38,37l-58 10z"/>
    <path class="fil80" d="M2139 4754c-1,43 12,-23 4,29 0,0 -14,44 -14,47 -7,-60 -28,-53 -39,-59 -31,35 -24,18 -35,54 -16,52 19,-47 -8,34 78,-3 116,10 189,-20 -20,-16 21,-14 -43,-11l-11 -95c-49,11 0,-5 -43,21z"/>
    <path class="fil81" d="M1148 3888l-31 -3c-7,66 48,88 103,98l19 4 4 18 24 0c-37,-17 -16,-4 -30,-29 56,-1 62,18 104,10 -62,-11 -143,-39 -188,-74 27,-11 40,10 96,19l56 -1c54,8 15,5 30,-15l-95 -19 -14 -22 -32 6 -46 8z"/>
    <path class="fil82" d="M2749 7345c-7,32 -8,9 -2,31 -39,0 -30,6 -78,4 -32,52 -31,3 -9,28 6,6 15,6 16,6 -25,0 -17,-6 -17,22 76,-7 165,-25 174,-100l-26 -51c-48,39 12,44 -58,60z"/>
    <path class="fil46" d="M805 6290l0 362c2,3 3,7 4,10 1,3 2,7 4,10 1,4 1,7 3,11l9 28c1,-1 2,6 4,9 -2,-82 6,-161 4,-248 -2,-82 -6,-165 -8,-247 -2,2 -3,6 -4,9l-16 56z"/>
    <path class="fil30" d="M1148 4032c19,-26 28,-23 62,-23 6,-14 1,-8 10,-26 -55,-10 -110,-32 -103,-98l5 -16c-12,-15 18,-10 -33,-17l1 176 58 4z"/>
    <path class="fil83" d="M1832 7228l7 93c26,-18 21,-28 36,-48l35 11c-10,-51 -3,-21 7,-35 64,2 79,10 133,35 -16,-95 -6,-46 26,-64 0,-17 3,-11 -17,-6 -24,27 -8,-25 -26,35 -66,-4 -90,-8 -147,-22l-2 -43 3 -75 -22 -9c-1,21 0,64 -1,78 -6,67 13,29 -32,50z"/>
    <path class="fil84" d="M1341 3986l208 12 -10 -23 -194 -16 -96 -28c-56,-9 -69,-30 -96,-19 45,35 126,63 188,74z"/>
    <path class="fil85" d="M2065 7045c12,-17 7,-16 74,-14 104,3 146,19 235,28 49,-10 61,-8 88,-43l-344 2 -64 4c-3,34 -3,2 11,23z"/>
    <path class="fil86" d="M1993 3902l43 15 84 -22c-50,-62 -46,-47 -87,-35 -16,-57 -3,-16 -21,-38l-71 8c4,66 19,20 52,72z"/>
    <path class="fil87" d="M1282 7282l-37 -10 -50 1 -12 21c41,9 22,11 66,12 28,0 59,-4 88,-7l142 -25c-36,-32 -77,-32 -134,-27l-14 5c-23,23 18,-6 -20,19 -17,12 7,1 -29,11z"/>
    <path class="fil20" d="M1927 6767c50,26 36,21 96,21l0 -105 -96 8 0 76z"/>
    <path class="fil79" d="M1125 7205l-2 19 95 -3c-15,12 -42,36 -54,47l3 32 8 -2 8 -4 12 -21 50 -1 44 -19 42 -1 14 -5c4,-3 8,-8 11,-10 2,-2 8,-3 10,-9 2,-6 7,-6 11,-8 -54,4 -49,11 -66,-17l-9 -7 -8 26 -169 -17z"/>
    <path class="fil88" d="M1254 4140l29 14c-49,23 -5,1 -27,28 62,5 122,-17 162,-8 12,3 63,28 107,27 72,-2 29,-2 47,-18l-153 -29c-54,-5 -81,5 -124,-18 -33,-11 -41,-20 -65,0l24 4z"/>
    <path class="fil89" d="M1240 3896l95 19 209 30c-4,-26 4,-13 -12,-25l-32 0c-69,-4 -126,-10 -185,-36l60 -10 -19 -14 -98 -3 -28 -4 10 43z"/>
    <path class="fil90" d="M2105 7090c11,12 2,8 24,13 18,3 15,1 32,1l20 -18c1,-1 4,-5 5,-6 11,-12 94,-3 114,-2 18,-28 33,-4 72,-4l2 -15c-89,-9 -131,-25 -235,-28 -67,-2 -62,-3 -74,14 31,3 52,-6 81,3 27,7 5,28 57,14 -55,8 -31,-4 -53,32l-45 -4z"/>
    <path class="fil91" d="M1041 6640c57,-26 47,-17 44,-116 -2,-64 7,-72 -39,-108 -28,57 2,78 3,103 1,29 -8,73 -8,121z"/>
    <path class="fil92" d="M1267 4005c5,0 46,-5 47,-4 81,8 22,-10 44,27l82 -15c6,21 11,21 32,30l39 2 -40 -25 74 -2 4 -20 -208 -12c-42,8 -48,-11 -104,-10 14,25 -7,12 30,29z"/>
    <path class="fil93" d="M1525 3848c64,8 62,36 65,30 1,-2 4,4 6,6 49,-7 29,-3 56,10 -25,32 27,18 -47,38 -15,4 7,-4 -22,1 -59,11 11,-14 -17,6 38,23 27,0 75,10 10,-3 26,-6 48,-9l1 -29c0,-3 1,-20 1,-20l-54 -27c-8,-40 -18,-43 -61,-40 7,16 -1,15 11,27l-62 -3z"/>
    <path class="fil94" d="M2200 5639l22 67 104 1 3 -41c-48,8 -73,-32 -106,-50l-19 -6 -4 29z"/>
    <path class="fil95" d="M2213 3846l0 -8c73,-2 87,-36 159,4 40,-9 27,0 54,-3 59,-4 13,4 32,-11 -49,-22 -85,-14 -139,-11 -70,4 -60,-24 -127,-22 -1,2 -1,4 -2,4l-6 13c-4,7 -16,23 -24,36l53 -2z"/>
    <path class="fil96" d="M1229 4285c17,6 20,5 35,15l12 11c2,2 5,5 7,6 1,2 4,5 6,7l-1 -21c50,0 21,-8 45,15 75,-3 54,6 112,16l-20 -20 47 3c-11,-10 -3,-15 -46,-21 -73,-10 -99,5 -166,-38 -61,11 -21,1 -38,19l7 8z"/>
    <path class="fil97" d="M2203 4305c10,-40 18,-9 42,-63 18,11 22,11 34,21l-3 -43 -124 -9c2,28 -1,14 5,31l46 63z"/>
    <path class="fil98" d="M1230 4449c11,-27 -19,-14 24,-18 2,0 48,8 49,8 -2,-3 -6,-11 -7,-9 -1,3 -5,-4 -11,-13 -21,-27 -25,22 -3,-6l-4 -38 65 3 0 -15c-131,22 -108,-35 -158,4 32,21 32,15 70,17 -25,38 -15,3 -58,45 -4,2 -6,7 -9,10 4,2 42,12 42,12z"/>
    <path class="fil99" d="M1219 7362c35,-4 75,8 94,-1 50,-22 7,5 29,-31l-41 -6c6,5 9,17 15,21 -47,8 -32,17 -66,-9l20 -12c12,-4 23,-3 33,-6l34 -19c-29,3 -60,7 -88,7 -44,-1 -25,-3 -66,-12 18,49 15,18 36,68z"/>
    <path class="fil35" d="M1289 5877c8,22 1,6 31,13 24,-39 -1,-6 46,-29 4,-42 13,-48 -30,-65l-4 53c1,-1 10,-30 -40,-51 -1,4 -2,5 -2,11 -2,85 17,26 -1,68z"/>
    <path class="fil100" d="M2204 6932l-4 29c62,7 45,-9 98,-14 5,3 22,12 26,15 56,-5 16,-1 61,-13l19 -2 2 -12 -37 0 -39 -9 -126 6z"/>
    <path class="fil88" d="M2078 7284l4 -1c36,5 86,17 121,18 49,3 81,-9 137,-2 -2,-2 -4,-4 -6,-5l-137 -21c-47,-5 -84,-8 -132,-7 20,9 3,5 13,18z"/>
    <path class="fil20" d="M2743 6230l-4 1 -3 -17c-20,19 -37,39 -67,48l11 71c19,26 -12,3 27,19 15,-40 10,-18 12,-59 5,-82 11,-48 24,-63z"/>
    <path class="fil100" d="M2276 6828c18,-17 -7,-13 22,-15 19,-1 40,-4 13,33 76,-8 28,11 42,-26l30 -2c-32,-15 -50,0 -19,-29l-36 -5c-17,12 5,6 -30,12l-65 10c-16,6 -10,6 -20,14 37,18 23,11 63,8z"/>
    <path class="fil101" d="M1153 3840l3 12c30,0 24,-12 41,18l33 -17 28 4c0,-24 47,-10 77,-11 14,-13 5,6 2,-16 -8,1 -50,5 -56,5 -51,-7 -31,1 -39,-27l-42 13 -4 12 -43 7z"/>
    <path class="fil102" d="M926 7368c17,25 1,20 30,32 10,5 97,22 122,-22l-152 -10z"/>
    <path class="fil103" d="M2807 7285l26 51c85,-24 6,-66 -8,-82 -17,-22 -2,-11 -24,-31l6 62z"/>
    <polygon class="fil104" points="1125,7205 1294,7222 1302,7196 1119,7189 "/>
    <path class="fil88" d="M2161 7104c31,15 100,17 132,-2 -7,1 -33,2 -37,1 -22,-4 -14,-4 -26,-13l83 -9 -13 -3c-20,-1 -103,-10 -114,2 -1,1 -4,5 -5,6l-20 18z"/>
    <path class="fil23" d="M1216 5865c37,-9 14,0 53,-4 0,-15 2,-46 6,-71l-53 11 -6 64z"/>
    <path class="fil105" d="M1282 4411l50 -7c0,0 -11,-13 35,-12 37,2 19,1 44,18 1,-24 -1,-16 34,-12 -8,-6 -6,-8 -22,-14 -2,-1 -25,-5 -26,-5 -19,-3 -35,-3 -54,-3l-65 -3 4 38z"/>
    <path class="fil106" d="M1230 4136c24,-20 32,-11 65,0l-19 -16c-7,-6 -13,-9 -15,-11 -63,-21 -35,-34 -97,-42 11,54 -8,17 25,42 8,5 31,21 41,27z"/>
    <path class="fil107" d="M2076 7190c58,2 182,20 220,-14 -75,11 -160,-8 -239,7l19 7z"/>
    <path class="fil108" d="M1337 3830c3,22 12,3 -2,16 -30,1 -77,-13 -77,11l98 3 51 -17 -31 -38 -21 1 16 26 -34 -2z"/>
    <path class="fil109" d="M1117 7245l21 25 26 -2c12,-11 39,-35 54,-47l-95 3 -6 21z"/>
    <path class="fil107" d="M1337 3830l34 2 -16 -26 -113 2c8,28 -12,20 39,27 6,0 48,-4 56,-5z"/>
    <path class="fil110" d="M1471 4432c-2,-1 -5,-3 -6,-4l-54 -18c-25,-17 -7,-16 -44,-18 -46,-1 -35,12 -35,12l27 26c56,-5 67,6 112,2z"/>
    <path class="fil19" d="M2167 5296c2,-2 8,-13 10,-16l-21 -9c0,3 1,7 1,9 1,3 1,7 2,9l1 47c38,-8 35,-3 70,3l-6 -57c-31,26 -16,15 -57,14z"/>
    <path class="fil11" d="M1123 7299l-2 39 4 27 48 -3c2,-13 0,-13 0,-26 0,-22 -8,6 2,-38l-8 2 -12 14c-5,-2 -31,-14 -32,-15z"/>
    <path class="fil98" d="M1757 7283l56 3c-10,-28 5,-13 -20,-30 -24,-16 -63,-4 -107,-8l0 17 61 -1 10 19z"/>
    <path class="fil108" d="M2313 7081l1 23 61 1 29 -25 -13 -8 -19 2c-39,0 -54,-24 -72,4l13 3z"/>
    <path class="fil111" d="M2391 7072l13 8c44,5 56,7 96,29l2 -71c-37,33 -59,32 -111,34z"/>
    <polygon class="fil92" points="1528,7273 1686,7265 1686,7248 1610,7249 1572,7253 1552,7253 "/>
    <path class="fil112" d="M1248 4027l110 1c-22,-37 37,-19 -44,-27 -1,-1 -42,4 -47,4l-24 0 5 22z"/>
    <path class="fil100" d="M2147 7220c8,8 -3,9 24,18 45,16 79,-12 79,-12 36,-11 64,0 101,-15l-204 9z"/>
    <path class="fil23" d="M907 7422c-1,-3 -3,-12 -4,-10 -3,6 1,-39 -77,-81 25,56 19,71 81,91z"/>
    <path class="fil113" d="M1312 4461l44 0 0 9 38 4 2 -31 -99 -7c3,4 7,16 15,25z"/>
    <path class="fil111" d="M1525 3848l62 3c-12,-12 -4,-11 -11,-27l-12 4c-34,-4 -89,-8 -81,20 28,16 2,12 42,0z"/>
    <path class="fil114" d="M998 6371l-7 -5c-25,-116 33,-72 -27,-106l12 149c23,-42 -14,-4 22,-38z"/>
    <path class="fil115" d="M2251 6650l-3 25c82,-35 56,18 106,-13 -2,-2 -5,-5 -6,-6l-39 -19 -58 13z"/>
    <path class="fil116" d="M2285 6730l34 -9 4 19 47 3c-2,-5 -6,-13 -6,-11 -1,1 -4,-7 -5,-9l3 -34 -24 14c-33,15 -54,-9 -53,27z"/>
    <path class="fil103" d="M2311 6846c5,3 1,8 33,16 1,1 37,6 38,6l21 -2c-9,-32 -14,-27 -50,-46 -14,37 34,18 -42,26z"/>
    <path class="fil117" d="M1122 3869l-5 16 31 3 15 -22c51,3 19,2 31,14l32 -6 14 22 -10 -43 -33 17c-17,-30 -11,-18 -41,-18 -2,1 -6,1 -7,3 -1,3 -5,3 -6,4 -19,10 -1,0 -21,10z"/>
    <path class="fil57" d="M1138 3833l15 7c10,-13 -4,-6 21,-22 8,-32 10,-16 -29,-25 -66,-16 -42,-3 -55,16l64 1 -16 23z"/>
    <path class="fil112" d="M1471 4432l12 -6 20 3 -10 -25 -48 -6c-35,-4 -33,-12 -34,12l54 18c1,1 4,3 6,4z"/>
    <path class="fil99" d="M1499 7275l29 -2 24 -20 -28 -27c-21,-14 -18,-9 -49,-14l11 11c1,1 4,4 5,5 1,1 4,4 6,5l27 18c-21,10 -9,-15 -25,24z"/>
    <path class="fil90" d="M1187 4173l69 9c22,-27 -22,-5 27,-28l-29 -14 -62 28c-1,-2 -3,3 -5,5z"/>
    <path class="fil115" d="M805 7331l10 0c2,-22 2,-44 7,-65 11,-38 8,19 14,-46l-31 3 0 108z"/>
    <path class="fil112" d="M1511 4045c3,-1 34,-2 36,-2 32,-9 16,-3 35,-20l-37 -5 -74 2 40 25z"/>
    <path class="fil106" d="M1123 7299c1,1 27,13 32,15l12 -14 -3 -32 -26 2 -21 -25 6 54z"/>
    <path class="fil56" d="M1222 4277c17,-18 -23,-8 38,-19l-52 -24c-65,0 -22,-4 -32,15l46 28z"/>
    <path class="fil115" d="M1500 3920l32 0c5,-1 18,-1 25,-4 41,-13 17,-4 34,-18l-78 -7c-6,16 -5,15 -13,29z"/>
    <path class="fil118" d="M2254 6741l31 -11c-1,-36 20,-12 53,-27l-72 -3 -36 28 24 13z"/>
    <path class="fil111" d="M1261 4457l51 4c-8,-9 -12,-21 -15,-25l6 3c-1,0 -47,-8 -49,-8 -43,4 -13,-9 -24,18l31 8z"/>
    <path class="fil119" d="M1571 3968l-45 -16c-20,-2 -51,-1 -71,-1 28,26 -60,18 116,17z"/>
    <path class="fil112" d="M1445 4334l30 2c3,0 25,0 27,-1 30,-11 8,13 25,-16l-55 -2 -47 -3 20 20z"/>
    <path class="fil120" d="M2323 6740l2 9 47 6c7,-11 8,3 9,-20 1,-21 -3,-17 -7,-25 6,-32 16,-31 -12,-21l-3 34c1,2 4,10 5,9 0,-2 4,6 6,11l-47 -3z"/>
    <path class="fil121" d="M1249 3931l96 28c5,-39 -19,-33 -40,-29l-56 1z"/>
    <polygon class="fil105" points="1090,3838 1138,3833 1154,3810 1090,3809 "/>
    <path class="fil46" d="M1503 4429l-20 -3c26,10 14,8 25,27l19 -6 1 42c16,-15 8,2 10,-29 0,-3 -2,-39 -2,-42l-20 -11c5,29 13,25 -13,22z"/>
    <path class="fil78" d="M2293 7102l21 2 -1 -23 -83 9c12,9 4,9 26,13 4,1 30,0 37,-1z"/>
    <path class="fil112" d="M1513 3891l78 7 5 -14 -104 -8c11,17 1,8 21,15z"/>
    <path class="fil78" d="M1301 7324l-31 0 -20 12c34,26 19,17 66,9 -6,-4 -9,-16 -15,-21z"/>
    <path class="fil122" d="M1528 4489l-1 -42 -19 6c-15,13 -10,6 -14,30l34 6z"/>
    <path class="fil123" d="M1475 4336c23,11 -30,5 28,11 29,3 16,1 43,-5 -8,-28 8,-5 -19,-23 -17,29 5,5 -25,16 -2,1 -24,1 -27,1z"/>
    <path class="fil116" d="M2483 7200l4 11c54,6 24,7 73,36l-3 -31 -19 -1 -55 -15z"/>
    <path class="fil124" d="M1336 7210c16,8 -19,7 21,8 53,1 18,-2 28,-8 -39,-33 -26,-24 -49,0z"/>
    <path class="fil125" d="M1210 4009l38 18 -5 -22 -4 -18 -19 -4c-9,18 -4,12 -10,26z"/>
    <path class="fil95" d="M2256 3891c33,16 42,6 68,-8 -46,-6 -36,-14 -68,8z"/>
    <path class="fil126" d="M2042 7143l50 -6c-70,3 -19,3 -41,-11 7,-45 -18,-27 32,-27 -16,-13 6,-10 -39,-13l-2 57z"/>
    <path class="fil115" d="M2794 3817l-3 6c41,-17 15,4 36,-27 -5,-53 -1,-15 -14,-30 -2,17 -1,13 -5,23 -2,8 -8,20 -8,18 -1,-2 -4,7 -6,10z"/>
    <path class="fil127" d="M1282 7282c36,-10 12,1 29,-11 38,-25 -3,4 20,-19l-42 1 -7 29z"/>
    <path class="fil128" d="M2298 6850l13 -4c27,-37 6,-34 -13,-33 -29,2 -4,-2 -22,15l31 -7 -9 29z"/>
    <path class="fil104" d="M2336 7166c19,0 17,-5 10,13 32,-10 12,7 19,-23l-42 -8 -7 3c0,32 -4,1 20,15z"/>
    <path class="fil109" d="M1148 4032l53 -9 9 -14c-34,0 -43,-3 -62,23z"/>
    <polygon class="fil57" points="1394,4474 1443,4465 1396,4443 "/>
    <path class="fil112" d="M1289 4324l44 -6c-24,-23 5,-15 -45,-15l1 21z"/>
    <path class="fil123" d="M1641 3949c9,19 -20,16 32,14 1,-10 3,-10 16,-23 -22,3 -38,6 -48,9z"/>
    <polygon class="fil129" points="805,3763 837,3722 805,3722 "/>
    <path class="fil130" d="M1148 3888l46 -8c-12,-12 20,-11 -31,-14l-15 22z"/>
    <path class="fil119" d="M1153 3840l43 -7 4 -12 -26 -3c-25,16 -11,9 -21,22z"/>
    <polygon class="fil131" points="1245,7272 1282,7282 1289,7253 "/>
    <path class="fil104" d="M2324 6962c10,5 4,15 36,7 19,-5 19,-14 25,-20 -45,12 -5,8 -61,13z"/>
    <polygon class="fil64" points="2254,6741 2230,6728 2266,6700 2229,6704 2221,6725 "/>
    <path class="fil132" d="M2484 7178c17,-10 14,1 26,-27l-20 -8 -6 35z"/>
    <path class="fil110" d="M2494 3833l-6 -12c-36,-33 -11,-12 -22,-4 12,21 -25,19 28,16z"/>
    <path class="fil125" d="M1503 4429c26,3 18,7 13,-22l-23 -3 10 25z"/>
    <path class="fil133" d="M2541 7287l7 3c-23,-21 34,-26 -41,-14 20,19 -1,4 34,11z"/>
    <path class="fil57" d="M2200 6961l4 -29 -22 9c13,39 2,5 18,20z"/>
    <polygon class="fil104" points="2480,7130 2490,7143 2510,7151 2501,7126 "/>
    <polygon class="fil110" points="2369,6935 2362,6914 2330,6926 "/>
   </g>
   <rect class="fil134 str0" x="837" y="4170" width="837" height="2662"/>
   <rect class="fil4 str0" x="1153" y="6832" width="196" height="113"/>
   <rect class="fil134 str0" x="1931" y="4302" width="837" height="2662"/>
   <rect class="fil4 str0" x="2257" y="4190" width="196" height="113"/>
   <path class="fil5 str2" d="M11123 4442c964,2640 1889,3683 2772,3127"/>
   <rect class="fil5 str0" transform="matrix(0.971378 -0.259059 0.26028 0.966823 13019.2 2534.35)" width="3355" height="540"/>
   <path class="fil135" d="M13096 2274l-92 -430 66 -14 13 61c22,-54 63,-87 122,-99 26,-6 51,-6 75,-2 24,5 43,14 57,27 14,12 25,29 34,48 6,13 12,37 19,71l57 264 -74 15 -55 -261c-7,-30 -14,-52 -23,-65 -9,-13 -22,-23 -38,-29 -16,-5 -34,-6 -54,-2 -31,6 -55,22 -74,46 -18,25 -21,65 -10,120l50 234 -73 16zm746 -158l-14 -64c-23,56 -64,90 -121,102 -26,6 -50,6 -74,1 -25,-5 -44,-14 -57,-26 -14,-13 -26,-29 -34,-50 -6,-14 -13,-36 -19,-67l-57 -266 73 -16 51 239c8,38 15,63 21,75 8,19 21,32 39,39 17,8 36,10 58,5 22,-5 42,-14 58,-30 17,-15 27,-33 31,-54 4,-21 2,-50 -6,-86l-49 -231 74 -15 91 430 -65 14zm180 -38l-91 -430 65 -14 13 61c9,-24 24,-45 44,-63 19,-17 43,-29 72,-35 32,-7 60,-6 83,3 23,9 42,24 55,46 24,-57 63,-92 118,-103 43,-9 79,-5 107,14 28,19 47,53 58,102l63 295 -73 15 -58 -270c-6,-29 -13,-50 -21,-62 -7,-12 -18,-20 -33,-25 -14,-5 -29,-6 -46,-3 -31,7 -54,22 -70,47 -15,24 -18,58 -9,102l53 250 -73 16 -60 -280c-7,-32 -18,-55 -33,-69 -15,-13 -37,-17 -64,-12 -20,5 -38,14 -53,29 -16,14 -25,33 -28,55 -4,22 -1,53 7,92l48 223 -74 16zm694 -147l-92 -430 66 -14 13 61c9,-24 24,-45 43,-62 20,-18 44,-30 73,-36 32,-7 60,-5 83,3 23,9 41,25 55,47 23,-58 63,-92 118,-104 43,-9 78,-4 106,14 29,19 48,53 59,102l63 295 -74 16 -58 -271c-6,-29 -13,-50 -20,-62 -8,-11 -18,-20 -33,-25 -14,-5 -29,-6 -46,-2 -31,6 -54,21 -70,46 -16,24 -19,58 -9,103l53 249 -73 16 -60 -279c-7,-33 -18,-56 -33,-69 -16,-14 -37,-18 -64,-12 -21,4 -38,13 -54,28 -15,14 -24,33 -28,55 -3,23 0,53 8,93l48 223 -74 15zm959 -348l78 -6c-2,46 -17,85 -44,116 -27,31 -66,52 -116,62 -63,13 -117,5 -162,-26 -45,-31 -75,-81 -90,-151 -16,-72 -9,-132 20,-180 29,-48 73,-78 132,-90 58,-13 109,-3 154,28 45,32 75,83 90,154 1,4 2,10 4,19l-322 68c13,47 34,80 63,100 30,20 62,26 98,18 27,-5 49,-17 64,-35 16,-18 27,-44 31,-77zm-265 -66l241 -51c-11,-36 -26,-61 -45,-76 -29,-23 -62,-31 -100,-23 -33,7 -59,24 -77,52 -18,27 -24,59 -19,98zm462 170l-92 -431 66 -14 14 66c11,-34 22,-57 34,-70 12,-13 27,-21 44,-25 25,-5 52,-2 80,8l-11 72c-20,-6 -39,-7 -57,-3 -16,3 -29,11 -40,23 -10,12 -16,28 -18,46 -3,27 -1,56 6,87l48 225 -74 16z"/>
   <path class="fil136" d="M12373 6503l0 -145 -264 0 0 -69 277 -392 61 0 0 392 82 0 0 69 -82 0 0 145 -74 0zm0 -214l0 -272 -191 272 191 0z"/>
   <path class="fil136" d="M14775 3153l78 -6c6,38 19,66 40,85 21,19 47,29 77,29 36,0 66,-14 91,-40 25,-28 37,-63 37,-108 0,-42 -12,-76 -35,-100 -24,-25 -55,-37 -94,-37 -24,0 -46,5 -65,16 -19,11 -34,25 -45,43l-70 -10 58 -312 301 0 0 71 -241 0 -33 164c37,-26 75,-38 114,-38 53,0 98,18 134,55 36,36 55,84 55,141 0,55 -16,102 -48,142 -39,49 -92,74 -159,74 -55,0 -100,-16 -135,-46 -35,-31 -55,-72 -60,-123z"/>
  </g>
 </g>
</svg>
