<?xml version="1.0" encoding="UTF-8"?>
<!DOCTYPE svg PUBLIC "-//W3C//DTD SVG 1.1//EN" "http://www.w3.org/Graphics/SVG/1.1/DTD/svg11.dtd">
<!-- Creator: CorelDRAW X7 -->
<svg xmlns="http://www.w3.org/2000/svg" xml:space="preserve" width="210mm" height="100mm" version="1.1" style="shape-rendering:geometricPrecision; text-rendering:geometricPrecision; image-rendering:optimizeQuality; fill-rule:evenodd; clip-rule:evenodd"
viewBox="0 0 21000 10000"
 xmlns:xlink="http://www.w3.org/1999/xlink">
 <defs>
  <style type="text/css">
   <![CDATA[
    .str1 {stroke:#2B2A29;stroke-width:100}
    .str0 {stroke:#2B2A29;stroke-width:20}
    .fil6 {fill:none}
    .fil1 {fill:#D9DADA}
    .fil8 {fill:#C5C6C6}
    .fil3 {fill:#727271}
    .fil5 {fill:#2B2A29}
    .fil0 {fill:#EF7F1A}
    .fil10 {fill:#E31E24}
    .fil4 {fill:#A2D9F7}
    .fil2 {fill:#2B2A29;fill-rule:nonzero}
    .fil9 {fill:#E31E24;fill-rule:nonzero}
    .fil7 {fill:#D2CDE7;fill-rule:nonzero}
   ]]>
  </style>
 </defs>
 <g id="Laag_x0020_1">
  <metadata id="CorelCorpID_0Corel-Layer"/>
  <rect class="fil0 str0" width="21000" height="10000"/>
  <g id="_822365281472">
   <polygon class="fil1" points="17058,5618 17285,5832 17285,8740 17058,8586 "/>
   <path class="fil2" d="M17094 5580l227 214 17 38 0 2908 -82 44 -227 -155 -24 -43 0 -2968 89 -38zm139 275l-122 -115 0 2818 122 83 0 -2786z"/>
   <polygon class="fil1" points="17058,8586 17285,8740 3911,8740 3411,8586 "/>
   <path class="fil2" d="M17087 8542l228 155 -30 96 -13374 0 -15 -3 -500 -154 15 -103 13647 0 29 9zm28 146l-73 -50 -13283 0 160 50 13196 0z"/>
   <polygon class="fil1" points="3464,5671 17005,5671 17005,8533 3464,8533 "/>
   <path class="fil2" d="M3411 5566l13647 0 53 0 0 52 0 2968 0 52 -53 0 -13647 0 -52 0 0 -52 0 -2968 0 -52 52 0zm13594 105l-13541 0 0 2862 13541 0 0 -2862z"/>
   <path class="fil2" d="M4836 6347l10758 0 52 0 0 52 0 1640 0 53 -52 0 -10758 0 -52 0 0 -53 0 -1640 0 -52 52 0zm10705 105l-10652 0 0 1534 10652 0 0 -1534z"/>
   <polygon class="fil3" points="4889,7740 15541,7740 15541,7986 4889,7986 "/>
   <path class="fil2" d="M4836 7635l10758 0 52 0 0 53 0 351 0 53 -52 0 -10758 0 -52 0 0 -53 0 -351 0 -53 52 0zm10705 105l-10652 0 0 246 10652 0 0 -246z"/>
  </g>
  <rect class="fil4" x="2032" y="1143" width="5635" height="3090"/>
  <path class="fil2" d="M7667 1103l-5635 0 -44 0 0 40 0 3091 0 40 44 0 5635 0 44 0 0 -40 0 -3091 0 -40 -44 0zm-5591 81l5548 0 0 3009 -5548 0 0 -3009z"/>
  <polygon class="fil5 str0" points="5511,2351 4361,2350 4193,2510 4189,3027 5511,3027 "/>
  <path class="fil6" d="M2044 3590c-2033,910 -963,1256 3212,1038"/>
  <path class="fil7 str0" d="M2066 3639c-479,214 -781,395 -907,541 -64,75 -76,136 -36,183 51,62 172,114 361,157 605,136 1861,154 3770,54l5 107c-1918,100 -3184,81 -3798,-57 -213,-48 -353,-112 -420,-192 -79,-94 -67,-202 36,-321 137,-159 452,-349 945,-570l44 98z"/>
  <rect class="fil8 str1" x="5198" y="4420" width="603" height="783"/>
  <g>
   <path class="fil9" d="M7895 3535l526 -439 141 596 -667 -157zm921 -156l-57 82 -5 -3 -5 -3 -5 -3 -6 -3 -5 -3 -6 -2 -7 -2 -6 -2 -7 -2 -7 -2 -7 -2 -8 -1 -8 -1 -8 -1 -9 -1 -8 -1 -10 0 -9 0 -10 0 -10 0 -10 0 -11 1 -10 1 -11 1 -12 1 -12 2 -12 2 -12 2 -12 2 -13 3 -13 3 -13 3 -23 -98 14 -3 15 -3 14 -3 14 -2 13 -3 14 -2 13 -2 13 -1 13 -2 13 -1 13 -1 12 0 12 0 12 0 12 0 11 0 12 1 11 1 11 2 11 1 10 2 11 3 10 2 10 3 10 3 10 4 9 4 10 4 9 4 8 5 9 6 8 5z"/>
  </g>
  <path class="fil10" d="M9393 3189l-74 6c-6,-29 -16,-50 -28,-64 -20,-21 -45,-31 -75,-31 -24,0 -45,6 -63,19 -24,18 -42,42 -56,75 -13,33 -20,80 -21,140 18,-27 40,-47 66,-60 26,-14 53,-20 82,-20 49,0 92,18 127,55 34,36 52,83 52,141 0,38 -8,74 -25,106 -16,33 -39,58 -67,75 -29,18 -62,27 -98,27 -62,0 -113,-23 -152,-69 -39,-45 -59,-121 -59,-225 0,-118 22,-203 66,-256 37,-46 88,-69 153,-69 47,0 86,13 117,40 30,26 49,63 55,110zm-305 262c0,26 6,50 16,74 11,23 26,41 46,53 19,12 40,19 62,19 32,0 59,-13 81,-39 22,-25 34,-59 34,-103 0,-42 -11,-75 -34,-99 -22,-24 -50,-36 -84,-36 -34,0 -62,12 -86,36 -23,24 -35,56 -35,95z"/>
 </g>
</svg>
