<?xml version="1.0" encoding="UTF-8"?>
<!DOCTYPE svg PUBLIC "-//W3C//DTD SVG 1.1//EN" "http://www.w3.org/Graphics/SVG/1.1/DTD/svg11.dtd">
<!-- Creator: CorelDRAW X7 -->
<svg xmlns="http://www.w3.org/2000/svg" xml:space="preserve" width="113.675mm" height="200mm" version="1.1" style="shape-rendering:geometricPrecision; text-rendering:geometricPrecision; image-rendering:optimizeQuality; fill-rule:evenodd; clip-rule:evenodd"
viewBox="0 0 11368 20000"
 xmlns:xlink="http://www.w3.org/1999/xlink">
 <defs>
  <style type="text/css">
   <![CDATA[
    .fil0 {fill:black}
    .fil2 {fill:#02557B}
    .fil9 {fill:#060B0A}
    .fil13 {fill:#0B0100}
    .fil12 {fill:#170A04}
    .fil11 {fill:#17120B}
    .fil4 {fill:#55B32B}
    .fil1 {fill:#B52A1A}
    .fil3 {fill:#CCDCD4}
    .fil6 {fill:#F9E7D9}
    .fil8 {fill:#F9F9F9}
    .fil10 {fill:#FAE7E6}
    .fil5 {fill:#FEE3D5}
    .fil7 {fill:#FEE4DA}
   ]]>
  </style>
 </defs>
 <g id="Laag_x0020_1">
  <metadata id="CorelCorpID_0Corel-Layer"/>
  <g id="_997380943344">
   <path class="fil0" d="M6078 18965c-58,440 165,596 454,537 -945,409 -3234,436 -4351,263 -598,-93 -787,-211 -1279,-367 270,-24 347,-166 260,-415 508,100 684,-158 574,-620 1210,500 1266,505 1271,-453 92,95 250,302 429,370 383,147 482,-24 613,-274 90,159 66,241 310,207 152,-21 304,-177 315,-235 28,255 4,445 79,671 468,118 453,-80 876,-455 7,-7 20,-19 31,-27 -146,560 -478,945 418,798zm2579 -706c-161,67 -359,118 -564,144 -101,13 -248,25 -349,22 -779,-17 -574,-1012 -705,-1380 -129,-363 -770,-3582 -965,-4302 -119,-437 -346,-1535 -277,-2065 682,-34 1657,-100 2321,-231 283,-55 425,-128 683,-164 70,964 204,3072 -119,4011 -63,184 -102,301 -240,424 -132,-176 -445,-2735 -415,-3041 48,-493 264,-650 166,-908 -80,114 -71,181 -129,323 -281,691 121,2580 203,3311 63,570 194,1312 194,1897 0,682 178,1358 196,1959zm-2890 -6729c149,1206 433,2321 732,3423 254,935 -159,861 -436,1458 -188,404 64,408 -252,786 -161,193 -341,422 -130,715 -129,148 -241,236 -372,373 -698,733 -425,-365 -428,-761 -330,139 -274,480 -614,538 -293,-332 -307,-2441 -332,-3057 -44,-1074 -105,-2222 -210,-3289l-205 -3233c1855,229 1997,-306 1834,1363 -101,1036 -80,745 307,887l106 797zm-4168 -3330c-249,10 -572,-212 -876,-291 -358,-93 -595,-65 -596,-451 -2,-396 60,-2937 942,-2078 491,478 438,2283 530,2820zm-503 -3020c-4,-21 -18,-23 -26,-47l3798 123c310,42 393,71 515,286 286,501 417,2404 229,2888 -41,28 -4,29 -126,68 -135,42 -355,-17 -472,-26 -137,-10 -541,-35 -579,-28 358,-38 489,52 753,19l59 -1008c-3,-228 -65,-254 -85,-288l-1840 -57c-396,-18 -417,74 -660,-139 -289,-252 -907,-110 -643,645 475,85 562,-126 1055,-102 241,11 945,37 1176,72l-32 861c-415,-123 -877,-44 -1292,-105 -305,-45 -918,-91 -1222,-95 -90,-358 -83,-1239 -138,-1715 -42,-372 -103,-768 -293,-1098l-177 -254zm4733 2101c-53,-163 -36,-1645 -430,-2007 -417,-383 -2319,181 -2382,-657 -27,-366 276,-504 526,-666 301,-197 949,-614 1193,-347 177,195 302,532 250,891 -176,47 -294,-57 -429,-119 -143,-66 -271,-107 -465,-146 111,133 303,224 456,307 591,317 678,268 1163,775 254,265 334,330 515,766 105,251 469,1441 -397,1203zm2482 -3159c213,-395 919,-399 880,-66 -39,336 -744,499 -880,66zm2158 -318c-12,-4 -30,-12 -45,-17 -15,-4 -29,-9 -45,-13l-218 -8c162,-475 896,-110 1080,157 -81,397 -423,535 -775,675 -175,70 -887,329 -1000,341 -52,-570 -131,-407 -210,-684l1079 -357c16,-5 30,-9 44,-14l90 -38c10,-21 32,-13 45,-23 -14,-8 -32,-14 -45,-19zm-3653 -2186c264,41 387,-47 530,-182 1708,-1624 2578,516 1362,1376 13,-176 37,-145 61,-271 60,-317 48,-122 -41,-213 -410,492 329,965 -627,714 45,105 116,300 125,190 -83,196 -172,235 -400,315 -1274,448 -685,-307 -1175,-625l59 363c-222,-177 -230,-235 -272,-613 -109,-979 -33,-542 135,-863 -614,-6 -274,-553 96,-617l147 426zm-3668 9985c24,1023 219,2155 253,3203 18,559 55,1102 70,1668 14,547 -13,1146 13,1675 -267,-69 -305,-574 -579,-458 -206,203 459,1208 -819,685 -528,-217 -258,-243 -508,-304l-60 6c-83,252 178,345 124,668 -257,226 -320,18 -735,61 41,323 193,267 133,429 -176,26 -274,-93 -568,-76 159,826 2404,811 3097,835 603,21 1260,-27 1845,-96 289,-34 585,-74 857,-142 287,-72 586,-95 573,-368 -192,-52 -438,-13 -622,-107 -54,-179 32,-337 53,-521 -228,51 -407,152 -639,98 -61,-251 121,-549 191,-746 172,241 535,501 766,784 97,119 213,374 344,454 236,143 2749,599 3465,254 88,-405 -65,-745 -375,-921 -282,-161 -725,-183 -1047,-297 -386,-137 -254,-571 -297,-1009 -39,-399 -58,-805 -96,-1196 -89,-915 -214,-1034 144,-1690 412,-755 245,-2140 225,-2993 -11,-435 -124,-800 -48,-1247 162,-120 342,-198 557,-274 17,-328 -54,-885 -120,-1233 -317,314 214,965 -205,1235 -663,428 -3379,658 -3686,555l47 -1866c590,-335 171,-446 356,-1217 629,-39 449,6 655,-299 46,-68 66,-81 139,-144 177,-154 239,-198 226,-501 -736,-654 -461,-485 -774,-1039 -153,-271 -469,-512 -735,-667 -182,-106 -126,-28 -257,-173 82,-1006 -52,-801 -463,-1234 461,-223 1046,-403 1657,-417 85,315 35,265 266,436 291,215 155,264 332,360 637,346 1464,-438 1511,-468 327,-206 1438,77 1684,155 42,467 -386,453 -732,565 -111,-181 -35,-240 -281,-318 -178,-57 -351,-31 -523,25 -159,51 -288,116 -343,270 -36,100 -40,289 18,393 182,0 414,92 502,214 319,442 -13,732 -133,975 -70,142 -142,331 -207,475 209,-49 432,-180 667,-99 -47,329 -899,553 -1131,63 -214,-452 81,-979 184,-1427 -38,0 -42,-130 -209,297 -52,133 -100,291 -142,405 -503,1372 1289,1407 1465,662 -180,-206 -331,-193 -564,-154l235 -442 291 49c55,440 1,1250 5,1740 2,281 4,563 3,845 -1,361 -61,790 139,795 55,-776 -7,-1860 -12,-2684 -7,-1346 184,-923 1193,-1391 298,-138 650,-324 785,-573 486,-901 -2141,-849 -2582,-1118 137,-232 363,-213 534,-730 359,-1085 275,-2155 -1163,-2290 -763,-71 -1562,326 -1673,923 -67,358 -16,202 -190,440 -87,118 -159,253 -80,410 139,277 128,-55 141,503 4,201 44,340 47,541 -405,112 -775,80 -1252,226 -506,154 -588,248 -989,453 -818,416 -1602,635 -1043,1498 -1861,140 -2850,-633 -2978,1405 -86,1365 -209,1372 283,1523 120,37 206,61 342,108 250,84 447,146 637,258 547,323 914,-18 1499,175l307 3132z"/>
   <path class="fil1" d="M9345 8745l-3 49c-200,-5 -140,-434 -139,-795 1,-282 -1,-564 -3,-845 -4,-490 50,-1300 -5,-1740l-291 -49 -235 442c233,-39 384,-52 564,154 -176,745 -1968,710 -1465,-662 42,-114 90,-272 142,-405 167,-427 171,-297 209,-297l118 -201c-58,-104 -54,-293 -18,-393 55,-154 184,-219 343,-270 172,-56 345,-82 523,-25 246,78 170,137 281,318 346,-112 774,-98 732,-565 -246,-78 -1357,-361 -1684,-155 -47,30 -874,814 -1511,468 -177,-96 -41,-145 -332,-360 -231,-171 -181,-121 -266,-436 -611,14 -1196,194 -1657,417 411,433 545,228 463,1234 131,145 75,67 257,173 266,155 582,396 735,667 313,554 38,385 774,1039 13,303 -49,347 -226,501 -73,63 -93,76 -139,144 -206,305 -26,260 -655,299 -185,771 234,882 -356,1217l-47 1866c307,103 3023,-127 3686,-555 419,-270 -112,-921 205,-1235z"/>
   <path class="fil2" d="M8657 18259c-18,-601 -196,-1277 -196,-1959 0,-585 -131,-1327 -194,-1897 -82,-731 -484,-2620 -203,-3311 58,-142 49,-209 129,-323 98,258 -118,415 -166,908 -30,306 283,2865 415,3041 138,-123 177,-240 240,-424 323,-939 189,-3047 119,-4011 -258,36 -400,109 -683,164 -664,131 -1639,197 -2321,231 -69,530 158,1628 277,2065 195,720 836,3939 965,4302 131,368 -74,1363 705,1380 101,3 248,-9 349,-22 205,-26 403,-77 564,-144z"/>
   <path class="fil3" d="M1070 5133c8,24 22,26 26,47l177 254c190,330 251,726 293,1098 55,476 48,1357 138,1715 304,4 917,50 1222,95 415,61 877,-18 1292,105l32 -861c-231,-35 -935,-61 -1176,-72 -493,-24 -580,187 -1055,102 -264,-755 354,-897 643,-645 243,213 264,121 660,139l1840 57c20,34 82,60 85,288l-59 1008c-264,33 -395,-57 -753,-19 38,-7 442,18 579,28 117,9 337,68 472,26 122,-39 85,-40 126,-68 188,-484 57,-2387 -229,-2888 -122,-215 -205,-244 -515,-286l-3798 -123z"/>
   <path class="fil4" d="M6078 18965c-896,147 -564,-238 -418,-798 -11,8 -24,20 -31,27 -423,375 -408,573 -876,455 -75,-226 -51,-416 -79,-671 -11,58 -163,214 -315,235 -244,34 -220,-48 -310,-207 -131,250 -230,421 -613,274 -179,-68 -337,-275 -429,-370 -5,958 -61,953 -1271,453 110,462 -66,720 -574,620 87,249 10,391 -260,415 492,156 681,274 1279,367 1117,173 3406,146 4351,-263 -289,59 -512,-97 -454,-537z"/>
   <path class="fil5" d="M6816 1618l-147 -426c-370,64 -710,611 -96,617 -168,321 -244,-116 -135,863 42,378 50,436 272,613l-59 -363c490,318 -99,1073 1175,625 228,-80 317,-119 400,-315 -9,110 -80,-85 -125,-190 956,251 217,-222 627,-714 89,91 101,-104 41,213 -24,126 -48,95 -61,271 1216,-860 346,-3000 -1362,-1376 -143,135 -266,223 -530,182z"/>
   <path class="fil6" d="M5829 7281c866,238 502,-952 397,-1203 -181,-436 -261,-501 -515,-766 -485,-507 -572,-458 -1163,-775 -153,-83 -345,-174 -456,-307 194,39 322,80 465,146 135,62 253,166 429,119 52,-359 -73,-696 -250,-891 -244,-267 -892,150 -1193,347 -250,162 -553,300 -526,666 63,838 1965,274 2382,657 394,362 377,1844 430,2007z"/>
   <path class="fil3" d="M1599 8200c-92,-537 -39,-2342 -530,-2820 -882,-859 -944,1682 -942,2078 1,386 238,358 596,451 304,79 627,301 876,291z"/>
   <path class="fil7" d="M10161 3766l218 8c16,4 30,9 45,13 15,5 33,13 45,17 13,5 31,11 45,19 -13,10 -35,2 -45,23l-90 38c-14,5 -28,9 -44,14l-1079 357c79,277 158,114 210,684 113,-12 825,-271 1000,-341 352,-140 694,-278 775,-675 -184,-267 -918,-632 -1080,-157z"/>
   <path class="fil6" d="M8119 4597c-103,448 -398,975 -184,1427 232,490 1084,266 1131,-63 -235,-81 -458,50 -667,99 65,-144 137,-333 207,-475 120,-243 452,-533 133,-975 -88,-122 -320,-214 -502,-214l-118 201z"/>
   <path class="fil8" d="M8311 4122c136,433 841,270 880,-66 39,-333 -667,-329 -880,66z"/>
   <path class="fil9" d="M1156 7329c-31,-52 -87,-38 -49,-185 32,-127 32,-84 149,-121 128,245 37,232 -100,306zm-802 -448l668 168 25 270c-120,-3 -302,-49 -426,-91 -199,-68 -254,-134 -267,-347zm-121 255c20,8 39,3 46,21 19,45 90,18 230,81 450,202 276,244 893,110 -6,-223 5,-272 -97,-435 -695,80 -543,-136 -1030,-167l-42 390z"/>
   <path class="fil9" d="M2061 6593l-32 -677c282,120 35,197 270,384l49 -54c77,-170 3,-167 107,-291 60,191 48,407 71,508 65,282 33,114 102,194 -7,-338 0,-763 -229,-953l-97 333c-222,-192 -98,-274 -402,-351 11,156 28,304 46,458 9,79 15,160 29,239l86 210z"/>
   <path class="fil9" d="M3008 5856c101,108 156,172 168,367l-176 8 8 -375zm-198 747c226,-98 92,-340 410,-287 154,482 -49,325 143,350 -124,-518 6,-760 -444,-1044 -27,167 15,288 -9,479 -22,172 -70,349 -100,502z"/>
   <path class="fil10" d="M6524 7029c237,-130 240,-324 74,-559 -113,-160 -40,-80 -206,-149 29,235 9,530 132,708z"/>
   <path class="fil9" d="M4201 6682c319,-90 370,23 565,-14 9,-1 25,-10 32,-12 7,-2 20,-10 30,-16 -149,-114 -319,-63 -550,-93 -38,-485 120,-565 -90,-720 -52,110 -48,-123 -31,145 3,44 30,146 36,219 12,154 2,332 8,491z"/>
   <path class="fil11" d="M3798 6676c-2,-301 63,-743 -186,-918 81,262 -13,744 186,918z"/>
   <path class="fil12" d="M7997 3452c-88,-235 -213,-276 -530,-242l530 242z"/>
   <path class="fil12" d="M8393 1898c44,-305 -45,-443 -305,-490 373,426 121,177 305,490z"/>
   <path class="fil13" d="M7868 1918c95,230 226,151 281,14 -148,-110 -279,-17 -281,-14z"/>
   <path class="fil13" d="M8863 2766l35 -149c-133,36 -65,-9 -141,117l106 32z"/>
  </g>
 </g>
</svg>
