<?xml version="1.0" encoding="UTF-8"?>
<!DOCTYPE svg PUBLIC "-//W3C//DTD SVG 1.1//EN" "http://www.w3.org/Graphics/SVG/1.1/DTD/svg11.dtd">
<!-- Creator: CorelDRAW X7 -->
<svg xmlns="http://www.w3.org/2000/svg" xml:space="preserve" width="100mm" height="100mm" version="1.1" style="shape-rendering:geometricPrecision; text-rendering:geometricPrecision; image-rendering:optimizeQuality; fill-rule:evenodd; clip-rule:evenodd"
viewBox="0 0 10000 10000"
 xmlns:xlink="http://www.w3.org/1999/xlink">
 <defs>
  <style type="text/css">
   <![CDATA[
    .fil3 {fill:#231F20}
    .fil6 {fill:#C5C5C5}
    .fil7 {fill:#DADADB}
    .fil2 {fill:#F0812F}
    .fil1 {fill:#F5F5F7}
    .fil0 {fill:#F7E1CD}
    .fil5 {fill:#FCF9C6}
    .fil4 {fill:#FEFCE1}
   ]]>
  </style>
 </defs>
 <g id="Laag_x0020_1">
  <metadata id="CorelCorpID_0Corel-Layer"/>
  <g id="_926069417584">
   <path class="fil0" d="M7075 6001c384,-243 615,353 296,516 -156,79 -351,16 -413,-100 -41,-78 -52,-160 -29,-252 40,-159 82,-123 146,-164zm-25 -404c283,-51 500,-2 554,222 -360,-148 -404,-94 -694,-46l140 -176zm-672 1489c1247,127 914,528 644,985 1540,1166 3569,-781 2473,-2389 -1015,-1491 -3469,-713 -3117,1404z"/>
   <path class="fil1" d="M2740 2434c371,-158 520,354 225,490 -169,77 -321,0 -370,-114 -102,-235 24,-324 145,-376zm-476 -1677c822,-758 1790,270 1031,799 -320,223 -222,210 -329,603l-370 4c-105,-885 581,-645 488,-1141 -225,-267 -412,-90 -656,14 -34,-87 -117,-209 -164,-279zm1949 -551c-264,-103 -1496,-45 -1889,-45 -1096,0 -914,-133 -914,982 0,445 -57,1525 2,1895 64,400 1137,74 1664,215 42,328 -36,648 -70,963 301,-141 501,-519 590,-978 250,-21 463,31 642,-81 92,-316 73,-2696 -25,-2951z"/>
   <path class="fil0" d="M2213 7361c866,-121 1034,391 406,508 -597,111 -1256,-388 -406,-508zm-57 -743c-144,-484 206,-625 384,-395 186,241 3,563 -384,395zm885 58c-281,-293 -131,-659 301,-495 93,262 80,302 -91,500l-210 -5zm-993 -700c80,-284 458,-355 617,-35 -364,-43 -204,-93 -617,35zm777 -35c101,-225 141,-165 364,-218 -156,-273 -553,-569 -978,-665 -1483,-336 -2520,1396 -1584,2649 462,619 1595,856 2298,190 494,-466 729,-1193 455,-1832 -122,-283 -345,-153 -555,-124z"/>
   <path class="fil1" d="M6783 404c728,-202 1249,247 1104,1014 -66,351 -247,411 -268,816 -24,466 94,599 -298,791 -291,142 -669,6 -776,-235 -113,-255 46,-596 -133,-957 -298,-605 -304,-1242 371,-1429zm1741 -211c-302,-75 -1239,-32 -1627,-32 -1166,0 -1199,-112 -1196,455 2,553 1,1107 1,1660 0,1170 -75,897 682,962 63,368 267,828 589,981 -36,-344 -109,-598 -75,-973 316,-58 1409,97 1594,-89 145,-146 85,-2796 32,-2964z"/>
   <path class="fil2" d="M223 10000l3254 0c-89,-313 -391,-657 -567,-793 -256,-198 -615,-339 -1027,-340 -772,-2 -1487,523 -1660,1133z"/>
   <path class="fil2" d="M6410 10000l3252 0c-117,-563 -899,-1114 -1602,-1133 -825,-23 -1444,507 -1650,1133z"/>
   <path class="fil3" d="M6378 7086c-352,-2117 2102,-2895 3117,-1404 1096,1608 -933,3555 -2473,2389 270,-457 603,-858 -644,-985zm-232 -130c110,606 127,152 901,506 32,242 -130,458 -342,554 94,343 1400,1002 2426,273 531,-377 280,-285 576,-564 76,-260 194,-394 265,-769 209,-1230 -781,-2256 -1912,-2254 -1143,3 -2119,1031 -1914,2254z"/>
   <path class="fil3" d="M2825 5941c210,-29 433,-159 555,124 274,639 39,1366 -455,1832 -703,666 -1836,429 -2298,-190 -936,-1253 101,-2985 1584,-2649 425,96 822,392 978,665 -223,53 -263,-7 -364,218zm-2800 975l77 191c181,641 266,529 494,903 221,111 494,508 1287,503 739,-4 965,-347 1311,-522 59,-141 194,-278 292,-460 100,-189 136,-343 188,-575 305,-1854 -1998,-2877 -3165,-1536 -562,646 -383,1063 -484,1496z"/>
   <path class="fil3" d="M8524 193c53,168 113,2818 -32,2964 -185,186 -1278,31 -1594,89 -34,375 39,629 75,973 -322,-153 -526,-613 -589,-981 -757,-65 -682,208 -682,-962 0,-553 1,-1107 -1,-1660 -3,-567 30,-455 1196,-455 388,0 1325,-43 1627,32zm-2983 263l2 2467c5,496 254,454 690,467 190,459 200,634 593,938 131,100 162,171 350,170 25,-314 -199,-760 -104,-1111 342,0 685,-2 1028,1 762,6 621,-262 622,-1395l2 -1577c0,-304 -115,-416 -423,-416l-2327 0c-300,0 -433,152 -433,456z"/>
   <path class="fil3" d="M4213 206c98,255 117,2635 25,2951 -179,112 -392,60 -642,81 -89,459 -289,837 -590,978 34,-315 112,-635 70,-963 -527,-141 -1600,185 -1664,-215 -59,-370 -2,-1450 -2,-1895 0,-1115 -182,-982 914,-982 393,0 1625,-58 1889,45zm-2964 210l2 2507c4,629 545,464 1655,464 85,387 -129,764 -105,1114 525,-24 824,-838 946,-1114 823,0 683,-175 683,-1435l1 -1415c0,-330 -77,-537 -423,-537l-2366 0c-285,0 -393,134 -393,416z"/>
   <path class="fil3" d="M7261 2846l-228 89c-118,-21 -100,-18 -149,-90 -170,-42 -192,-42 -203,-242 -8,-137 2,-312 2,-453l201 -4 149 0 250 -4 174 4c0,280 86,641 -196,700zm421 -1394c2,160 -116,406 -224,529l-802 0c-84,-182 -214,-369 -220,-584 -137,-140 -31,-531 66,-650 213,-262 880,-343 1150,39 105,149 159,519 30,666zm-899 -1048c-675,187 -669,824 -371,1429 179,361 20,702 133,957 107,241 485,377 776,235 392,-192 274,-325 298,-791 21,-405 202,-465 268,-816 145,-767 -376,-1216 -1104,-1014z"/>
   <path class="fil3" d="M2264 757c47,70 130,192 164,279 244,-104 431,-281 656,-14 93,496 -593,256 -488,1141l370 -4c107,-393 9,-380 329,-603 759,-529 -209,-1557 -1031,-799z"/>
   <path class="fil3" d="M6180 10000l230 0c206,-626 825,-1156 1650,-1133 703,19 1485,570 1602,1133l223 0c-153,-712 -1008,-1345 -1862,-1344 -942,0 -1629,629 -1843,1344z"/>
   <path class="fil3" d="M0 10000l223 0c173,-610 888,-1135 1660,-1133 412,1 771,142 1027,340 176,136 478,480 567,793l228 0c-216,-725 -919,-1360 -1864,-1345 -869,15 -1676,663 -1841,1345z"/>
   <path class="fil1" d="M6605 1467c118,563 1079,441 935,-238 -117,-556 -1078,-442 -935,238z"/>
   <path class="fil4" d="M6605 1467c-143,-680 818,-794 935,-238 144,679 -817,801 -935,238zm-169 -70c6,215 136,402 220,584l802 0c108,-123 226,-369 224,-529 -13,-137 64,-753 -625,-747 -236,2 -347,85 -461,216 -186,216 -89,203 -160,476z"/>
   <path class="fil3" d="M2213 7361c-850,120 -191,619 406,508 628,-117 460,-629 -406,-508z"/>
   <path class="fil5" d="M6436 1397c71,-273 -26,-260 160,-476 114,-131 225,-214 461,-216 689,-6 612,610 625,747 129,-147 75,-517 -30,-666 -270,-382 -937,-301 -1150,-39 -97,119 -203,510 -66,650z"/>
   <path class="fil3" d="M7075 6001c-64,41 -106,5 -146,164 -23,92 -12,174 29,252 62,116 257,179 413,100 319,-163 88,-759 -296,-516z"/>
   <path class="fil3" d="M2740 2434c-121,52 -247,141 -145,376 49,114 201,191 370,114 295,-136 146,-648 -225,-490z"/>
   <path class="fil3" d="M3041 6676l210 5c171,-198 184,-238 91,-500 -432,-164 -582,202 -301,495z"/>
   <path class="fil3" d="M2156 6618c387,168 570,-154 384,-395 -178,-230 -528,-89 -384,395z"/>
   <polygon class="fil1" points="7033,2935 7261,2846 7283,2142 7033,2146 "/>
   <path class="fil6" d="M6884 2845l0 -699 -201 4c0,141 -10,316 -2,453 11,200 33,200 203,242z"/>
   <path class="fil7" d="M7261 2846c282,-59 196,-420 196,-700l-174 -4 -22 704z"/>
   <path class="fil7" d="M6884 2845c49,72 31,69 149,90l0 -789 -149 0 0 699z"/>
   <path class="fil3" d="M6910 5773c290,-48 334,-102 694,46 -54,-224 -271,-273 -554,-222l-140 176z"/>
   <path class="fil3" d="M2048 5976c413,-128 253,-78 617,-35 -159,-320 -537,-249 -617,35z"/>
  </g>
 </g>
</svg>
