<?xml version="1.0" encoding="UTF-8"?>
<!DOCTYPE svg PUBLIC "-//W3C//DTD SVG 1.1//EN" "http://www.w3.org/Graphics/SVG/1.1/DTD/svg11.dtd">
<!-- Creator: CorelDRAW X7 -->
<svg xmlns="http://www.w3.org/2000/svg" xml:space="preserve" width="210mm" height="100mm" version="1.1" style="shape-rendering:geometricPrecision; text-rendering:geometricPrecision; image-rendering:optimizeQuality; fill-rule:evenodd; clip-rule:evenodd"
viewBox="0 0 21000 10000"
 xmlns:xlink="http://www.w3.org/1999/xlink">
 <defs>
  <style type="text/css">
   <![CDATA[
    .str0 {stroke:#2B2A29;stroke-width:20}
    .fil8 {fill:none}
    .fil0 {fill:#FEFEFE}
    .fil10 {fill:#C5C6C6}
    .fil5 {fill:#2B2A29}
    .fil138 {fill:#FFED00}
    .fil3 {fill:#86776F}
    .fil7 {fill:#E31E24}
    .fil1 {fill:#A2D9F7}
    .fil38 {fill:#090909}
    .fil62 {fill:#0C0B0B}
    .fil72 {fill:#0E0D0D}
    .fil67 {fill:#110D0D}
    .fil80 {fill:#120E11}
    .fil58 {fill:#121112}
    .fil64 {fill:#13110E}
    .fil78 {fill:#141413}
    .fil49 {fill:#151212}
    .fil20 {fill:#191616}
    .fil65 {fill:#191718}
    .fil46 {fill:#1A1819}
    .fil21 {fill:#1B1718}
    .fil57 {fill:#1B191A}
    .fil71 {fill:#1C191B}
    .fil74 {fill:#1D1B1C}
    .fil36 {fill:#1E191A}
    .fil14 {fill:#1E1C1D}
    .fil97 {fill:#1F1B1C}
    .fil24 {fill:#1F1D1E}
    .fil37 {fill:#211C1A}
    .fil33 {fill:#211F20}
    .fil42 {fill:#221E1F}
    .fil59 {fill:#222021}
    .fil66 {fill:#231C1B}
    .fil44 {fill:#231F1E}
    .fil70 {fill:#232122}
    .fil40 {fill:#242021}
    .fil17 {fill:#252120}
    .fil29 {fill:#252122}
    .fil25 {fill:#262221}
    .fil45 {fill:#262425}
    .fil118 {fill:#262428}
    .fil86 {fill:#272322}
    .fil11 {fill:#272324}
    .fil56 {fill:#272526}
    .fil13 {fill:#282425}
    .fil18 {fill:#282627}
    .fil41 {fill:#292526}
    .fil85 {fill:#2A221D}
    .fil106 {fill:#2A2529}
    .fil26 {fill:#2A2625}
    .fil54 {fill:#2A2627}
    .fil77 {fill:#2B2423}
    .fil101 {fill:#2B2728}
    .fil32 {fill:#2B2A2B}
    .fil28 {fill:#2C2829}
    .fil15 {fill:#2D2928}
    .fil19 {fill:#2D292A}
    .fil48 {fill:#2F2B2C}
    .fil12 {fill:#302C2D}
    .fil90 {fill:#311214}
    .fil23 {fill:#312D2E}
    .fil73 {fill:#322E2D}
    .fil69 {fill:#322E2F}
    .fil52 {fill:#332F30}
    .fil39 {fill:#333031}
    .fil87 {fill:#34302E}
    .fil84 {fill:#353032}
    .fil103 {fill:#362819}
    .fil27 {fill:#363233}
    .fil47 {fill:#363435}
    .fil22 {fill:#393636}
    .fil43 {fill:#3A3738}
    .fil30 {fill:#3D393A}
    .fil55 {fill:#3D3B3C}
    .fil98 {fill:#413D3D}
    .fil35 {fill:#423F40}
    .fil124 {fill:#443C3C}
    .fil76 {fill:#45352A}
    .fil107 {fill:#463936}
    .fil83 {fill:#493315}
    .fil94 {fill:#4B423D}
    .fil31 {fill:#4B4748}
    .fil50 {fill:#4C4443}
    .fil102 {fill:#534A45}
    .fil60 {fill:#534C4C}
    .fil105 {fill:#564539}
    .fil121 {fill:#564946}
    .fil61 {fill:#5A524C}
    .fil68 {fill:#5A5454}
    .fil110 {fill:#645A54}
    .fil53 {fill:#645D61}
    .fil114 {fill:#66554A}
    .fil82 {fill:#685133}
    .fil135 {fill:#6B5121}
    .fil79 {fill:#6B625C}
    .fil132 {fill:#74655B}
    .fil108 {fill:#756B68}
    .fil127 {fill:#7A7577}
    .fil51 {fill:#837D81}
    .fil117 {fill:#857669}
    .fil120 {fill:#857B78}
    .fil99 {fill:#8B7451}
    .fil113 {fill:#8B837A}
    .fil130 {fill:#8C878A}
    .fil131 {fill:#8F702E}
    .fil81 {fill:#938E91}
    .fil119 {fill:#948A89}
    .fil96 {fill:#968579}
    .fil129 {fill:#99928D}
    .fil63 {fill:#9A9597}
    .fil95 {fill:#A39DA1}
    .fil125 {fill:#A59A96}
    .fil128 {fill:#A98F5E}
    .fil123 {fill:#A9A29C}
    .fil112 {fill:#B09A8E}
    .fil134 {fill:#B6AAA7}
    .fil136 {fill:#B6AEB1}
    .fil137 {fill:#BDB4B3}
    .fil4 {fill:#BDD62E}
    .fil100 {fill:#C6B6AA}
    .fil109 {fill:#C6BBB7}
    .fil133 {fill:#C7BEC0}
    .fil104 {fill:#CCB6AC}
    .fil91 {fill:#CFAE62}
    .fil16 {fill:#D5CCCA}
    .fil92 {fill:#D6C6BA}
    .fil122 {fill:#D6CAC7}
    .fil115 {fill:#DDD4D2}
    .fil126 {fill:#E4D9D6}
    .fil93 {fill:#EBE4E3}
    .fil116 {fill:#F4EBE5}
    .fil88 {fill:#FBF4EC}
    .fil111 {fill:#FBF5F5}
    .fil34 {fill:#FCFCFC}
    .fil89 {fill:#FEFBF5}
    .fil75 {fill:#FEFDF9}
    .fil2 {fill:#2B2A29;fill-rule:nonzero}
    .fil6 {fill:#E31E24;fill-rule:nonzero}
    .fil9 {fill:#D2CDE7;fill-rule:nonzero}
   ]]>
  </style>
 </defs>
 <g id="Laag_x0020_1">
  <metadata id="CorelCorpID_0Corel-Layer"/>
  <polygon class="fil0 str0" points="20952,6501 20958,1792 20206,1107 17767,1089 17767,6501 "/>
  <rect class="fil1" x="3637" y="226" width="12516" height="7417"/>
  <path class="fil2" d="M3637 129l12516 0 98 0 0 97 0 7417 0 98 -98 0 -12516 0 -97 0 0 -98 0 -7417 0 -97 97 0zm12419 195l-12321 0 0 7222 12321 0 0 -7222z"/>
  <polygon class="fil3 str0" points="8427,3125 10982,3122 11354,3505 11363,4748 8427,4748 "/>
  <polygon class="fil4" points="18078,5129 20560,5133 20561,4298 18082,4292 "/>
  <path class="fil4" d="M18082 5234c-41,401 -5,746 327,835 40,10 242,28 277,6 45,-27 20,-199 20,-260 0,-179 13,-406 -2,-585l-622 4z"/>
  <path class="fil4" d="M19938 6076c250,49 446,-46 543,-186 105,-151 89,-425 78,-662l-626 8 5 840z"/>
  <path class="fil4" d="M20557 4193c23,-203 24,-509 -74,-642 -99,-134 -287,-236 -546,-184 -19,222 -1,494 -5,723 -3,133 -25,108 251,108 111,-1 269,8 374,-5z"/>
  <path class="fil4" d="M18330 4197c439,0 378,138 377,-552 -1,-325 33,-284 -123,-284 -541,-1 -504,413 -506,680 -2,185 -32,157 252,156z"/>
  <path class="fil4" d="M18812 5236c-12,213 0,443 -3,658 -3,192 -101,212 456,186l-3 -850 -450 6z"/>
  <path class="fil4" d="M19613 6083c45,0 104,3 145,2 61,-2 62,8 72,-49l-2 -804 -453 0 4 849 234 2z"/>
  <path class="fil4" d="M19373 4193c72,5 411,19 442,-13 48,-72 15,-290 15,-392 1,-474 67,-428 -217,-427 -78,0 -157,-3 -235,2l-5 830z"/>
  <path class="fil4" d="M18809 3645c0,676 -65,554 297,552l155 -2 3 -832c-552,-4 -455,-75 -455,282z"/>
  <polygon class="fil5 str0" points="8427,2926 10982,2929 11354,2538 11363,1269 8427,1269 "/>
  <rect class="fil3 str0" x="8988" y="2926" width="142" height="198"/>
  <rect class="fil3 str0" x="10463" y="2928" width="142" height="195"/>
  <g>
   <path class="fil6" d="M11891 3913l-34 -94 124 -47 117 -47 108 -46 99 -47 92 -46 83 -47 75 -46 67 -46 58 -46 50 -45 41 -44 33 -44 26 -42 17 -42 10 -40 4 -40 -4 -40 -10 -41 -18 -42 -25 -43 -33 -45 -42 -45 -49 -46 -59 -47 -66 -48 -75 -48 -84 -48 -91 -48 -100 -49 -108 -49 -117 -49 -124 -49 36 -93 126 50 119 50 110 50 103 50 95 50 87 50 78 50 72 51 63 51 55 51 48 52 39 53 32 54 23 55 14 56 5 57 -5 56 -14 56 -23 55 -32 53 -39 52 -48 52 -56 50 -63 50 -71 49 -79 49 -87 48 -95 48 -102 48 -111 48 -119 47 -126 48zm-563 150l471 -496 209 576 -680 -80z"/>
  </g>
  <g>
   <path class="fil6" d="M11942 4560l0 -100 5 0 16 0 27 0 38 0 49 0 60 0 70 0 81 0 93 0 103 0 113 0 125 0 136 0 146 0 157 0 168 0 179 0 190 0 200 0 211 0 223 0 233 0 244 0 254 0 266 0 276 0 288 0 298 0 309 0 319 0 331 0 341 0 0 100 -341 0 -331 0 -319 0 -309 0 -298 0 -288 0 -276 0 -266 0 -254 0 -244 0 -233 0 -223 0 -211 0 -200 0 -190 0 -179 0 -168 0 -157 0 -146 0 -136 0 -125 0 -113 0 -103 0 -93 0 -81 0 -70 0 -60 0 -49 0 -38 0 -27 0 -16 0 -5 0zm-581 -50l613 -307 0 613 -613 -306z"/>
  </g>
  <path class="fil7" d="M14821 4373l-74 0 0 -469c-18,17 -41,33 -70,50 -29,17 -55,30 -78,38l0 -71c42,-19 78,-43 109,-70 30,-28 52,-54 65,-80l48 0 0 602z"/>
  <path class="fil7" d="M13359 3311l0 70 -397 0c0,-17 3,-34 9,-51 10,-27 27,-53 49,-80 22,-26 55,-56 96,-90 65,-53 109,-96 132,-127 24,-31 35,-61 35,-89 0,-29 -10,-54 -31,-74 -21,-20 -49,-30 -82,-30 -36,0 -64,11 -86,32 -21,21 -32,51 -32,88l-75 -7c5,-57 24,-100 58,-129 34,-30 79,-45 136,-45 58,0 104,16 137,48 34,32 51,72 51,119 0,24 -5,47 -15,71 -10,23 -26,47 -49,73 -23,26 -61,61 -114,106 -44,37 -72,62 -85,75 -12,13 -23,27 -31,40l294 0z"/>
  <path class="fil8" d="M16153 6905c4516,1558 2138,2150 -7134,1777"/>
  <path class="fil9 str0" d="M16170 6858c1079,372 1769,691 2068,957 208,185 242,349 102,494 -123,127 -397,231 -821,311 -1322,249 -4156,287 -8502,112l4 -100c4338,175 7165,138 8479,-110 404,-76 660,-170 769,-283 91,-94 59,-211 -97,-349 -289,-257 -967,-570 -2035,-938l33 -94z"/>
  <rect class="fil10 str0" x="7782" y="8089" width="1339" height="1880"/>
  <g>
   <path class="fil11" d="M6202 3502l-4 13c16,93 -11,102 -31,119 -10,8 -9,2 -26,21l37 -8 48 95c44,48 10,47 38,110l55 144c1,36 -10,48 -10,47 0,-2 -3,9 -5,12 17,25 -7,4 14,4l11 -2c0,-1 2,-1 3,-1l2 109c38,14 -27,15 42,-33 -1,15 -4,79 -9,91 -31,80 -90,-13 -65,80l9 37c2,-93 32,-70 32,-70 32,93 8,321 -4,427 -27,-24 3,-16 -44,-34 -35,-12 -46,-10 -81,-14l76 60c23,17 11,24 54,37l-5 38c-14,134 -30,149 -172,148 -39,8 -25,16 -70,-34l-17 37c38,21 66,68 121,58l98 -8c3,0 6,-2 9,-3 53,-10 15,-22 47,3 14,153 -7,164 -1,257 6,82 -2,217 13,281 52,-32 2,-33 101,-36 2,-1 4,-8 4,-6l6 -14c1,-2 2,-6 3,-8 30,-83 13,-74 24,-118 -57,14 -6,-8 -28,34 -21,41 34,27 -32,35 0,-107 0,-168 42,-235 17,-27 6,5 18,-41 26,-91 -25,-119 73,-171 -3,-74 -30,-164 1,-240 66,127 -4,467 24,544 20,52 -12,9 35,47l0 -1125c-1,1 1,3 1,4 2,14 18,-3 40,1 -9,-33 2,-10 -16,-32 -26,-30 -5,-6 -31,-22l-7 -2c-1,0 -7,-2 -8,-2 -2,-1 -21,-6 -25,-7l0 604c-2,-3 -3,-8 -4,-11l-36 -85c-16,-61 5,-125 1,-182 -73,24 -13,29 -76,-5 0,5 -1,50 -1,52 -6,36 6,4 -11,28l10 -197c1,-2 2,-6 2,-8 8,-45 16,-58 39,-75 -34,-19 -48,12 -33,-131 2,-20 -10,-11 9,-29 18,-16 61,11 25,2 -19,-54 -4,-21 0,-57l-121 -88c1,-188 -13,-423 18,-602 -29,6 -43,-21 -46,115l-24 3c0,-41 7,-67 -6,-93l-6 162c-36,-33 -6,7 -21,-33 -15,-39 2,-77 -13,-106 -23,-46 14,-1 -32,-36 5,57 17,152 37,191l-23 10c-27,19 -21,31 -62,52 18,-149 2,-89 -16,-108z"/>
   <path class="fil12" d="M5972 4034c1,-4 16,-54 16,-55 10,-59 -5,16 -4,-33 49,-29 -7,-12 50,-24l12 109c73,-4 26,-5 49,13 -84,34 -127,19 -216,23 31,-93 -8,20 9,-40 13,-40 5,-21 40,-62 13,8 37,0 44,69zm-174 237l7 447c136,-7 79,84 79,106 -1,2 1,27 2,31 8,101 14,150 9,262 10,70 6,37 33,82 63,-13 12,-6 28,18 -18,60 -10,37 4,97l21 -17c4,-2 10,-5 16,-7 -34,66 -25,45 -25,121 25,-22 62,-17 13,-121 0,0 77,5 24,48 18,-68 4,-32 44,-48 -11,36 -29,59 -18,100l25 6c1,-2 5,-5 6,-7 4,-9 3,-15 4,-23l4 -25c16,-34 1,-14 31,-39l22 44c2,2 6,6 7,8 2,2 6,6 8,9 -18,42 -21,23 -37,56 39,-30 43,-21 61,-69 -2,-3 -8,-10 -9,-7 0,0 -27,-17 -40,-45 -15,-32 41,-24 -28,-48l22 -8c52,-24 32,-2 42,-32 1,-1 1,-79 1,-89 52,22 52,63 40,72 0,-95 0,-76 32,-89l-28 -64 -119 0 -25 -78 -37 -20c0,-1 10,-22 10,-25 7,-48 19,26 -6,-18 -14,-24 -2,32 -15,-31 -5,-22 -2,-26 -1,-48 -26,59 1,40 -21,34 -15,-26 -22,-41 -10,-83 12,-40 14,-14 22,-2 1,2 3,7 4,9l9 22c9,-98 31,-79 48,-89l-60 -14c-4,0 -8,1 -12,0l-24 -63c-26,-54 -58,-16 -44,-215 5,-66 15,-46 19,-157l-28 -13c-39,-20 -34,-9 -34,-74 54,-21 -16,-20 38,-99l143 17c-122,60 -2,75 -41,177 -19,52 -18,22 -54,48 41,9 36,30 81,16 -12,-39 -22,-28 -29,-83 -4,-32 -2,-88 -3,-122 46,16 48,-38 46,70l24 -60c7,42 17,102 2,129l9 -127c56,19 10,-5 38,58l38 -32c17,60 4,107 24,136l0 -235c35,28 40,10 37,121 -1,45 1,76 -7,121l19 33c0,20 -5,55 -5,75 0,51 12,106 13,170 0,18 -1,19 -8,29 16,-28 -2,-70 24,-101l5 86c-4,57 31,22 -15,36l-110 29c24,27 1,14 34,22 1,0 40,-4 50,-5l21 31c38,13 17,2 45,24 9,7 11,11 18,18 20,19 6,9 28,27l5 -38c-43,-13 -31,-20 -54,-37l-76 -60c35,4 46,2 81,14 47,18 17,10 44,34 12,-106 36,-334 4,-427 0,0 -30,-23 -32,70l-9 -37c-25,-93 34,0 65,-80 5,-12 8,-76 9,-91 -69,48 -4,47 -42,33l-2 -109c-1,0 -3,0 -3,1l-11 2c-21,0 3,21 -14,-4l-6 -52c-24,52 6,31 -35,59 3,-65 2,-62 -26,-114 -38,-72 -13,-59 -92,-73 1,-15 -10,-77 33,-25 -65,-3 -76,-2 -98,-48 2,-2 6,-4 8,-5l17 -9c4,-2 24,-9 29,-10 27,-8 28,-12 47,-6 -70,-8 -62,-19 -91,18 -4,-26 -8,-49 -9,-74l0 -47c-32,-9 -27,-3 -45,-7 -23,-6 -28,-10 -28,-10 -67,-19 -50,-6 -72,17 69,32 29,28 126,36 1,29 -4,93 -6,97 -19,36 -17,6 -71,7l-22 5c4,1 18,4 22,5l60 31c-272,-45 -120,52 -251,64l0 317c15,12 33,19 61,32l-57 8z"/>
   <path class="fil13" d="M5660 3749l-9 30c-1,3 -2,7 -2,11 -17,107 8,608 -3,745l-2 1215c1,24 1,50 2,74 1,7 2,25 4,32 5,28 3,16 8,22 25,-68 -5,-46 1,-140l10 -303c-3,-52 -15,-72 4,-134l9 -23c-19,120 -8,448 0,572 37,-15 33,-122 33,-164l79 -1 0 95c94,6 40,45 86,84 61,51 59,-32 59,110l20 -66c14,-46 29,-14 62,-95l4 70c37,-37 15,-20 59,0l4 -61c-70,32 -18,3 -41,-12l-111 -85c-19,40 0,34 -31,56l-8 -101c-33,-14 -45,-16 -76,-33 59,-24 22,-11 14,-68 -8,-52 5,-111 -7,-165 -14,-62 -26,-207 -22,-297l-1 -399 -7 -447c-17,6 -19,404 -19,448l-24 3c0,-13 1,-59 -2,-68 -28,-81 43,53 -17,-26l-18 -16c4,-2 9,-4 11,-5l26 -19c9,-11 7,-1 8,-23 1,-11 -10,-39 -13,-61 -18,-143 11,-248 11,-400 -1,-381 63,-233 139,-386 11,-23 14,-33 27,-49 -15,-49 -22,-18 -25,-73 18,-8 3,-4 28,6 -25,-68 -21,-33 24,-93 -110,15 -20,61 -150,209 -26,29 -2,8 -30,26l-29 16c-2,-3 -7,3 -11,6l0 88c0,-1 -2,-3 -3,-3l-30 -36c-1,-5 -4,-6 -7,-9 -5,24 -12,31 -12,31l-6 82c-6,45 4,27 6,56l-20 -124c-5,-62 7,-52 -2,-102z"/>
   <path class="fil14" d="M5126 6122c45,-11 59,-14 90,-49 35,27 8,-1 30,32 30,43 15,91 15,153l-90 94c-2,2 -4,7 -20,19 -62,48 -4,-37 -13,9 -51,23 -10,14 -67,11l26 -19c25,-37 -8,48 1,-18 7,-48 17,-23 24,-61 11,-52 -21,-34 -5,-126 0,-1 8,-36 9,-45zm-461 -542c-19,85 7,-9 -37,61l52 9c88,15 70,67 159,155 79,77 49,143 42,308l15 -24c1,-4 4,-7 5,-12 2,-5 3,-7 4,-12 10,-38 -8,-91 11,-117l28 -21c-12,16 -12,-1 16,57 55,-5 48,-13 60,-26l9 114c32,2 34,-2 60,16 -20,31 -21,38 -60,49 4,56 40,106 44,158 7,122 -48,27 -47,107 1,47 -5,8 15,32 116,12 131,19 169,-19 1,2 1,4 1,7l1 28c-1,26 7,0 -2,26l-288 33c55,-13 83,9 145,13 15,1 59,-3 59,-2 30,2 -1,-13 8,4l176 25c-19,-21 -33,-14 -74,-14 -90,1 -266,-14 -316,22 99,-2 323,-15 408,7l2 129c30,-24 10,7 23,-34 3,-12 2,-24 2,-36l0 -63c2,2 4,3 4,6 5,28 37,21 54,16 3,-1 7,-3 11,-5l-11 37c-2,26 -5,4 3,21 11,-12 -11,-27 61,-23 62,5 33,-1 57,33 -26,-11 25,-36 25,-36 10,47 9,98 52,117l1 -109c-3,-3 -6,-14 -7,-11 -14,22 -11,-19 -13,-22 -29,-52 -10,-22 -27,11l-6 -35c-39,15 -34,-18 -34,15 -1,-80 5,-7 -24,-39l-74 0c-19,-65 -19,-50 -87,-42 4,-51 8,-24 -4,-51 -20,-45 -43,-10 -4,-99 42,-95 12,-98 31,-167 -2,-1 -6,-8 -6,-6l-32 -52c24,92 -15,59 -18,62l-29 -55c-9,-24 -3,13 -7,-26 -2,-29 0,-18 4,-28l0 -181c-62,-14 -108,3 -229,-19 -28,-6 -105,-14 -126,-1 -66,-76 -13,-185 -18,-288l-14 -88c-23,21 -13,21 -26,64 -27,-38 3,-60 -26,-88l-31 -22 -38 -468 -5 -66c-23,-63 3,-57 6,-124 -21,20 -24,51 -29,65 -5,-132 46,-42 14,-216 -4,-24 -3,0 -2,-24 6,-122 -11,-347 28,-446 1,-2 2,-5 3,-7l94 -29c-36,-37 -32,-32 -100,-29 9,-9 6,-16 14,-28l-34 15c-8,106 -18,15 -48,117 0,1 15,1 17,0l17 -8c-16,32 0,-6 -18,23 -34,53 -18,230 -19,328 0,76 1,129 9,188l-9 538c-4,197 29,153 22,209l-7 32c0,56 26,55 26,55l-31 48c-28,14 35,16 -7,1l-43 -43z"/>
   <path class="fil15" d="M4997 5135c-5,30 -7,65 -7,82 -44,5 -19,-6 -61,5l7 -74 61 -13zm141 -1127c-35,21 -19,-46 -34,41l90 23c33,2 -1,8 41,0 65,-13 17,2 27,-14l11 25 32 9c-8,163 8,389 13,557 5,187 -12,384 -3,568 4,22 -2,223 -20,254 -39,-18 -18,-11 -27,-76 -36,19 -19,14 -55,-2 -3,87 8,42 -33,63l-16 -101c14,25 7,40 5,80 -55,-18 -35,-34 -74,-15 -49,24 -7,6 -26,19 -29,20 11,18 -17,10 -34,-14 -33,-2 -42,-53l3 -71c46,-14 6,11 48,21 46,10 32,13 37,-24 -20,-3 -71,-24 -82,-32 -26,-18 -25,0 -23,-33 3,-49 -2,-21 20,-21 20,-49 -2,20 1,-79 0,-6 1,-8 3,-12 56,24 46,57 45,58l4 -61c-58,-9 -60,-11 -105,-52 -50,-46 -57,-33 -77,-46l-11 19c-9,24 -12,5 -4,38 -3,-46 0,-66 -23,-86 -4,78 0,155 -15,250l-6 29c-1,2 -2,6 -2,8l2 26c54,100 0,47 55,89 58,45 31,19 79,87l57 -12c3,3 7,3 8,8l68 41c46,15 24,-2 82,-17 26,20 8,32 42,28l26 -16c72,107 58,22 126,81 14,12 16,19 36,34 17,-27 11,-16 13,-58l37 0c0,23 -3,47 3,68 7,31 2,6 10,26 39,95 -13,114 24,191l8 14c15,39 10,172 16,218 32,-31 14,0 26,-45l-1 -287c12,-74 9,-33 26,-52l11 161c0,-24 -2,-53 -2,-75 0,-4 0,-26 2,-31 11,-36 -3,-16 24,-40l-15 -330 -7 -25c0,-3 -1,-7 -2,-11 -13,-51 6,-35 -18,-39 -30,-57 -19,-219 -22,-285 14,40 1,110 -12,152l10 135c-1,1 -5,0 -5,1 -60,9 -24,21 -66,56 -33,-28 -11,-17 -23,-32 -17,-21 16,-3 -28,-28 -11,182 -25,69 -31,163 -56,-4 -59,-6 -59,-63l-3 -314 -6 -194c10,-214 -15,-481 10,-688 4,-47 6,-64 1,-111l-30 -96c30,8 20,6 39,16 65,33 8,19 57,32 9,-39 -3,-73 23,-110 35,-51 34,-6 34,-124 42,-11 23,-15 48,-22l22 -4c59,-11 36,-46 31,-111 -38,23 1,12 -28,-2 -147,-67 105,20 -40,-22 -21,32 -23,22 -41,57l-119 15c-4,106 -75,181 -93,234 -15,-37 7,-24 -53,-18 -10,37 -3,35 -37,35z"/>
   <path class="fil16" d="M4460 4100c15,47 35,1382 32,1396l-20 42c-2,-12 16,-743 -12,-820l0 992 18 -65c1,-3 3,-7 5,-10 2,94 6,189 8,284 3,99 -6,190 -4,284 -2,-3 -4,-12 -4,-10l-11 -33c-1,-4 -2,-7 -4,-11 -1,-5 -2,-9 -4,-12 -1,-4 -2,-8 -4,-12l0 630c34,-56 -15,-335 24,-396l11 286c2,1 4,-2 5,-1 10,39 -1,-2 15,0l19 6 6 -11c32,-61 30,-980 14,-1089 -35,-16 -9,1 -14,-21 -29,-19 -24,-11 -29,-57l-13 -1150c-2,-78 -15,-118 52,-125 -10,-189 1,-384 -11,-573 -9,-134 -4,-425 -41,-530 -35,-6 -23,2 -32,-53l-6 1 0 1058z"/>
   <path class="fil17" d="M5335 3044c-201,1 -100,10 -133,-20 24,0 59,-1 82,2l51 18zm-45 -56c19,14 10,-1 14,29l-239 -34c-16,23 27,26 -34,17 24,-5 52,-11 46,33l221 18 12 27 -5 23 43 5c-22,21 -4,13 -41,23 -1,1 -37,2 -40,3l-45 -2c27,22 -35,18 36,19l-24 19 25 26c2,-4 8,4 12,6l-68 6c22,2 22,16 43,27l-48 8c-33,9 -15,3 -36,17l175 32c-21,19 28,19 -54,21 -51,1 -109,-27 -123,-31 -45,-10 -114,15 -185,9l-79 -10c19,17 -18,13 35,17 -2,1 -6,3 -7,4l-15 24c66,-25 52,-5 104,-15l-8 26c63,18 21,3 101,3 -76,66 -46,15 -126,39 76,49 106,31 189,43 50,7 41,12 53,24l63 2c31,22 12,-5 22,27 -31,7 -16,9 -49,6 -66,-7 -6,0 -33,-13l-34 -2c-66,-11 -42,-22 -128,-19l-50 7c-3,-2 -6,-5 -7,-7 -2,-2 -5,-5 -8,-7l-14 -13c-16,-11 -20,-10 -40,-17 -57,-27 -28,11 -36,19l24 12c2,1 22,7 24,8 33,15 -3,-30 10,12l172 16c-33,25 -3,21 -64,20l0 17c22,1 41,0 63,3 0,0 27,6 29,6 18,7 16,10 25,16l55 8 27 3 22 12 37 -2c88,-12 61,10 63,-46 43,12 12,-2 33,45l73 -10c0,-123 -5,-38 36,-72l0 133c-3,-4 -16,0 7,-37l11 -14c23,-30 10,18 18,-21l5 -394c0,-2 1,-6 2,-8l0 -18c-1,-48 -19,-5 5,-76 -38,36 -30,51 -42,133 -63,-45 1,-26 -37,-23 -48,4 -39,6 -75,-13 2,-56 -2,-50 21,-99 -60,2 -27,6 -37,-17 -55,-10 -42,16 -86,-10 33,-23 -47,6 20,-7 33,-6 8,3 25,-2 84,-23 25,-7 54,-44 -32,-15 -8,-19 -64,-11l-6 16c-19,16 8,6 -39,21 -7,3 -23,3 -29,4z"/>
   <path class="fil18" d="M5363 6177c2,3 4,4 4,8l27 53c46,34 0,10 16,2 -7,48 -55,-2 -12,96l19 -12c58,-49 5,-34 47,-51 30,56 0,77 -2,80 3,1 7,0 9,4 8,23 -2,-8 43,22 4,30 10,62 16,96 14,79 24,10 29,85l6 35c17,-33 -2,-63 27,-11 2,3 -1,44 13,22 1,-3 4,8 7,11 -8,-77 15,-76 20,-83 1,-2 4,-5 5,-7 17,-34 1,-76 -2,-123l-33 -654 -1 -9c-27,24 -13,4 -24,40 -2,5 -2,27 -2,31 0,22 2,51 2,75l-11 -161c-17,19 -14,-22 -26,52l1 287c-12,45 6,14 -26,45 -6,-46 -1,-179 -16,-218l-8 -14c-37,-77 15,-96 -24,-191 -8,-20 -3,5 -10,-26 -6,-21 -3,-45 -3,-68l-37 0c-2,42 4,31 -13,58 -20,-15 -22,-22 -36,-34 -68,-59 -54,26 -126,-81l-26 16c-34,4 -16,-8 -42,-28 -58,15 -36,32 -82,17l-68 -41c-1,-5 -5,-5 -8,-8l-57 12c4,27 6,59 25,56l20 -4c14,-7 12,-11 18,-20 13,28 13,23 54,47 14,8 18,11 31,18l37 22c12,-36 -9,-36 30,-48 49,122 -23,47 116,154 38,29 -1,-1 31,18 34,21 33,6 39,62 7,67 -9,154 -2,198 9,56 19,107 5,170z"/>
   <path class="fil19" d="M6201 4993l-3 47 28 64c-32,13 -32,-6 -32,89 12,-9 12,-50 -40,-72 0,10 0,88 -1,89 -10,30 10,8 -42,32l-22 8c69,24 13,16 28,48 13,28 40,45 40,45 1,-3 7,4 9,7 -18,48 -22,39 -61,69 16,-33 19,-14 37,-56 -2,-3 -6,-7 -8,-9 -1,-2 -5,-6 -7,-8l-22 -44c-30,25 -15,5 -31,39l-4 25c-1,8 0,14 -4,23 -1,2 -5,5 -6,7l-25 -6c-11,-41 7,-64 18,-100 -40,16 -26,-20 -44,48 53,-43 -24,-48 -24,-48 49,104 12,99 -13,121 0,-76 -9,-55 25,-121 -6,2 -12,5 -16,7l-21 17c-14,-60 -22,-37 -4,-97 -16,-24 35,-31 -28,-18 -55,14 -13,96 -18,152 -7,84 -62,7 -32,227 12,83 15,-27 10,61l213 -3 136 -16c-2,-120 25,-125 62,-135 25,34 27,-48 19,60 -9,109 17,-77 -17,39 -10,36 27,65 46,80l6 -253 2 -426c-32,-25 6,-13 -47,-3 -3,1 -6,3 -9,3l-98 8z"/>
   <path class="fil20" d="M4540 5529c5,22 -21,5 14,21 26,-4 20,-11 24,10 60,-4 -23,-26 43,-5 8,2 35,20 44,25l43 43c42,15 -21,13 7,-1l31 -48c0,0 -26,1 -26,-55l7 -32c7,-56 -26,-12 -22,-209l9 -538c-8,-59 -9,-112 -9,-188 1,-98 -15,-275 19,-328 18,-29 2,9 18,-23l-17 8c-2,1 -17,1 -17,0 30,-102 40,-11 48,-117l34 -15 12 -4c-13,-28 -14,-25 -49,-5 -27,16 -23,32 -104,92 -35,27 -34,8 -43,65 2,-2 39,4 -6,-6 -28,-6 -6,-3 -41,-6 28,179 14,443 14,641 0,108 10,213 13,315 4,106 -14,213 -8,327 -44,18 -22,-16 -38,33z"/>
   <path class="fil21" d="M4633 6985c-34,-15 -16,-9 -35,-37l174 11c-28,50 -128,31 -139,26zm-173 -230l0 26 36 -4c-7,75 -4,10 -16,53 -7,24 -7,50 -9,75l13 0c89,49 84,100 87,93 1,-2 4,8 6,12 67,44 840,6 996,7 172,1 343,5 515,9 113,3 398,18 490,0 0,-32 -9,-26 20,-26 -1,0 -12,0 -18,-7 -25,-28 -27,28 9,-32 56,3 46,-4 91,-4 -8,-26 -7,1 2,-36 -140,11 -114,20 -243,-6 -46,-9 -56,8 -104,10 -31,2 -73,-5 -106,-5l58 -47c-95,9 -160,14 -263,14 57,16 19,-1 51,5 4,1 7,1 11,2 118,34 8,66 8,66l-941 0c-55,5 -42,13 -133,0 19,13 1,9 13,-21l-100 1c-24,-57 -20,-21 -41,-77l-9 5c-12,49 -2,18 -2,42 0,15 2,16 0,31l-56 3 -5 -31 -18 12c-47,23 -232,36 -242,-43l-22 -6c-20,-4 4,28 -18,-6 -13,-21 3,-44 31,-23l-1 -36c2,-29 9,-78 4,-104 -9,-44 3,6 -10,-24 0,-1 -3,-4 -3,-6 -1,-1 -3,-4 -4,-5 0,-1 -5,-10 -3,-22l-19 -6c-16,-2 -5,39 -15,0 -1,-1 -3,2 -5,1l-11 -286c-39,61 10,340 -24,396z"/>
   <path class="fil22" d="M5266 4102c14,17 11,7 18,37l-2 107c-40,-31 -24,-18 -44,-60 -5,60 -16,24 -68,25l-57 114c-40,-22 -51,-67 -82,-15 49,25 45,21 105,12 -3,4 -7,7 -10,10l-19 18c-43,46 -8,28 -42,50 -4,-31 11,-42 -37,-63l-1 80c0,-1 0,8 -2,12 -57,15 -25,22 -66,-21 -48,-51 38,-20 -24,-21l25 49 77 10c-15,44 13,8 -38,33 47,22 6,-1 34,25 -2,2 -5,6 -7,8l-26 20c65,-3 7,-4 37,17 13,24 25,33 76,39l14 66c10,44 4,40 14,86 -36,-34 -23,-5 -88,5 -31,-75 -102,-26 -206,-55l-6 71c-6,63 -16,-10 3,24l27 -27c43,-39 92,-51 143,-22 70,37 58,113 28,179 104,-31 55,-130 41,-180 3,2 51,-1 47,103 -2,42 -9,69 -33,93 44,-24 -48,11 29,-5 4,0 7,-1 11,-2l24 -6c4,0 9,-1 13,-3 2,-77 16,-30 0,-169 59,140 25,53 35,157 2,24 4,11 7,49 5,57 -17,79 -17,79 -8,21 -8,9 -11,42 17,61 10,66 42,101 4,-46 -4,-67 -2,-103l28 -66c2,-3 6,-6 7,-9 15,-18 -2,-147 3,-205l5 463 44 -37c-9,-184 8,-381 3,-568 -5,-168 -21,-394 -13,-557l-32 -9 -7 19z"/>
   <path class="fil23" d="M5549 3709c5,65 28,100 -31,111l-22 4c-25,7 -6,11 -48,22 0,118 1,73 -34,124 -26,37 -14,71 -23,110 -49,-13 8,1 -57,-32 -19,-10 -9,-8 -39,-16l30 96c5,47 3,64 -1,111 59,6 14,-5 45,21 4,4 23,24 29,31l30 29c2,2 69,25 18,140 -8,19 -30,19 -6,19 3,102 25,12 21,121 -5,130 4,4 27,121 -75,-16 -68,-35 -81,-20 -28,29 14,-26 8,65 -2,39 -4,-9 -10,47 2,2 5,6 7,7 1,2 5,5 7,6l33 4c-12,55 -17,47 -20,55 0,3 0,7 -1,9 -10,28 -88,30 -117,33l6 194 47 0 0 -97 54 -45c28,-66 -35,33 27,-20l14 -26c34,39 25,-19 7,25l-25 26c75,-16 50,-52 69,28 0,-8 1,-63 0,-71l-37 -50c36,-2 41,-6 73,-12 -13,-50 8,-22 -24,-49 18,16 -24,15 12,6 37,-8 0,-5 0,-6l0 221c3,66 -8,228 22,285 0,-110 -4,-214 -8,-324l1 -226c-8,-49 17,12 -22,-40 -2,-4 -5,-7 -7,-10 -2,-2 -6,-6 -8,-10 68,-20 25,-94 28,-247 5,-196 -1,-367 21,-568 10,-89 46,-167 39,-261 -25,26 -20,-31 -22,31 -22,12 17,9 -14,-11l-18 39z"/>
   <path class="fil24" d="M6287 3110c13,28 -3,38 12,16 -78,-2 -93,-3 -145,23 16,78 29,-8 31,51l-95 0 5 67 5 29c42,9 72,25 100,48l2 158c18,19 34,-41 16,108 41,-21 35,-33 62,-52l23 -10c-20,-39 -32,-134 -37,-191 46,35 9,-10 32,36 15,29 -2,67 13,106 15,40 -15,0 21,33l6 -162c13,26 6,52 6,93l24 -3c3,-136 17,-109 46,-115 5,-26 -3,-8 15,-29l85 -68c19,54 17,30 27,106 20,80 11,70 23,160 20,151 29,320 8,458 0,2 0,6 0,8 -1,2 0,6 -1,8 -2,26 4,11 -3,40l-2 21c22,26 52,50 76,66 21,-29 6,-138 6,-192 1,-73 -2,-144 -1,-218 3,-147 6,-291 10,-438 -25,25 -5,-34 -27,51 -10,40 3,56 -11,103l-18 38c-3,-30 3,-54 -4,-92 -7,-32 -22,-54 -26,-87 -9,-69 35,-81 69,-131l-56 16c-2,1 -5,3 -7,3l-59 31c-23,-22 -43,-20 -86,-28l-18 -3c-83,-21 -9,-27 -4,-55l-2 -25 0 -41c0,-62 7,-47 -11,-92l-15 -24c2,150 42,176 -95,179z"/>
   <path class="fil25" d="M5006 3678c-51,3 -47,9 -78,42l-20 -51c0,9 2,42 1,47 -4,47 -7,52 -25,74 -25,-35 -18,-68 -33,-91 -1,53 13,199 -2,238 -13,39 -90,104 -135,126l-11 -13c-9,23 14,21 -16,18l-38 43c-20,27 1,22 -48,30 -18,24 3,29 -51,56 -67,7 -54,47 -52,125l13 1150c5,46 0,38 29,57 16,-49 -6,-15 38,-33 -6,-114 12,-221 8,-327 -3,-102 -13,-207 -13,-315 0,-198 14,-462 -14,-641 35,3 13,0 41,6 45,10 8,4 6,6 9,-57 8,-38 43,-65 81,-60 77,-76 104,-92 35,-20 36,-23 49,5l94 -5c-79,-3 -36,-23 -37,-32 -3,-54 -2,-10 14,-35l68 -125c2,-3 10,-12 12,-15 27,-28 -20,2 27,-23l19 16c2,2 6,5 8,7l28 38 6 -18c0,-51 6,-46 -12,-88 -18,-51 -12,-55 -12,-112 39,-15 78,-1 84,-24 15,27 24,-11 -39,0 -2,0 -5,1 -7,2l-49 19z"/>
   <path class="fil26" d="M5035 3899c-21,102 -7,62 -1,145 -36,6 -51,27 -106,48l71 22c-80,20 -25,13 -24,28 1,2 2,6 3,8l10 54c-54,14 -37,-9 -72,11 -58,32 26,38 -61,22 7,50 14,27 -8,61 0,0 -38,-69 -48,170 -3,90 41,96 11,194 -62,204 -18,86 -44,236l-4 17 5 66c27,33 6,17 17,33 16,24 -5,14 27,30 30,-12 23,-3 35,-29 -6,-22 4,-8 -14,-36 -26,-41 -4,0 -23,-26 -14,-21 -17,-27 -16,-59 48,131 178,163 304,37 24,-24 31,-51 33,-93 4,-104 -44,-101 -47,-103 14,50 63,149 -41,180 -139,24 -183,44 -198,-130 -19,-34 -9,39 -3,-24l6 -71c37,-45 90,-46 145,-68 -15,-1 -26,-25 -27,-28 69,-7 22,-3 43,-20 -30,-6 -52,-12 -88,-20l-12 -220 72 5 11 -30c26,-89 -22,-40 35,-67l-88 -13 101 -17c2,0 6,2 8,2l17 9c1,-3 6,5 9,6 0,0 -15,-28 -15,-31l7 -29c35,12 39,13 67,50 -28,-66 14,-84 -57,-89 59,-23 135,22 191,-28l7 -19 -11 -25c-10,16 38,1 -27,14 -42,8 -8,2 -41,0l-90 -23c15,-87 -1,-20 34,-41l-31 -19c-4,-32 33,26 -54,19 -5,-21 -12,-49 -16,-77 -9,-71 -5,-38 4,-50l-6 18z"/>
   <path class="fil27" d="M6016 4569c47,1 30,14 65,-17l7 66c-40,-7 -37,-13 -79,-3l-2 -54c-1,-3 -1,-8 -2,-10 0,-3 -1,-8 -1,-11l24 10c-2,3 -9,16 -12,19zm41 142c31,-46 30,7 24,-56 55,31 4,-12 25,18l35 -14c-2,-2 -7,-11 -9,-9 -1,2 -6,-7 -8,-10 -1,-2 -5,-6 -6,-9 -15,-38 3,-14 5,-57 6,-86 -32,-52 -63,-58 30,-58 8,-50 2,-63 -2,-3 -5,-5 -6,-8 -15,-23 -23,-15 -23,-47l63 15c37,0 2,11 34,-6l0 -36c-27,-16 -73,4 -99,-13 31,-25 -9,-2 27,-12 73,-20 80,18 84,-60l36 72c-83,62 -9,72 -2,109l9 120 62 1c-1,-64 -13,-119 -13,-170 0,-20 5,-55 5,-75l-19 -33c8,-45 6,-76 7,-121 3,-111 -2,-93 -37,-121l0 235c-20,-29 -7,-76 -24,-136l-38 32c-28,-63 18,-39 -38,-58l-9 127c15,-27 5,-87 -2,-129l-24 60c2,-108 0,-54 -46,-70 1,34 -1,90 3,122 7,55 17,44 29,83 -45,14 -40,-7 -81,-16 36,-26 35,4 54,-48 39,-102 -81,-117 41,-177l-143 -17c-54,79 16,78 -38,99 0,65 -5,54 34,74l28 13c-4,111 -14,91 -19,157 -14,199 18,161 44,215l24 63c4,1 8,0 12,0l60 14z"/>
   <path class="fil13" d="M5585 3040c-24,71 -6,28 -5,76l0 18c-1,2 -2,6 -2,8l-5 394c-8,39 5,-9 -18,21l-11 14c-23,37 -10,33 -7,37l0 -133c-41,34 -36,-51 -36,72l-73 10c-21,-47 10,-33 -33,-45 -2,56 25,34 -63,46l-37 2c0,3 3,45 3,49 -3,35 6,15 -12,33l-39 -7c4,-28 -1,-20 16,-35 -13,-22 1,-19 -29,-31l-13 8c-51,4 -64,-9 -128,-3l-31 -30 -57 8c-26,32 -20,-24 3,8 8,10 12,17 13,14 1,-2 6,6 8,10l-6 -3 112 8 54 25 -56 11 -44 -5c51,38 84,24 110,25 35,1 9,-3 42,8 3,1 16,6 19,7 3,1 9,8 11,4 2,-3 8,3 12,5 -36,11 20,24 -45,89 -2,2 -5,4 -7,6l-25 22c-2,1 -5,4 -7,5 -2,2 -4,4 -6,6 -39,36 -30,45 -58,87 -42,-19 7,3 -24,-20 -13,-10 5,-5 -23,-16l-35 66c-5,-70 16,-87 -24,-121 18,42 12,37 12,88 -9,12 -13,-21 -4,50 4,28 11,56 16,77 87,7 50,-51 54,-19l31 19c34,0 27,2 37,-35 60,-6 38,-19 53,18 18,-53 89,-128 93,-234l119 -15c18,-35 20,-25 41,-57 145,42 -107,-45 40,22 29,14 -10,25 28,2l18 -39c31,20 -8,23 14,11 2,-62 -3,-5 22,-31 -9,-69 6,-253 14,-328 7,-64 0,-73 -10,-149 -11,-96 -12,-79 -1,-169 -40,21 -30,-11 -21,36z"/>
   <path class="fil14" d="M6468 5487c0,105 3,76 25,154 -31,3 -25,-22 -57,24 8,16 20,12 45,89 40,-32 9,-50 20,-93 33,23 19,10 4,20 38,45 -21,17 38,12 22,-9 11,-6 22,-17 2,-1 5,-4 6,-5l12 -13c66,-80 -2,-197 45,-268 -1,67 -20,151 7,206l44 -40c4,-5 9,-18 10,-19l15 -18c2,-3 6,-8 9,-11l3 -134c-45,14 -33,17 -32,73 -23,-75 9,0 -57,-36 28,-146 2,-294 10,-448l-11 -447c18,-14 -37,-37 60,-18l0 -58c-10,11 -17,7 -48,-21l17 -10c2,-2 6,-4 8,-5 16,-12 23,5 23,-70 -27,-7 5,6 -27,-7l-33 -17 42 -18c66,-26 -27,28 18,-6l2 -73 -9 -19c-22,-4 -38,13 -40,-1 0,-1 -2,-3 -1,-4l0 1125c-47,-38 -15,5 -35,-47 -28,-77 42,-417 -24,-544 -31,76 -4,166 -1,240 -98,52 -47,80 -73,171 -12,46 -1,14 -18,41 -42,67 -42,128 -42,235 66,-8 11,6 32,-35 22,-42 -29,-20 28,-34 -11,44 6,35 -24,118 -1,2 -2,6 -3,8l-6 14c0,-2 -2,5 -4,6z"/>
   <path class="fil28" d="M5954 3509c-45,60 -49,25 -24,93 -25,-10 -10,-14 -28,-6 3,55 10,24 25,73 -13,16 -16,26 -27,49 -76,153 -140,5 -139,386 0,152 -29,257 -11,400 3,22 14,50 13,61 -1,22 1,12 -8,23l-26 19c-2,1 -7,3 -11,5l18 16c60,79 -11,-55 17,26 3,9 2,55 2,68l24 -3c0,-44 2,-442 19,-448l57 -8c-28,-13 -46,-20 -61,-32l0 -317c131,-12 -21,-109 251,-64l-60 -31c-4,-1 -18,-4 -22,-5l22 -5c54,-1 52,29 71,-7 2,-4 7,-68 6,-97 -97,-8 -57,-4 -126,-36 22,-23 5,-36 72,-17 0,0 5,4 28,10 18,4 13,-2 45,7l0 47c1,25 5,48 9,74 29,-37 21,-26 91,-18 -19,-6 -20,-2 -47,6 -5,1 -25,8 -29,10l-17 9c-2,1 -6,3 -8,5 22,46 33,45 98,48 -43,-52 -32,10 -33,25 79,14 54,1 92,73 28,52 29,49 26,114 41,-28 11,-7 35,-59l6 52c2,-3 5,-14 5,-12 0,1 11,-11 10,-47l-55 -144c-28,-63 6,-62 -38,-110l-48 -95 -37 8c-54,1 -168,47 -195,-85 30,-14 73,-36 91,-12 20,26 -61,-8 20,69 70,-35 36,-79 71,-140 -19,20 -5,3 -20,25 0,1 -13,25 -15,28l-48 -25c-17,-1 -23,5 -36,13 -1,-4 -1,-17 -2,-20 -12,-33 18,9 -16,-26 -15,20 -4,17 -37,27z"/>
   <path class="fil29" d="M5897 3358c53,9 -23,-10 27,6 3,1 8,9 11,6 2,-3 6,6 9,8 -8,115 -30,0 -36,89 -101,-3 -46,-12 -100,-33 -36,-14 -67,-2 -104,-14l-34 128c46,1 27,27 31,-34 1,8 5,41 4,45 -4,26 -4,13 -10,23 -34,55 31,-6 -13,9 -5,-48 14,-107 -22,-140 -1,92 -28,215 0,298 9,50 -3,40 2,102l20 124c-2,-29 -12,-11 -6,-56l6 -82c0,0 7,-7 12,-31 3,3 6,4 7,9l30 36c1,0 3,2 3,3l0 -88c4,-3 9,-9 11,-6l29 -16c28,-18 4,3 30,-26 130,-148 40,-194 150,-209 33,-10 22,-7 37,-27 34,35 4,-7 16,26 1,3 1,16 2,20 13,-8 19,-14 36,-13l48 25c2,-3 15,-27 15,-28 15,-22 1,-5 20,-25l-10 -49 -61 -8 -52 -71c-7,-20 -4,-4 -6,-36l142 10 3 50c10,26 9,48 24,79 14,30 22,23 30,53l4 -13 -2 -158c-28,-23 -58,-39 -100,-48l-5 -29c-49,0 -94,5 -126,23 -4,2 -31,25 -40,34 -22,24 -4,15 -32,34z"/>
   <path class="fil30" d="M4673 5797c18,-30 12,-45 12,-90 58,23 75,52 103,90 61,84 28,95 23,304l-13 173c-1,3 -2,6 -4,9l1 122c0,44 0,33 -9,66 -1,1 -9,23 -10,28 -9,27 -2,-2 -8,29 -85,7 -13,23 -88,45l1 -771c-41,39 1,-4 -26,45l-13 -171c68,38 1,-12 31,121zm-95 -237c88,293 -14,737 10,1071 28,-33 38,-479 38,-530 0,-40 -6,-105 7,-139 13,-32 5,-17 24,-37 0,115 4,230 3,345l3 255c1,26 4,52 -11,72l24 12c32,-21 66,-46 92,-81 44,-13 70,-43 101,-77l7 -188 5 -150c7,-165 37,-231 -42,-308 -89,-88 -71,-140 -159,-155l-52 -9c44,-70 18,24 37,-61 -9,-5 -36,-23 -44,-25 -66,-21 17,1 -43,5z"/>
   <path class="fil31" d="M5586 5411l15 330 1 9 42 0 2 -1215 -17 -310c-3,-101 -8,-202 -1,-303 -48,21 -42,2 -46,60 -20,317 -9,309 -9,643l13 786z"/>
   <path class="fil32" d="M6543 5693c-12,25 -27,58 -45,86 -20,31 -25,33 -55,44l-23 5c69,13 38,20 48,178 18,-19 23,-13 21,-49 -5,-79 -56,-13 20,-166l41 -7c63,162 1,356 60,648 14,73 -21,123 84,159l-19 -950c-15,17 -23,-22 -28,72 -2,48 3,22 -13,68 -45,-18 -9,8 -31,-22l-14 -82c36,-10 54,-33 78,-54l3 18c30,-27 16,-41 9,-85l-44 40c-27,-55 -8,-139 -7,-206 -47,71 21,188 -45,268l-12 13c-1,1 -4,4 -6,5 -11,11 0,8 -22,17z"/>
   <path class="fil33" d="M6353 5411c24,72 -12,155 -3,229l10 47c-3,116 16,3 19,101l-80 3c-19,57 -32,72 -92,84 40,22 15,-5 16,39 2,91 -15,75 -41,79 -27,5 2,-21 -35,-1 65,46 2,77 31,116l45 22c1,2 4,5 7,7 -57,36 -28,-26 -121,15 -7,11 -6,13 11,17 -67,0 -6,-3 -33,16l42 -4 83 3 27 -16c32,-11 21,-12 14,24l21 -10c0,-49 2,-40 -17,-81 4,-2 11,-2 12,-3 1,-1 5,-2 6,-3 18,-16 12,-30 24,-58l73 0 23 -56c18,45 25,55 23,102l2 -255 23 -5c30,-11 35,-13 55,-44 18,-28 33,-61 45,-86 -59,5 0,33 -38,-12 15,-10 29,3 -4,-20 -11,43 20,61 -20,93 -25,-77 -37,-73 -45,-89 32,-46 26,-21 57,-24 -22,-78 -25,-49 -25,-154 -99,3 -49,4 -101,36 -15,-64 -7,-199 -13,-281 -6,-93 15,-104 1,-257l-2 426z"/>
   <path class="fil30" d="M5606 3004c-11,90 -10,73 1,169 10,76 17,85 10,149 -8,75 -23,259 -14,328 7,94 -29,172 -39,261 -22,201 -16,372 -21,568 -3,153 40,227 -28,247 2,4 6,8 8,10 2,3 5,6 7,10 39,52 14,-9 22,40l-1 226c4,110 8,214 8,324 24,4 5,-12 18,39 1,4 2,8 2,11l7 25 -13 -786c0,-334 -11,-326 9,-643 4,-58 -2,-39 46,-60 -7,101 -2,202 1,303l17 310c11,-137 -14,-638 3,-745 0,-4 1,-8 2,-11l9 -30c-28,-83 -1,-206 0,-298l-2 -78c-1,-48 -1,-81 3,-128 6,-84 -13,-235 -18,-313 -18,-15 -11,-7 -39,-17l2 89z"/>
   <path class="fil29" d="M4902 5583l42 -2 0 72c41,15 118,14 180,23 -2,2 -7,1 -8,5 -8,19 -69,5 -87,32 42,27 158,22 209,59l52 42c33,35 30,99 29,154 -1,97 29,75 12,109 -30,57 2,-2 -28,32 -8,-59 7,-17 -28,-37 -4,10 -6,-1 -4,28 4,39 -2,2 7,26l29 55c3,-3 42,30 18,-62l32 52c0,-2 4,5 6,6 14,-63 4,-114 -5,-170 -7,-44 9,-131 2,-198 -6,-56 -5,-41 -39,-62 -32,-19 7,11 -31,-18 -139,-107 -67,-32 -116,-154 -39,12 -18,12 -30,48l-37 -22c-13,-7 -17,-10 -31,-18 -41,-24 -41,-19 -54,-47 -6,9 -4,13 -18,20l-20 4c-19,3 -21,-29 -25,-56 -48,-68 -21,-42 -79,-87 -55,-42 -1,11 -55,-89l-2 -26c0,-2 1,-6 2,-8l6 -29c15,-95 11,-172 15,-250 -12,26 -5,17 -35,29 -32,-16 -11,-6 -27,-30 -11,-16 10,0 -17,-33l38 468 31 22c29,28 -1,50 26,88 13,-43 3,-43 26,-64l14 88z"/>
   <path class="fil34" d="M4813 6645l6 97 208 8 11 7c12,-8 6,-8 28,-15 0,0 34,-6 35,-6 103,-11 143,46 226,-4l3 -39 -2 -129c-85,-22 -309,-9 -408,-7l-106 19 -1 69z"/>
   <path class="fil35" d="M6679 5556c7,44 21,58 -9,85l5 0 19 950c-105,-36 -70,-86 -84,-159 -59,-292 3,-486 -60,-648 -28,79 -40,7 -43,86 0,29 6,75 6,110l18 423c7,68 7,33 28,75l17 63c1,-2 2,7 3,10 2,2 4,3 5,6l24 21c20,15 23,14 37,23 44,30 37,38 93,52l-25 -1145c-3,3 -7,8 -9,11l-15 18c-1,1 -6,14 -10,19z"/>
   <path class="fil36" d="M5709 6536l-7 -46 150 -13c3,-1 6,-3 8,-4 2,-1 5,-2 8,-3 35,-11 -5,-3 25,-6 1,0 46,0 53,0l-38 32c-3,2 -10,9 -13,11 -28,24 -1,8 -13,10 41,-6 72,-3 112,-6l21 -2c12,0 2,-3 30,0 3,1 6,1 10,2l38 13c-11,0 -63,-2 -73,-1l-60 23 393 -2c-7,-37 -10,-19 -37,-51l-24 -26c0,-2 -3,-3 -5,-3l-22 2c-6,8 -6,17 -29,23 -36,10 -29,-2 -41,-8 -4,-3 -23,-13 -29,-17 -61,6 -41,24 -112,16 -18,-17 -5,21 -21,-22l25 -11 145 -7 36 -13c3,-36 -8,-8 23,-53 -1,-1 -42,-7 -44,-7 -36,-10 -32,-16 -37,-19l-15 5 -132 -16c6,-37 -2,-12 29,-54 -29,6 -64,21 -57,-13 -26,-31 39,-26 -31,-26l-74 -9 -11 160 -162 -3c-43,-21 -1,-1 -22,-33l3 177z"/>
   <path class="fil37" d="M5659 2849c110,0 62,-8 94,53 16,33 31,44 64,66 -38,-60 -54,-7 -58,-83l80 -9c20,25 5,-21 24,44 47,-14 42,-31 100,40l15 -5 67 -11c35,-47 -29,-29 43,-43l-19 2 -60 2c9,-14 22,-33 27,-41l7 -14c0,-1 1,-3 2,-5 77,-2 65,29 145,25 62,-3 103,-13 159,12 -22,19 31,9 -37,14 -31,3 -16,-7 -61,3l-44 9c71,-21 23,15 5,30l75 1c63,-3 42,-38 102,-22l1 -28c-61,4 -18,6 -32,-19 13,-9 -16,-33 25,5l63 -20 34 -12c4,-1 8,-2 11,-3 9,-2 21,-2 36,-6 -74,-39 -26,21 -59,-48 98,-4 193,-24 198,29l-82 14 149 41c2,-3 5,-13 6,-11 1,2 7,-12 10,-21 4,-12 4,-7 5,-26l-20 -51 -443 0 -377 34c-20,0 -26,-7 -63,-6 -10,23 25,-19 3,19 -22,37 9,-5 -35,20 76,17 73,-10 124,15l-37 51c-3,2 -6,3 -10,5 -46,19 32,3 -45,8 26,-71 -29,-29 61,-56l-253 -2z"/>
   <path class="fil38" d="M6441 6772l21 0 3 37c-21,15 42,28 -42,5 20,4 24,-10 33,23l-5 21 -7 -4c-21,22 -1,8 -35,15 -20,5 -29,3 -42,3 -27,0 -53,2 -80,1l-58 47c33,0 75,7 106,5 48,-2 58,-19 104,-10 129,26 103,17 243,6 79,-18 11,-25 66,-68l-7 -72 0 -82c-35,36 1,8 -18,52l-30 48c-45,-158 36,-110 -106,-188 -47,-26 -19,-21 -94,-25 -35,79 35,41 -46,59l13 10c1,1 4,4 5,6 13,18 3,-2 9,14 7,22 4,17 1,43 -42,26 38,-15 -18,4 -34,11 4,-10 -18,8l2 42z"/>
   <path class="fil12" d="M5320 5121l3 314c0,57 3,59 59,63 6,-94 20,19 31,-163 44,25 11,7 28,28 12,15 -10,4 23,32 42,-35 6,-47 66,-56 0,-1 4,0 5,-1l-10 -135c13,-42 26,-112 12,-152l0 -221c0,1 37,-2 0,6 -36,9 6,10 -12,-6 32,27 11,-1 24,49 -32,6 -37,10 -73,12l37 50c1,8 0,63 0,71 -19,-80 6,-44 -69,-28l25 -26c18,-44 27,14 -7,-25l-14 26c-62,53 1,-46 -27,20l-54 45 0 97 -47 0z"/>
   <path class="fil17" d="M4802 4073l-12 4c-8,12 -5,19 -14,28 68,-3 64,-8 100,29l-94 29c-1,2 -2,5 -3,7 -39,99 -22,324 -28,446 -1,24 -2,0 2,24 32,174 -19,84 -14,216 5,-14 8,-45 29,-65 -3,67 -29,61 -6,124l4 -17c26,-150 -18,-32 44,-236 30,-98 -14,-104 -11,-194 10,-239 48,-170 48,-170 22,-34 15,-11 8,-61 87,16 3,10 61,-22 35,-20 18,3 72,-11l-10 -54c-1,-2 -2,-6 -3,-8 -1,-15 -56,-8 24,-28l-71 -22c55,-21 70,-42 106,-48 -6,-83 -20,-43 1,-145l-28 -38c-2,-2 -6,-5 -8,-7l-19 -16c-47,25 0,-5 -27,23 -2,3 -10,12 -12,15l-68 125c-16,25 -17,-19 -14,35 1,9 -42,29 37,32l-94 5z"/>
   <path class="fil39" d="M5314 4927c29,-3 107,-5 117,-33 1,-2 1,-6 1,-9 3,-8 8,0 20,-55l-33 -4c-2,-1 -6,-4 -7,-6 -2,-1 -5,-5 -7,-7 6,-56 8,-8 10,-47 6,-91 -36,-36 -8,-65 13,-15 6,4 81,20 -23,-117 -32,9 -27,-121 4,-109 -18,-19 -21,-121 -24,0 -2,0 6,-19 51,-115 -16,-138 -18,-140l-30 -29c-6,-7 -25,-27 -29,-31 -31,-26 14,-15 -45,-21 -25,207 0,474 -10,688z"/>
   <path class="fil17" d="M6716 5374l-7 -1161 -21 0 -2 73c-45,34 48,-20 -18,6l-42 18 33 17c32,13 0,0 27,7 0,75 -7,58 -23,70 -2,1 -6,3 -8,5l-17 10c31,28 38,32 48,21l0 58c-97,-19 -42,4 -60,18l11 447c-8,154 18,302 -10,448 66,36 34,-39 57,36 -1,-56 -13,-59 32,-73z"/>
   <path class="fil40" d="M5658 5878c30,25 17,19 24,65l30 -66 0 97 79 0 11 -134c27,15 47,25 61,60l28 87c13,32 9,49 9,85 123,9 93,21 109,-20 64,15 8,-3 37,28 57,5 34,22 55,-32l-8 21c15,-12 16,3 12,-21l-32 -44c2,-3 4,-7 6,-9l24 -54 85 0c-13,-29 -11,-18 -83,-20l-17 -169 1 -64 -1 134 -4 61c-44,-20 -22,-37 -59,0l-4 -70c-33,81 -48,49 -62,95l-20 66c0,-142 2,-59 -59,-110 -46,-39 8,-78 -86,-84l0 -95 -79 1c0,42 4,149 -33,164 -8,-124 -19,-452 0,-572l-9 23c-19,62 -7,82 -4,134l-10 303c-6,94 24,72 -1,140z"/>
   <path class="fil41" d="M5234 2866l48 -8 131 -2c40,-11 68,-6 112,-9 102,-7 16,-20 100,-27 -14,26 -25,57 -21,95 28,10 21,2 39,17 5,78 24,229 18,313 -4,47 -4,80 -3,128l13 -116c5,-55 11,-149 1,-204l-13 -204 253 2c-90,27 -35,-15 -61,56 77,-5 -1,11 45,-8 4,-2 7,-3 10,-5l37 -51c-51,-25 -48,2 -124,-15 44,-25 13,17 35,-20 22,-38 -13,4 -3,-19 37,-1 43,6 63,6l377 -34 -1355 0 411 44c-39,25 5,2 -31,12 -40,11 -56,19 -103,9 0,0 -30,-9 -31,-10 12,22 21,37 52,50z"/>
   <path class="fil42" d="M5275 6072c35,20 20,-22 28,37 30,-34 -2,25 28,-32 17,-34 -13,-12 -12,-109 1,-55 4,-119 -29,-154l-52 -42c-51,-37 -167,-32 -209,-59 18,-27 79,-13 87,-32 1,-4 6,-3 8,-5 -62,-9 -139,-8 -180,-23l0 -72 -42 2c5,103 -48,212 18,288 21,-13 98,-5 126,1 121,22 167,5 229,19l0 181z"/>
   <path class="fil34" d="M6287 2939c-2,1 -6,4 -8,5 -2,1 -6,3 -8,4l-55 20c-28,9 -39,11 -74,13l-164 -26 -15 5 -96 25c-18,150 8,128 142,127 88,-1 179,2 266,-2l12 0c137,-3 97,-29 95,-179l7 -14c-60,-16 -39,19 -102,22z"/>
   <path class="fil43" d="M5097 4931c-126,126 -256,94 -304,-37 -1,32 2,38 16,59 19,26 -3,-15 23,26 18,28 8,14 14,36 23,20 20,40 23,86 -8,-33 -5,-14 4,-38l11 -19c20,13 27,0 77,46 45,41 47,43 105,52 50,20 39,27 35,75 -53,27 -25,-11 -53,34 -34,-9 -26,9 -35,-15 -22,0 -17,-28 -20,21 -2,33 -3,15 23,33 11,8 62,29 82,32 53,0 18,-21 51,72 1,2 2,7 4,10l9 -265c-15,32 8,110 18,148l6 21c18,-47 8,-176 2,-235 3,-33 3,-21 11,-42 0,0 22,-22 17,-79 -3,-38 -5,-25 -7,-49 -10,-104 24,-17 -35,-157 16,139 2,92 0,169 -4,2 -9,3 -13,3l-24 6c-4,1 -7,2 -11,2 -77,16 15,-19 -29,5z"/>
   <path class="fil44" d="M4460 2808l0 234 6 -1c42,-22 12,11 33,-65 2,3 5,4 6,8l33 31c-24,-79 -45,-159 31,-170l143 -6c58,18 39,13 74,56l0 -34c14,-22 -13,-36 62,-18 45,10 42,-9 33,28l31 4 47 -15 129 -3 25 -1 13 -17c68,9 -7,36 108,27 -31,-13 -40,-28 -52,-50 1,1 31,10 31,10 47,10 63,2 103,-9 36,-10 -8,13 31,-12l-411 -44 -439 0 -37 47z"/>
   <path class="fil45" d="M6101 5636c27,-15 146,5 190,5 -67,44 -101,35 -198,36 -62,1 -151,-3 -196,3 111,-2 173,-2 283,7 -6,33 -14,54 -16,97 -46,5 -43,-1 -76,-32l17 169c72,2 70,-9 83,20l-85 0 -24 54c-2,2 -4,6 -6,9l32 44c4,24 3,9 -12,21 0,9 0,20 2,25 0,2 2,5 3,7l15 22 65 -15c-29,-39 34,-70 -31,-116 37,-20 8,6 35,1 26,-4 43,12 41,-79 -1,-44 24,-17 -16,-39 60,-12 73,-27 92,-84l80 -3c-3,-98 -22,15 -19,-101l-10 -47c-9,-74 27,-157 3,-229l-6 253c-19,-15 -56,-44 -46,-80 34,-116 8,70 17,-39 8,-108 6,-26 -19,-60 -37,10 -64,15 -62,135l-136 16z"/>
   <path class="fil14" d="M5742 6170l109 -9 0 121c-67,0 -51,5 -108,-24l-1 -88zm304 -90c1,39 -17,39 -62,63 -91,-35 -33,-9 -90,-49 -35,-23 -50,-22 -87,-1 -44,24 -19,20 -97,20l-26 161c-18,54 -4,139 -2,202 1,34 2,63 6,91 5,36 10,43 8,84l-3 86 23 -77 -7 -124 -3 -177c21,32 -21,12 22,33l162 3 11 -160 74 9c70,0 5,-5 31,26l39 12 -25 -48c0,-1 -2,0 -3,-1 4,5 -27,11 25,4 34,-4 3,2 29,-10 -30,-70 -33,4 -38,-102l80 -2 -15 -22c-1,-2 -3,-5 -3,-7 -2,-5 -2,-16 -2,-25l8 -21c-21,54 2,37 -55,32z"/>
   <path class="fil12" d="M6414 3345c-31,179 -17,414 -18,602l121 88c30,29 0,13 47,26 -18,-20 -8,-7 2,-12l2 -21 -53 -19c22,-61 5,-1 28,-42l-38 -32c24,-56 -30,51 24,-25 33,-47 9,-59 18,-141 10,-90 11,-49 -27,-92l-25 -30c17,131 -6,98 -25,116 -22,-83 -27,-231 -13,-324 35,-56 -41,37 15,-14l69 -71c-10,-76 -8,-52 -27,-106l-85 68c-18,21 -10,3 -15,29z"/>
   <path class="fil20" d="M4876 6263l-7 188c-31,34 -57,64 -101,77 -26,35 -60,60 -92,81 65,19 -8,-22 94,23 23,10 -4,4 43,13l1 -69 106 -19c50,-36 226,-21 316,-22 41,0 55,-7 74,14l-176 -25c-9,-17 22,-2 -8,-4 0,-1 -44,3 -59,2 -62,-4 -90,-26 -145,-13l288 -33c9,-26 1,0 2,-26l-1 -28c0,-3 0,-5 -1,-7 -38,38 -53,31 -169,19 -22,-8 -30,-9 -49,-18 0,-112 23,-238 -48,-290 -22,41 -23,75 -26,133l-23 -89 -19 93z"/>
   <path class="fil40" d="M5286 6926c-33,6 -240,16 -253,13 -12,30 6,34 -13,21 91,13 78,5 133,0l941 0c0,0 110,-32 -8,-66 -4,-1 -7,-1 -11,-2 -32,-6 6,11 -51,-5 103,0 168,-5 263,-14 27,1 53,-1 80,-1 13,0 22,2 42,-3 34,-7 14,7 35,-15 -41,-7 -16,10 -39,-13 85,-13 21,-7 46,17l5 -21c-9,-33 -13,-19 -33,-23 84,23 21,10 42,-5 -55,-34 -21,-35 -83,-41l7 32c0,-2 0,5 0,12l-99 18c-1,0 -2,4 -3,6 -54,-20 10,-6 -34,-23 -56,-23 -28,15 -8,38l-31 17c-65,-8 -101,6 -157,3 -39,-2 -96,-16 -138,-21 -58,19 -20,25 -56,79 -56,-3 -137,-9 -181,-10 13,-39 7,-51 41,-68l-41 -12c-16,23 -11,34 -41,54l-7 -106c-5,-26 -2,-16 -9,-36 -7,-19 -11,-20 -14,-25 1,64 12,34 -13,64 27,46 33,14 48,145 -54,-8 -45,-13 -98,-12l-262 3z"/>
   <path class="fil46" d="M6274 6182l-21 10c5,9 9,5 8,29 -2,26 -2,10 -11,23l-53 -7c-11,8 -25,3 -36,6 -17,7 -6,2 -24,13l64 21 40 6c-35,32 -14,16 22,32l-34 3c41,22 47,17 57,53l-24 3c-31,45 -20,17 -23,53l8 23 42 1 -2 13c2,0 5,1 5,3l24 26c27,32 30,14 37,51 -31,40 -44,38 -100,49l-3 16 23 -1c59,-3 84,-2 126,-40l-2 81c0,0 29,7 25,-66 -2,-63 4,-46 -39,-58 18,-1 39,-8 45,-9l29 -5c40,0 32,23 95,37 -34,-64 -60,-54 -103,-96l-17 -134 -18 -30c-9,-22 -2,-56 -30,-91 -3,4 -5,9 -7,12l-13 34c-1,1 -4,26 -4,29 -11,-14 -23,28 -11,-49 8,-51 46,-15 39,-118 -128,23 -25,74 -77,141 -2,-3 -5,-6 -6,-8 -1,-2 -4,-6 -5,-9 -1,-3 -2,-6 -2,-10l13 -58c-32,33 2,13 -37,21z"/>
   <path class="fil36" d="M5671 3257l19 -74 19 119c24,0 53,3 74,-5l14 -8c3,-2 5,-4 8,-5 19,-10 -34,-9 39,-16l0 94c43,12 27,5 48,36l5 -40c28,-19 10,-10 32,-34 9,-9 36,-32 40,-34 32,-18 77,-23 126,-23l-5 -67 95 0c-2,-59 -15,27 -31,-51 52,-26 67,-25 145,-23 -15,22 1,12 -12,-16l-12 0c-48,12 -114,-6 -169,11 -57,18 6,17 -52,22l-141 20c-2,0 -6,1 -8,1 -2,1 -6,1 -7,1l-59 3c-3,0 -7,0 -10,0l-135 -7c-2,-29 -6,-35 -7,-59 -1,-20 2,-25 0,-49l-15 0c10,55 4,149 -1,204z"/>
   <path class="fil47" d="M6420 5828l-2 255 14 235 17 134c43,42 69,32 103,96l27 3c-1,-3 -2,-12 -3,-10l-17 -63c-21,-42 -21,-7 -28,-75l-18 -423c0,-35 -6,-81 -6,-110 3,-79 15,-7 43,-86l-41 7c-76,153 -25,87 -20,166 2,36 -3,30 -21,49 -10,-158 21,-165 -48,-178z"/>
   <path class="fil48" d="M5008 4574c65,4 9,6 29,-25 -30,-21 28,-20 -37,-17l26 -20c2,-2 5,-6 7,-8 -28,-26 13,-3 -34,-25 51,-25 23,11 38,-33l-77 -10 -25 -49c62,1 -24,-30 24,21 41,43 9,36 66,21 2,-4 2,-13 2,-12l1 -80c48,21 33,32 37,63 34,-22 -1,-4 42,-50l19 -18c3,-3 7,-6 10,-10 -60,9 -56,13 -105,-12 31,-52 42,-7 82,15l57 -114c52,-1 63,35 68,-25 20,42 4,29 44,60l2 -107c-7,-30 -4,-20 -18,-37 -56,50 -132,5 -191,28 71,5 29,23 57,89 -28,-37 -32,-38 -67,-50l-7 29c0,3 15,31 15,31 -3,-1 -8,-9 -9,-6l-17 -9c-2,0 -6,-2 -8,-2l-101 17 88 13c-57,27 -9,-22 -35,67l-11 30 -72 -5 12 220c36,8 58,14 88,20z"/>
   <path class="fil18" d="M4601 4141c49,-8 28,-3 48,-30 -3,-30 9,-63 9,-103 -1,-48 -9,-66 -11,-110 -5,-77 -4,-163 -6,-242 -4,-153 -10,-303 -9,-459 69,20 76,49 125,79l28 -12 -69 -61c-37,-32 -47,-31 -93,-50 -70,-29 -32,-29 -82,-58 -4,74 19,24 27,102 4,38 -2,91 0,133 15,241 49,577 33,811z"/>
   <path class="fil20" d="M5672 3053l15 0c2,24 -1,29 0,49 1,24 5,30 7,59l135 7c3,0 7,0 10,0l59 -3c1,0 5,0 7,-1 2,0 6,-1 8,-1l141 -20c58,-5 -5,-4 52,-22 55,-17 121,1 169,-11 -87,4 -178,1 -266,2 -134,1 -160,23 -142,-127l-50 -17c-33,-22 -48,-33 -64,-66 -32,-61 16,-53 -94,-53l13 204z"/>
   <path class="fil49" d="M6446 2855l192 4c0,1 0,4 0,4l10 21c1,1 8,8 16,11l-21 128c-8,-8 -117,-55 -165,-23l-17 -57c-2,4 -6,8 -7,12l-17 56c-12,-13 15,17 -8,-14l-23 -27c-1,38 -8,56 2,77l0 41 2 25 1 -49c3,2 17,11 20,11l41 5c5,0 32,-5 38,-4 2,29 16,73 52,66 51,-10 28,-48 41,-103 33,23 22,21 9,61l50 -20c-7,7 -9,8 -16,20 -9,16 -7,8 -15,34l48 -14c1,-4 2,-9 4,-11 9,-13 5,-8 17,-19l21 -14 9 -199 3 -7 -149 -41 82 -14c-5,-53 -100,-33 -198,-29 33,69 -15,9 59,48 -15,4 -27,4 -36,6 -3,1 -7,2 -11,3l-34 12z"/>
   <path class="fil42" d="M5658 5878c-5,87 -1,332 26,396l26 -161c78,0 53,4 97,-20 37,-21 52,-22 87,1 57,40 -1,14 90,49 45,-24 63,-24 62,-63 -29,-31 27,-13 -37,-28 -16,41 14,29 -109,20 0,-36 4,-53 -9,-85l-28 -87c-14,-35 -34,-45 -61,-60l-11 134 -79 0 0 -97 -30 66c-7,-46 6,-40 -24,-65z"/>
   <path class="fil14" d="M6632 4140c-4,-10 6,-2 -15,-27 -20,-26 3,2 -18,-18 -20,-17 -17,-11 -35,-34 -47,-13 -17,3 -47,-26 -4,36 -19,3 0,57 36,9 -7,-18 -25,-2 -19,18 -7,9 -9,29 -15,143 -1,112 33,131 -23,17 -31,30 -39,75 0,2 -1,6 -2,8l-10 197c17,-24 5,8 11,-28 0,-2 1,-47 1,-52 63,34 3,29 76,5 4,57 -17,121 -1,182l36 85c1,3 2,8 4,11l0 -604c4,1 23,6 25,7 1,0 7,2 8,2l7 2z"/>
   <path class="fil50" d="M4550 4197c54,-27 33,-32 51,-56 16,-234 -18,-570 -33,-811 -2,-42 4,-95 0,-133 -8,-78 -31,-28 -27,-102l-43 -1c37,105 32,396 41,530 12,189 1,384 11,573z"/>
   <path class="fil51" d="M4687 4068c30,3 7,5 16,-18 -27,-38 -13,-56 -10,-97 3,-50 -7,-160 57,-198 8,13 19,-1 12,82l-2 115c21,-36 12,-21 15,-101l-4 -292c-11,-112 5,-144 -41,-233 -37,-73 -19,-70 -76,-72l0 40c0,1 9,19 10,23 23,45 25,55 18,118 -15,130 -10,305 -14,439 0,16 0,202 19,194z"/>
   <path class="fil52" d="M5188 5073c6,59 16,188 -2,235l-6 -21c-10,-38 -33,-116 -18,-148l-9 265c-2,-3 -3,-8 -4,-10 -33,-93 2,-72 -51,-72 -5,37 9,34 -37,24 -42,-10 -2,-35 -48,-21l-3 71c9,51 8,39 42,53 28,8 -12,10 17,-10 19,-13 -23,5 26,-19 39,-19 19,-3 74,15 2,-40 9,-55 -5,-80l16 101c41,-21 30,24 33,-63 36,16 19,21 55,2 9,65 -12,58 27,76 18,-31 24,-232 20,-254l-44 37 -5 -463c-5,58 12,187 -3,205 -1,3 -5,6 -7,9l-28 66c-2,36 6,57 2,103 -32,-35 -25,-40 -42,-101z"/>
   <path class="fil38" d="M4550 6811l1 36c-28,-21 -44,2 -31,23 22,34 -2,2 18,6l22 6c147,24 -28,22 105,45 86,15 46,-41 126,-7l-10 -101c-4,-32 -12,-10 -1,-73l-35 22c12,-44 -27,16 17,-24l-6 -46c-33,-51 1,-22 -26,-41 -21,-14 -51,-8 -74,-3l-81 27 68 36c-51,-30 -10,-17 -81,-21 8,50 16,72 -12,115z"/>
   <path class="fil53" d="M4649 4111l38 -43c-19,8 -19,-178 -19,-194 4,-134 -1,-309 14,-439 7,-63 5,-73 -18,-118 -1,-4 -10,-22 -10,-23l0 -40c57,2 39,-1 76,72 46,89 30,121 41,233l4 292c-3,80 6,65 -15,101l-7 56c94,-54 49,-171 47,-229 -5,-138 3,-272 -11,-414 -9,-86 0,-27 -32,-89 -49,-30 -56,-59 -125,-79 -1,156 5,306 9,459 2,79 1,165 6,242 2,44 10,62 11,110 0,40 -12,73 -9,103z"/>
   <path class="fil54" d="M5897 5680c45,-6 134,-2 196,-3 97,-1 131,8 198,-36 -44,0 -163,-20 -190,-5l-213 3c5,-88 2,22 -10,-61 -30,-220 25,-143 32,-227 5,-56 -37,-138 18,-152 -27,-45 -23,-12 -33,-82l-89 0c-4,90 8,235 22,297 12,54 -1,113 7,165 8,57 45,44 -14,68 31,17 43,19 76,33z"/>
   <path class="fil51" d="M4673 5797l8 5 -1 771c75,-22 3,-38 88,-45 6,-31 -1,-2 8,-29 1,-5 9,-27 10,-28 9,-33 9,-22 9,-66 -3,2 -4,6 -5,8 -18,27 -24,41 -52,54 -21,-26 -8,6 -16,-41 -5,-32 7,-14 -5,-97 -4,-23 -34,-466 9,-514 73,8 31,-11 44,40 53,207 -12,257 24,428 2,-3 3,-6 4,-9l13 -173c5,-209 38,-220 -23,-304 -28,-38 -45,-67 -103,-90 0,45 6,60 -12,90z"/>
   <path class="fil55" d="M5612 6617l-1 109c3,5 7,6 14,25 7,20 4,10 9,36 50,-24 30,20 35,-57 2,-17 1,-66 3,-91l24 12c2,-41 -3,-48 -8,-84 -4,-28 -5,-57 -6,-91 -2,-63 -16,-148 2,-202 -27,-64 -31,-309 -26,-396 -5,-6 -3,6 -8,-22 -2,-7 -3,-25 -4,-32 -1,-24 -1,-50 -2,-74l-42 0 33 654c3,47 19,89 2,123 -1,2 -4,5 -5,7 -5,7 -28,6 -20,83z"/>
   <path class="fil56" d="M6568 4028c7,-29 1,-14 3,-40 1,-2 0,-6 1,-8 0,-2 0,-6 0,-8 21,-138 12,-307 -8,-458 -12,-90 -3,-80 -23,-160l-69 71c-56,51 20,-42 -15,14 -14,93 -9,241 13,324 19,-18 42,15 25,-116l25 30c38,43 37,2 27,92 -9,82 15,94 -18,141 -54,76 0,-31 -24,25l38 32c-23,41 -6,-19 -28,42l53 19z"/>
   <path class="fil20" d="M5709 6536l7 124c79,2 14,19 59,46 29,17 40,-21 76,-49 4,6 18,3 -12,24l34 8 2 -66c52,4 28,1 45,16l26 -10 51 4c25,-41 -2,-28 60,-36 -59,15 -34,-8 -65,-17 -33,-10 -57,0 -92,-3 -16,-24 -16,12 -13,-27l73 -4 60 -23c10,-1 62,1 73,1l-38 -13c-4,-1 -7,-1 -10,-2 -28,-3 -18,0 -30,0l-21 2c-40,3 -71,0 -112,6 12,-2 -15,14 13,-10 3,-2 10,-9 13,-11l38 -32c-7,0 -52,0 -53,0 -30,3 10,-5 -25,6 -3,1 -6,2 -8,3 -2,1 -5,3 -8,4l-150 13 7 46z"/>
   <path class="fil17" d="M5006 3678l49 -19c2,-1 5,-2 7,-2 63,-11 54,27 39,0 -6,23 -45,9 -84,24 0,57 -6,61 12,112 40,34 19,51 24,121l35 -66c28,11 10,6 23,16 31,23 -18,1 24,20 28,-42 19,-51 58,-87 2,-2 4,-4 6,-6 2,-1 5,-4 7,-5l25 -22c2,-2 5,-4 7,-6 65,-65 9,-78 45,-89 -4,-2 -10,-8 -12,-5 -2,4 -8,-3 -11,-4 -3,-1 -16,-6 -19,-7 -33,-11 -7,-7 -42,-8 -26,-1 -59,13 -110,-25l0 -10 -50 0 -59 -5 16 51c1,4 3,8 5,11 1,3 4,7 5,11z"/>
   <path class="fil37" d="M4851 3699c15,23 8,56 33,91 18,-22 21,-27 25,-74 1,-5 -1,-38 -1,-47l20 51c31,-33 27,-39 78,-42 -1,-4 -4,-8 -5,-11 -2,-3 -4,-7 -5,-11l-16 -51 -34 -9c-1,0 -43,-12 -48,-13 3,-5 6,-10 9,-13 50,-47 38,-7 67,-51 -43,-2 -43,4 -80,-20 57,-45 31,21 180,-4 61,1 31,5 64,-20l-172 -16c-13,-42 23,3 -10,-12 -2,-1 -22,-7 -24,-8l-24 -12c8,-8 -21,-46 36,-19l-8 -10 -52 -32c11,-22 -38,-17 36,-17 -4,-9 -6,-24 -12,-31l-76 0 19 381z"/>
   <path class="fil20" d="M4716 3203l69 61c57,38 6,47 47,54l76 0c6,7 8,22 12,31l60 28c80,-24 50,27 126,-39 -80,0 -38,15 -101,-3l8 -26c-52,10 -38,-10 -104,15l15 -24c1,-1 5,-3 7,-4 -53,-4 -16,0 -35,-17 2,-2 5,-8 5,-6l72 -32 -28 -5c-11,-7 -38,-24 -46,-31 -38,-28 -16,15 -29,-48 71,10 39,24 110,48 10,-94 -4,18 11,-36 12,-42 3,-11 1,-12 45,6 21,43 60,-1 -72,-38 -123,1 -133,-39 -1,-5 -4,-7 -7,-10l-60 11 -67 -6 -1 -202c-15,18 -6,0 -17,33 -20,60 -7,140 20,193 -82,-9 -38,-11 -52,27 3,-3 15,-10 19,-11l19 -3c42,3 3,-6 27,16 -49,3 -23,-1 -48,12 -3,2 -6,4 -9,6l-27 20z"/>
   <path class="fil57" d="M4881 6113l-5 150 19 -93 23 89c3,-58 4,-92 26,-133 71,52 48,178 48,290 19,9 27,10 49,18 -20,-24 -14,15 -15,-32 -1,-80 54,15 47,-107 -4,-52 -40,-102 -44,-158 39,-11 40,-18 60,-49 -26,-18 -28,-14 -60,-16l-9 -114c-12,13 -5,21 -60,26 -28,-58 -28,-41 -16,-57l-28 21c-19,26 -1,79 -11,117 -1,5 -2,7 -4,12 -1,5 -4,8 -5,12l-15 24z"/>
   <path class="fil58" d="M4538 3015l-33 -31c-1,-4 -4,-5 -6,-8 -21,76 9,43 -33,65 9,55 -3,47 32,53l43 1c50,29 12,29 82,58 46,19 56,18 93,50l27 -20c3,-2 6,-4 9,-6 25,-13 -1,-9 48,-12 -24,-22 15,-13 -27,-16l-19 3c-4,1 -16,8 -19,11 14,-38 -30,-36 52,-27 -27,-53 -40,-133 -20,-193 11,-33 2,-15 17,-33 59,9 24,2 38,20 23,-11 2,0 24,-11 1,-1 6,-1 7,-5 1,-3 5,-2 7,-4l-2 -14 -18 -8 -54 7c-35,-43 -16,-38 -74,-56 -1,3 -6,3 -6,8 -7,41 -45,-16 1,47 2,3 6,8 7,10 2,3 6,6 8,10 -41,39 10,46 -75,77l-1 119c-61,-29 -63,-24 -139,-32 39,-36 20,-1 31,-63z"/>
   <path class="fil20" d="M5355 6623c2,6 4,17 5,19l30 37c34,15 113,-12 127,31 0,2 2,6 2,7l1 29c0,2 1,5 1,6l0 38 -106 4c-29,8 -18,5 -35,17l86 -1c51,5 95,-10 123,9 29,20 11,2 22,35l-63 -4 -12 52c-68,14 -56,5 -110,-5 -41,-8 -85,-6 -129,-9 -7,10 -7,25 -11,38l262 -3c53,-1 44,4 98,12 -15,-131 -21,-99 -48,-145 25,-30 14,0 13,-64 -43,-19 -42,-70 -52,-117 0,0 -51,25 -25,36 -24,-34 5,-28 -57,-33 -72,-4 -50,11 -61,23 -8,-17 -5,5 -3,-21l11 -37c-4,2 -8,4 -11,5 -17,5 -49,12 -54,-16 0,-3 -2,-4 -4,-6l0 63z"/>
   <path class="fil49" d="M6397 6649c-46,-24 -60,-26 -110,-32l-34 28 121 29 24 -4 11 28c-14,33 -11,20 -31,32l-135 -26c-9,34 15,15 -22,27 48,32 81,50 156,24l64 17 -2 -42c22,-18 -16,3 18,-8 56,-19 -24,22 18,-4 3,-26 6,-21 -1,-43 -6,-16 4,4 -9,-14 -1,-2 -4,-5 -5,-6l-13 -10c81,-18 11,20 46,-59 75,4 47,-1 94,25 142,78 61,30 106,188l30 -48c19,-44 -17,-16 18,-52l-3 -46c-56,-14 -49,-22 -93,-52 -14,-9 -17,-8 -37,-23l-24 -21c-1,-3 -3,-4 -5,-6l-27 -3c-63,-14 -55,-37 -95,-37l-29 5c-6,1 -27,8 -45,9 43,12 37,-5 39,58 4,73 -25,66 -25,66z"/>
   <path class="fil59" d="M5559 6560c-5,-75 -15,-6 -29,-85 -6,-34 -12,-66 -16,-96 -45,-30 -35,1 -43,-22 -2,-4 -6,-3 -9,-4 2,-3 32,-24 2,-80 -42,17 11,2 -47,51l-19 12c-43,-98 5,-48 12,-96 -16,8 30,32 -16,-2l-27 -53c0,-4 -2,-5 -4,-8 -19,69 11,72 -31,167 -39,89 -16,54 4,99 12,27 8,0 4,51 68,-8 68,-23 87,42l74 0c29,32 23,-41 24,39 0,-33 -5,0 34,-15z"/>
   <path class="fil60" d="M4540 6639c20,28 -7,11 27,15 24,3 12,1 23,-5l-2 -18c-24,-334 78,-778 -10,-1071 -4,-21 2,-14 -24,-10 16,109 18,1028 -14,1089z"/>
   <path class="fil34" d="M6167 4932c142,1 158,-14 172,-148 -22,-18 -8,-8 -28,-27 -7,-7 -9,-11 -18,-18 -28,-22 -7,-11 -45,-24 -115,-8 -158,67 -132,149 11,33 32,47 51,68z"/>
   <path class="fil61" d="M5993 6778l234 -10c-43,17 -75,4 -116,16 0,1 -39,33 -91,15 -30,-11 -18,-12 -27,-21zm171 -51c-44,39 -186,19 -252,16l82 27c-52,32 -11,25 -82,8 -36,20 -48,-36 -29,73l32 0c-12,-15 7,-10 -15,-21 55,-1 97,3 151,9l156 24c2,0 5,3 7,5l31 -17c-20,-23 -48,-61 8,-38 44,17 -20,3 34,23 1,-2 2,-6 3,-6l99 -18c0,-7 0,-14 0,-12l-7 -32 -5 -13c-75,26 -108,8 -156,-24 7,-21 11,-15 -12,-16 -26,18 33,15 -45,12z"/>
   <path class="fil42" d="M5671 3257l-13 116 2 78c36,33 17,92 22,140 44,-15 -21,46 13,-9 6,-10 6,3 10,-23 1,-4 -3,-37 -4,-45 -4,61 15,35 -31,34l34 -128c37,12 68,0 104,14 54,21 -1,30 100,33 6,-89 28,26 36,-89 -3,-2 -7,-11 -9,-8 -3,3 -8,-5 -11,-6 -50,-16 26,3 -27,-6l-5 40c-21,-31 -5,-24 -48,-36l0 -94c-73,7 -20,6 -39,16 -3,1 -5,3 -8,5l-14 8c-21,8 -50,5 -74,5l-19 -119 -19 74z"/>
   <path class="fil34" d="M4844 4785c15,174 59,154 198,130 30,-66 42,-142 -28,-179 -51,-29 -100,-17 -143,22l-27 27z"/>
   <path class="fil62" d="M4538 3015c-11,62 8,27 -31,63 76,8 78,3 139,32l1 -119c85,-31 34,-38 75,-77 -2,-4 -6,-7 -8,-10 -1,-2 -5,-7 -7,-10 -46,-63 -8,-6 -1,-47 0,-5 5,-5 6,-8l-143 6c-76,11 -55,91 -31,170z"/>
   <path class="fil63" d="M4780 5979c3,113 15,103 -50,133 0,-56 10,-106 8,-139 -1,-29 -35,-53 -3,-119 53,42 42,51 45,125zm15 426l-1 -122c-36,-171 29,-221 -24,-428 -13,-51 29,-32 -44,-40 -43,48 -13,491 -9,514 12,83 0,65 5,97 8,47 -5,15 16,41 28,-13 34,-27 52,-54 1,-2 2,-6 5,-8z"/>
   <path class="fil22" d="M6106 4673c-21,-30 30,13 -25,-18 6,63 7,10 -24,56 -17,10 -39,-9 -48,89l-9 -22c-1,-2 -3,-7 -4,-9 -8,-12 -10,-38 -22,2 -12,42 -5,57 10,83 22,6 -5,25 21,-34 -1,22 -4,26 1,48 13,63 1,7 15,31 25,44 13,-30 6,18 0,3 -10,24 -10,25l37 20 5 -33 21 6 17 -37c45,50 31,42 70,34 -19,-21 -40,-35 -51,-68 -26,-82 17,-157 132,-149l-21 -31c-10,1 -49,5 -50,5 -33,-8 -10,5 -34,-22l110 -29c-33,3 -12,7 -73,-25 -12,32 3,17 -23,39 -30,26 10,24 -51,21z"/>
   <path class="fil64" d="M5286 6839l-33 2 -23 -2 -163 30 -38 21c-12,3 -24,3 -38,7l36 0 46 6c-24,43 25,11 -32,37 -23,10 -68,-4 -108,0l100 -1c13,3 220,-7 253,-13 4,-13 4,-28 11,-38 44,3 88,1 129,9 54,10 42,19 110,5l12 -52 -11 -22 -71 1 -180 10z"/>
   <path class="fil30" d="M4757 3276c32,62 23,3 32,89 14,142 6,276 11,414 2,58 47,175 -47,229l-39 55c45,-22 122,-87 135,-126 15,-39 1,-185 2,-238l-19 -381c-41,-7 10,-16 -47,-54l-28 12z"/>
   <path class="fil65" d="M6410 3113c-5,28 -79,34 4,55l18 3c43,8 63,6 86,28l59 -31c2,0 5,-2 7,-3l56 -16c-34,50 -78,62 -69,131 4,33 19,55 26,87 7,38 1,62 4,92l18 -38c14,-47 1,-63 11,-103 22,-85 2,-26 27,-51l22 -147 -48 14c8,-26 6,-18 15,-34 7,-12 9,-13 16,-20l-50 20c13,-40 24,-38 -9,-61 -13,55 10,93 -41,103 -36,7 -50,-37 -52,-66 -6,-1 -33,4 -38,4l-41 -5c-3,0 -17,-9 -20,-11l-1 49z"/>
   <path class="fil33" d="M5098 6354c-9,66 24,-19 -1,18l-26 19c57,3 16,12 67,-11 9,-46 -49,39 13,-9 16,-12 18,-17 20,-19l90 -94c0,-62 15,-110 -15,-153 -22,-33 5,-5 -30,-32 -31,35 -45,38 -90,49 -1,9 -9,44 -9,45 -16,92 16,74 5,126 -7,38 -17,13 -24,61z"/>
   <path class="fil66" d="M4912 3107c3,3 6,5 7,10 10,40 61,1 133,39 -39,44 -15,7 -60,1 2,1 11,-30 -1,12 -15,54 -1,-58 -11,36 4,3 10,6 18,13l22 18c49,27 80,16 142,22 21,-14 3,-8 36,-17l48 -8c-21,-11 -21,-25 -43,-27l68 -6c-4,-2 -10,-10 -12,-6l-25 -26 24 -19c-71,-1 -9,3 -36,-19 -24,-10 -29,-10 -37,-35l-94 17 -125 -1 -43 -20 -11 16z"/>
   <path class="fil67" d="M6383 2875l7 14 -1 28 -7 14 15 24c18,45 11,30 11,92 -10,-21 -3,-39 -2,-77l23 27c23,31 -4,1 8,14l17 -56c1,-4 5,-8 7,-12l17 57c48,-32 157,15 165,23l21 -128c-8,-3 -15,-10 -16,-11l-10 -21c0,0 0,-3 0,-4l-192 -4 -63 20z"/>
   <path class="fil15" d="M5806 5117l89 0c5,-112 -1,-161 -9,-262 -1,-4 -3,-29 -2,-31 0,-22 57,-113 -79,-106l1 399z"/>
   <path class="fil52" d="M6057 3430l61 8 10 49c-35,61 -1,105 -71,140 -81,-77 0,-43 -20,-69 -18,-24 -61,-2 -91,12 27,132 141,86 195,85 17,-19 16,-13 26,-21 20,-17 47,-26 31,-119 -8,-30 -16,-23 -30,-53 -15,-31 -14,-53 -24,-79 -14,-12 -18,-13 -39,-25 -28,62 -37,27 -48,72z"/>
   <path class="fil68" d="M6642 4115c-24,-16 -54,-40 -76,-66 -10,5 -20,-8 -2,12 18,23 15,17 35,34 21,20 -2,-8 18,18 21,25 11,17 15,27 26,16 5,-8 31,22 18,22 7,-1 16,32l9 19 21 0c-16,-161 -2,-399 -1,-568 2,-192 10,-379 13,-569l-21 14c-19,344 -23,689 -23,1043 -71,-1 -6,3 -35,-18z"/>
   <path class="fil27" d="M6679 3120l-22 147c-4,147 -7,291 -10,438 -1,74 2,145 1,218 0,54 15,163 -6,192 29,21 -36,17 35,18 0,-354 4,-699 23,-1043 -12,11 -8,6 -17,19 -2,2 -3,7 -4,11z"/>
   <path class="fil69" d="M6106 4673c61,3 21,5 51,-21 26,-22 11,-7 23,-39 61,32 40,28 73,25 46,-14 11,21 15,-36l-5 -86c-26,31 -8,73 -24,101 7,-10 8,-11 8,-29l-62 -1 -9 -120c-7,-37 -81,-47 2,-109l-36 -72c-4,78 -11,40 -84,60 -36,10 4,-13 -27,12 26,17 72,-3 99,13l0 36c-32,17 3,6 -34,6l-63 -15c0,32 8,24 23,47 1,3 4,5 6,8 6,13 28,5 -2,63 31,6 69,-28 63,58 -2,43 -20,19 -5,57 1,3 5,7 6,9 2,3 7,12 8,10 2,-2 7,7 9,9l-35 14z"/>
   <path class="fil70" d="M4588 6631l2 18c36,-14 15,-7 46,-22l40 -18 -24 -12c15,-20 12,-46 11,-72l-3 -255c1,-115 -3,-230 -3,-345 -19,20 -11,5 -24,37 -13,34 -7,99 -7,139 0,51 -10,497 -38,530z"/>
   <path class="fil71" d="M5413 2856l176 12c3,47 -23,64 -23,64 -1,1 -3,4 -4,5 -33,44 22,55 -78,35 3,3 14,17 15,19 0,1 1,4 1,4 -1,1 -2,4 -3,4 0,2 -26,11 -27,12 -15,15 -17,15 -18,27 -23,49 -19,43 -21,99 36,19 27,17 75,13 38,-3 -26,-22 37,23 12,-82 4,-97 42,-133 -9,-47 -19,-15 21,-36l-2 -89c-4,-38 7,-69 21,-95 -84,7 2,20 -100,27 -44,3 -72,-2 -112,9z"/>
   <path class="fil72" d="M4590 6649c-11,6 1,8 -23,5 -34,-4 -7,13 -27,-15l-6 11c-2,12 3,21 3,22 1,1 3,4 4,5 0,2 3,5 3,6 13,30 1,-20 10,24 5,26 -2,75 -4,104 28,-43 20,-65 12,-115 71,4 30,-9 81,21l-68 -36 81 -27c23,-5 53,-11 74,3 27,19 -7,-10 26,41l6 46c-44,40 -5,-20 -17,24l35 -22c-11,63 -3,41 1,73l10 101c-80,-34 -40,22 -126,7 -133,-23 42,-21 -105,-45 10,79 195,66 242,43l18 -12 4 -45 -8 -62 8 -24 1 -22 -6 -18 -6 -97c-47,-9 -20,-3 -43,-13 -102,-45 -29,-4 -94,-23l-40 18c-31,15 -10,8 -46,22z"/>
   <path class="fil73" d="M5008 4574c-21,17 26,13 -43,20 1,3 12,27 27,28 -55,22 -108,23 -145,68 104,29 175,-20 206,55 65,-10 52,-39 88,-5 -10,-46 -4,-42 -14,-86l-14 -66c-51,-6 -63,-15 -76,-39 -20,31 36,29 -29,25z"/>
   <path class="fil19" d="M6088 5822l1 -134 -1 64c33,31 30,37 76,32 2,-43 10,-64 16,-97 -110,-9 -172,-9 -283,-7l8 101c31,-22 12,-16 31,-56l111 85c23,15 -29,44 41,12z"/>
   <path class="fil74" d="M6274 6182c39,-8 5,12 37,-21l-13 58c0,4 1,7 2,10 1,3 4,7 5,9 1,2 4,5 6,8 52,-67 -51,-118 77,-141 7,103 -31,67 -39,118 -12,77 0,35 11,49 0,-3 3,-28 4,-29l13 -34c2,-3 4,-8 7,-12 28,35 21,69 30,91l18 30 -14 -235c2,-47 -5,-57 -23,-102l-23 56 -73 0c-12,28 -6,42 -24,58 -1,1 -5,2 -6,3 -1,1 -8,1 -12,3 19,41 17,32 17,81z"/>
   <path class="fil75" d="M5930 6682l265 12 48 10 135 26 7 -40 -11 -16 -121 -29 -69 0 -24 -2c-36,21 -116,19 -151,2 -19,0 -15,2 -36,-2 -25,-5 -15,-1 -27,-14l-26 10c-57,0 -29,-21 -36,30 24,17 -33,16 46,13z"/>
   <path class="fil58" d="M5330 6693l-3 39c-10,63 -7,23 9,83l44 -4c17,-12 6,-9 35,-17l106 -4 0 -38c0,-1 -1,-4 -1,-6l-1 -29c0,-1 -2,-5 -2,-7 -14,-43 -93,-16 -127,-31l-30 -37c-1,-2 -3,-13 -5,-19 0,12 1,24 -2,36 -13,41 7,10 -23,34z"/>
   <path class="fil76" d="M5113 2856l35 44 -59 19 22 17 -69 11c68,30 133,37 212,41 9,-15 8,-14 15,-33 -23,-7 -11,2 -24,-18l119 10c-2,-2 -6,-9 -7,-7 -3,7 -1,-25 -74,-34 -46,13 -16,18 -48,-1 -9,-32 53,-27 92,-23l-45 -24 -48 8c-115,9 -40,-18 -108,-27l-13 17z"/>
   <path class="fil77" d="M5873 6689l-34 -8 -12 37c36,28 -46,24 45,24 -25,-1 -41,-3 -40,24l60 4c23,-5 20,-12 20,8 71,17 30,24 82,-8l-82 -27 -22 -9c91,-17 188,6 274,-7 78,3 19,6 45,-12 -28,-16 -22,20 -22,-17l8 -4 -265 -12 -57 7z"/>
   <path class="fil78" d="M5327 2882l13 -4c50,-3 62,0 71,47l61 30c0,0 -1,20 -1,23l-1 33c1,-1 27,-10 27,-12 1,0 2,-3 3,-4 0,0 -1,-3 -1,-4 -1,-2 -12,-16 -15,-19 100,20 45,9 78,-35 1,-1 3,-4 4,-5 0,0 26,-17 23,-64l-176 -12 -131 2 45 24z"/>
   <path class="fil79" d="M4460 4718c28,77 10,808 12,820l20 -42c3,-14 -17,-1349 -32,-1396l0 618z"/>
   <path class="fil15" d="M6006 6270c-7,34 28,19 57,13 -31,42 -23,17 -29,54l132 16 11 -34 -36 8c-45,4 -30,11 -72,-8 11,-10 4,-9 23,-17l74 -11c40,-8 15,0 35,-14l-64 -21c18,-11 7,-6 24,-13 11,-3 25,2 36,-6l-2 -11 -5 -21 -39 10 -36 12 -37 -18 9 -24c27,-19 -34,-16 33,-16 -17,-4 -18,-6 -11,-17l4 -29 -80 2c5,106 8,32 38,102 -26,12 5,6 -29,10 -52,7 -21,1 -25,-4 1,1 3,0 3,1l25 48 -39 -12z"/>
   <path class="fil80" d="M5723 6851c-34,17 -28,29 -41,68 44,1 125,7 181,10 36,-54 -2,-60 56,-79l-4 1 -32 0c-62,-29 -80,-38 -153,-40 -11,16 -19,-19 -7,40z"/>
   <path class="fil49" d="M5693 6737l2 48c66,17 93,21 168,26 21,-69 2,-9 29,-41l-60 -4c-1,-27 15,-25 40,-24 -91,0 -9,4 -45,-24l12 -37c30,-21 16,-18 12,-24 -36,28 -47,66 -76,49 -45,-27 20,-44 -59,-46l-23 77z"/>
   <path class="fil81" d="M4703 4050l11 13 39 -55 7 -56 2 -115c7,-83 -4,-69 -12,-82 -64,38 -54,148 -57,198 -3,41 -17,59 10,97z"/>
   <path class="fil82" d="M5067 6766c26,-27 12,-38 55,0 -11,7 29,10 -31,9 -47,0 -6,1 -24,-9zm-29 -9c20,33 14,25 75,21 -4,2 -10,2 -12,9 -2,7 -9,8 -12,10 -2,2 -7,8 -12,12 65,-6 112,-7 153,30l23 2c18,-45 4,-17 29,-28l-31 -20c-2,-2 -6,-5 -8,-7 -1,-1 -3,-4 -4,-5l-13 -13c35,6 32,0 55,17l33 31 22 -1c-16,-60 -19,-20 -9,-83 -83,50 -123,-7 -226,4 -1,0 -35,6 -35,6 -22,7 -16,7 -28,15z"/>
   <path class="fil83" d="M6118 2955c37,-25 25,-15 78,-9 -30,16 -41,28 -78,9zm-140 0l164 26c35,-2 46,-4 74,-13l55 -20c2,-1 6,-3 8,-4 2,-1 6,-4 8,-5l-75 -1c18,-15 66,-51 -5,-30l44 -9c-83,-46 -99,-7 -182,-4l0 8 19 -2c-72,14 -8,-4 -43,43l-67 11z"/>
   <path class="fil84" d="M5984 3946c-1,49 14,-26 4,33 0,1 -15,51 -16,55 -7,-69 -31,-61 -44,-69 -35,41 -27,22 -40,62 -17,60 22,-53 -9,40 89,-4 132,11 216,-23 -23,-18 24,-17 -49,-13l-12 -109c-57,12 -1,-5 -50,24z"/>
   <path class="fil85" d="M4852 2952l-36 -4c-8,76 56,101 118,113l21 5 5 20 28 0c-43,-19 -19,-4 -35,-33 64,-2 72,20 119,12 -70,-13 -164,-46 -215,-86 31,-12 46,12 110,22l64 -1c61,9 18,6 34,-17l-108 -22 -16 -25 -37 7 -52 9z"/>
   <path class="fil86" d="M6682 6921c-9,37 -10,10 -2,36 -45,0 -35,7 -91,4 -36,60 -34,4 -9,32 6,7 17,7 18,7 -29,0 -20,-6 -20,26 88,-8 189,-29 199,-115l-29 -58c-55,43 13,50 -66,68z"/>
   <path class="fil50" d="M4460 5710l0 415c2,4 3,8 4,12 2,3 3,7 4,12 2,4 3,7 4,11l11 33c0,-2 2,7 4,10 -2,-94 7,-185 4,-284 -2,-95 -6,-190 -8,-284 -2,3 -4,7 -5,10l-18 65z"/>
   <path class="fil34" d="M4852 3118c21,-31 31,-27 71,-27 7,-16 1,-9 11,-30 -62,-12 -126,-37 -118,-113l6 -18c-14,-18 21,-11 -38,-20l1 202 67 6z"/>
   <path class="fil87" d="M5634 6787l7 106c30,-20 25,-31 41,-54l41 12c-12,-59 -4,-24 7,-40 73,2 91,11 153,40 -19,-109 -7,-53 29,-73 0,-20 3,-13 -20,-8 -27,32 -8,-28 -29,41 -75,-5 -102,-9 -168,-26l-2 -48 3 -86 -24 -12c-2,25 -1,74 -3,91 -5,77 15,33 -35,57z"/>
   <path class="fil88" d="M5072 3065l238 13 -12 -27 -221 -18 -110 -32c-64,-10 -79,-34 -110,-22 51,40 145,73 215,86z"/>
   <path class="fil89" d="M5900 6577c13,-20 8,-18 84,-16 119,3 168,21 269,32 56,-11 69,-9 100,-49l-393 2 -73 4c-3,39 -3,3 13,27z"/>
   <path class="fil90" d="M5817 2968l50 17 96 -25c-58,-71 -53,-54 -100,-40 -19,-65 -4,-19 -24,-44l-80 9c4,76 20,23 58,83z"/>
   <path class="fil91" d="M5005 6849l-43 -11 -57 1 -13 24c46,10 25,12 76,13 31,0 67,-5 99,-7l163 -30c-41,-37 -88,-36 -153,-30l-16 5c-26,27 20,-6 -23,23 -20,13 8,1 -33,12z"/>
   <path class="fil24" d="M5743 6258c57,29 41,24 108,24l0 -121 -109 9 1 88z"/>
   <path class="fil83" d="M4825 6760l-1 22 107 -4c-16,15 -47,42 -61,55l4 36 9 -1 9 -5 13 -24 57 -1 51 -23 48 -1 16 -5c5,-4 10,-10 12,-12 3,-2 10,-3 12,-10 2,-7 8,-7 12,-9 -61,4 -55,12 -75,-21l-11 -7 -9 30 -193 -20z"/>
   <path class="fil92" d="M4973 3241l33 16c-56,27 -5,2 -31,32 71,6 140,-19 185,-9 14,4 72,32 123,31 82,-2 33,-2 54,-21l-175 -32c-62,-6 -93,5 -142,-22 -39,-12 -47,-22 -75,0l28 5z"/>
   <path class="fil93" d="M4957 2961l108 22 239 34c-4,-30 5,-15 -14,-29l-36 0c-79,-4 -144,-11 -212,-41l69 -11 -22 -17 -112 -3 -31 -4 11 49z"/>
   <path class="fil94" d="M5946 6629c12,13 2,9 27,14 21,4 17,2 36,2l24 -22c1,-1 4,-5 5,-6 13,-14 107,-3 130,-3 20,-31 37,-4 82,-5l3 -16c-101,-11 -150,-29 -269,-32 -76,-2 -71,-4 -84,16 35,3 59,-7 92,3 31,9 6,32 65,17 -62,8 -35,-5 -60,36l-51 -4z"/>
   <path class="fil95" d="M4730 6112c65,-30 53,-20 50,-133 -3,-74 8,-83 -45,-125 -32,66 2,90 3,119 2,33 -8,83 -8,139z"/>
   <path class="fil96" d="M4988 3086c5,0 52,-5 54,-5 92,10 24,-11 49,31l94 -17c8,25 13,25 37,35l45 2 -46 -29 84 -2 5 -23 -238 -13c-47,8 -55,-14 -119,-12 16,29 -8,14 35,33z"/>
   <path class="fil97" d="M5283 2906c73,9 71,41 74,34 1,-2 5,5 7,7 56,-8 32,-4 64,11 -29,37 30,21 -54,44 -17,5 8,-4 -25,2 -67,13 13,-16 -20,7 44,26 31,0 86,10 11,-3 30,-7 55,-10l1 -33c0,-3 1,-23 1,-23l-61 -30c-9,-47 -21,-50 -71,-47 9,19 0,17 13,32l-70 -4z"/>
   <path class="fil98" d="M6054 4962l25 78 119 0 3 -47c-55,10 -83,-37 -121,-58l-21 -6 -5 33z"/>
   <path class="fil99" d="M6069 2903l0 -8c83,-3 99,-42 182,4 45,-10 30,0 61,-3 68,-5 15,5 37,-14 -56,-25 -97,-15 -159,-12 -80,4 -68,-27 -145,-25 -1,2 -2,4 -2,5l-7 14c-5,8 -18,27 -27,41l60 -2z"/>
   <path class="fil100" d="M4944 3408c20,7 24,6 40,17l14 13c3,2 6,5 8,7 1,2 4,5 7,7l-2 -24c58,0 25,-9 52,17 86,-3 62,8 128,19l-23 -24 54 4c-12,-12 -3,-17 -53,-24 -83,-12 -113,6 -189,-43 -70,13 -25,1 -44,21l8 10z"/>
   <path class="fil101" d="M6057 3430c11,-45 20,-10 48,-72 21,12 25,13 39,25l-3 -50 -142 -10c2,32 -1,16 6,36l52 71z"/>
   <path class="fil102" d="M4946 3596c12,-31 -22,-17 27,-20 2,-1 54,8 56,8 -2,-4 -7,-12 -8,-10 -1,3 -5,-4 -13,-14 -23,-32 -29,24 -3,-8l-5 -44 74 4 0 -17c-149,25 -123,-41 -180,4 37,24 37,18 80,20 -29,44 -17,4 -67,51 -3,3 -6,8 -9,13 5,1 47,13 48,13z"/>
   <path class="fil103" d="M4933 6940c40,-4 85,10 108,0 57,-26 8,6 32,-37l-46 -6c6,6 10,19 16,25 -53,8 -36,18 -75,-11l23 -14c14,-4 26,-4 38,-7l38 -21c-32,2 -68,7 -99,7 -51,-1 -30,-3 -76,-13 21,56 17,20 41,77z"/>
   <path class="fil39" d="M5013 5236c9,24 1,6 35,15 28,-45 0,-7 53,-34 4,-48 15,-55 -35,-75l-4 61c1,-1 11,-34 -45,-58 -2,4 -3,6 -3,12 -3,99 19,30 -1,79z"/>
   <path class="fil104" d="M6058 6447l-4 33c71,8 51,-10 112,-16 6,4 25,14 29,17 65,-6 19,-1 70,-15l22 -2 2 -13 -42 -1 -44 -10 -145 7z"/>
   <path class="fil92" d="M5915 6851l4 -1c42,5 99,19 138,21 56,3 92,-11 157,-3 -2,-2 -5,-5 -7,-5l-156 -24c-54,-6 -96,-10 -151,-9 22,11 3,6 15,21z"/>
   <path class="fil24" d="M6675 5641l-5 0 -3 -18c-24,21 -42,44 -78,54l14 82c22,30 -14,4 31,22 16,-46 11,-20 13,-68 5,-94 13,-55 28,-72z"/>
   <path class="fil104" d="M6141 6327c21,-20 -8,-15 25,-17 21,-1 46,-5 15,38 87,-9 32,13 48,-30l34 -3c-36,-16 -57,0 -22,-32l-40 -6c-20,14 5,6 -35,14l-74 11c-19,8 -12,7 -23,17 42,19 27,12 72,8z"/>
   <path class="fil105" d="M4858 2896l2 14c35,1 28,-14 48,21l38 -19 31 4c0,-28 54,-11 88,-13 16,-14 7,8 3,-18 -9,2 -58,6 -64,6 -59,-8 -35,1 -45,-31l-47 15 -6 14 -48 7z"/>
   <path class="fil106" d="M4598 6948c19,28 1,22 35,37 11,5 111,24 139,-26l-174 -11z"/>
   <path class="fil107" d="M6748 6853l29 58c97,-28 7,-76 -8,-95 -20,-24 -3,-13 -28,-35l7 72z"/>
   <polygon class="fil108" points="4825,6760 5018,6780 5027,6750 4819,6742 "/>
   <path class="fil92" d="M6009 6645c35,17 115,19 151,-2 -8,0 -37,1 -42,0 -25,-4 -16,-5 -29,-15l94 -10 -15 -4c-23,0 -117,-11 -130,3 -1,1 -4,5 -5,6l-24 22z"/>
   <path class="fil27" d="M4929 5222c42,-11 17,0 61,-5 0,-17 2,-52 7,-82l-61 13 -7 74z"/>
   <path class="fil109" d="M5005 3552l57 -8c0,0 -13,-15 40,-13 42,1 22,1 50,21 1,-29 0,-19 39,-15 -9,-6 -7,-9 -25,-16 -2,0 -29,-6 -29,-6 -22,-3 -41,-2 -63,-3l-74 -4 5 44z"/>
   <path class="fil110" d="M4945 3236c28,-22 36,-12 75,0l-22 -18c-8,-7 -14,-10 -18,-13 -71,-24 -39,-38 -110,-48 13,63 -9,20 29,48 8,7 35,24 46,31z"/>
   <path class="fil111" d="M5912 6743c66,3 208,23 252,-16 -86,13 -183,-10 -274,7l22 9z"/>
   <path class="fil112" d="M5068 2885c4,26 13,4 -3,18 -34,2 -88,-15 -88,13l112 3 59 -19 -35 -44 -25 1 18 31 -38 -3z"/>
   <path class="fil113" d="M4816 6806l24 29 30 -2c14,-13 45,-40 61,-55l-107 4 -8 24z"/>
   <path class="fil111" d="M5068 2885l38 3 -18 -31 -129 3c10,32 -14,23 45,31 6,0 55,-4 64,-6z"/>
   <path class="fil114" d="M5221 3577c-2,-2 -6,-4 -7,-5l-62 -20c-28,-20 -8,-20 -50,-21 -53,-2 -40,13 -40,13l31 30c64,-6 77,7 128,3z"/>
   <path class="fil23" d="M6016 4569c3,-3 10,-16 12,-19l-24 -10c0,3 1,8 1,11 1,2 1,7 2,10l2 54c42,-10 39,-4 79,3l-7 -66c-35,31 -18,18 -65,17z"/>
   <path class="fil15" d="M4824 6868l-4 45 5 31 56 -3c2,-15 0,-16 0,-31 0,-24 -10,7 2,-42l-9 1 -15 17c-5,-3 -34,-17 -35,-18z"/>
   <path class="fil102" d="M5548 6850l63 4c-11,-33 7,-15 -22,-35 -28,-19 -72,-4 -123,-9l0 19 71 -1 11 22z"/>
   <path class="fil112" d="M6183 6618l1 27 69 0 34 -28 -14 -9 -23 1c-45,1 -62,-26 -82,5l15 4z"/>
   <path class="fil115" d="M6273 6608l14 9c50,6 64,8 110,32l2 -81c-42,38 -67,37 -126,40z"/>
   <polygon class="fil96" points="5286,6839 5466,6829 5466,6810 5380,6811 5336,6815 5314,6816 "/>
   <path class="fil116" d="M4966 3111l125 1c-25,-42 43,-21 -49,-31 -2,0 -49,5 -54,5l-28 0 6 25z"/>
   <path class="fil104" d="M5993 6778c9,9 -3,10 27,21 52,18 91,-14 91,-15 41,-12 73,1 116,-16l-234 10z"/>
   <path class="fil27" d="M4577 7010c-2,-4 -5,-14 -6,-12 -3,7 2,-44 -87,-93 28,64 22,82 93,105z"/>
   <path class="fil117" d="M5039 3610l50 0 0 10 44 5 2 -36 -112 -8c2,4 7,18 16,29z"/>
   <path class="fil115" d="M5283 2906l70 4c-13,-15 -4,-13 -13,-32l-13 4c-39,-4 -101,-9 -92,23 32,19 2,14 48,1z"/>
   <path class="fil118" d="M4681 5802l-8 -5c-30,-133 37,-83 -31,-121l13 171c27,-49 -15,-6 26,-45z"/>
   <path class="fil119" d="M6113 6123l-4 29c93,-41 64,21 121,-15 -3,-2 -6,-5 -7,-7l-45 -22 -65 15z"/>
   <path class="fil120" d="M6151 6215l39 -10 5 21 53 4c-2,-6 -6,-15 -7,-13 0,2 -5,-8 -5,-10l3 -39 -27 16c-38,17 -62,-10 -61,31z"/>
   <path class="fil107" d="M6181 6348c5,3 1,9 37,19 2,0 43,6 44,7l24 -3c-10,-36 -16,-31 -57,-53 -16,43 39,21 -48,30z"/>
   <path class="fil121" d="M4822 2930l-6 18 36 4 17 -26c58,4 22,3 35,17l37 -7 16 25 -11 -49 -38 19c-20,-35 -13,-20 -48,-21 -2,2 -6,1 -7,4 -1,4 -6,4 -7,5 -22,11 -1,0 -24,11z"/>
   <path class="fil61" d="M4840 2888l18 8c11,-15 -5,-6 23,-25 9,-37 12,-18 -33,-28 -75,-18 -48,-4 -62,18l72 1 -18 26z"/>
   <path class="fil116" d="M5221 3577l13 -8 23 4 -11 -28 -55 -8c-39,-4 -38,-14 -39,15l62 20c1,1 5,3 7,5z"/>
   <path class="fil103" d="M5253 6841l33 -2 28 -23 -33 -31c-23,-17 -20,-11 -55,-17l13 13c1,1 3,4 4,5 2,2 6,5 8,7l31 20c-25,11 -11,-17 -29,28z"/>
   <path class="fil94" d="M4896 3279l79 10c26,-30 -25,-5 31,-32l-33 -16 -72 32c0,-2 -3,4 -5,6z"/>
   <path class="fil119" d="M4460 6905l11 0c2,-25 2,-51 9,-75 12,-43 9,22 16,-53l-36 4 0 124z"/>
   <path class="fil116" d="M5267 3132c3,-1 39,-2 40,-3 37,-10 19,-2 41,-23l-43 -5 -84 2 46 29z"/>
   <path class="fil110" d="M4824 6868c1,1 30,15 35,18l15 -17 -4 -36 -30 2 -24 -29 8 62z"/>
   <path class="fil60" d="M4936 3398c19,-20 -26,-8 44,-21l-60 -28c-74,0 -25,-5 -36,17l52 32z"/>
   <path class="fil119" d="M5254 2988l36 0c6,-1 22,-1 29,-4 47,-15 20,-5 39,-21l-89 -8c-7,19 -6,18 -15,33z"/>
   <path class="fil122" d="M6115 6227l36 -12c-1,-41 23,-14 61,-31l-83 -3 -40 31 26 15z"/>
   <path class="fil115" d="M4980 3605l59 5c-9,-11 -14,-25 -16,-29l6 3c-2,0 -54,-9 -56,-8 -49,3 -15,-11 -27,20l34 9z"/>
   <path class="fil123" d="M5335 3044l-51 -18c-23,-3 -58,-2 -82,-2 33,30 -68,21 133,20z"/>
   <path class="fil116" d="M5191 3464l34 2c4,0 29,0 31,-1 34,-13 9,15 29,-19l-63 -2 -54 -4 23 24z"/>
   <path class="fil124" d="M6195 6226l2 11 53 7c9,-13 9,3 11,-23 1,-24 -3,-20 -8,-29 7,-36 18,-35 -14,-24l-3 39c0,2 5,12 5,10 1,-2 5,7 7,13l-53 -4z"/>
   <path class="fil125" d="M4967 3001l110 32c6,-44 -22,-38 -46,-33l-64 1z"/>
   <polygon class="fil109" points="4786,2895 4840,2888 4858,2862 4786,2861 "/>
   <path class="fil50" d="M5257 3573l-23 -4c30,12 16,9 29,31l22 -7 1 49c18,-18 9,2 12,-33 0,-4 -3,-46 -3,-49l-22 -12c6,33 15,28 -16,25z"/>
   <path class="fil82" d="M6160 6643l24 2 -1 -27 -94 10c13,10 4,11 29,15 5,1 34,0 42,0z"/>
   <path class="fil116" d="M5269 2955l89 8 6 -16 -119 -10c13,20 1,11 24,18z"/>
   <path class="fil82" d="M5027 6897l-36 0 -23 14c39,29 22,19 75,11 -6,-6 -10,-19 -16,-25z"/>
   <path class="fil126" d="M5286 3642l-1 -49 -22 7c-17,15 -12,7 -16,35l39 7z"/>
   <path class="fil127" d="M5225 3466c27,13 -33,6 33,13 33,3 18,1 49,-6 -10,-32 9,-5 -22,-27 -20,34 5,6 -29,19 -2,1 -27,1 -31,1z"/>
   <path class="fil120" d="M6377 6755l5 13c62,6 28,7 83,41l-3 -37 -21 0 -64 -17z"/>
   <path class="fil128" d="M5067 6766c18,10 -23,9 24,9 60,1 20,-2 31,-9 -43,-38 -29,-27 -55,0z"/>
   <path class="fil129" d="M4923 3091l43 20 -6 -25 -5 -20 -21 -5c-10,21 -4,14 -11,30z"/>
   <path class="fil99" d="M6118 2955c37,19 48,7 78,-9 -53,-6 -41,-16 -78,9z"/>
   <path class="fil130" d="M5873 6689l57 -7c-79,3 -22,4 -46,-13 7,-51 -21,-30 36,-30 -17,-15 7,-12 -45,-16l-2 66z"/>
   <path class="fil119" d="M6733 2870l-3 7c46,-19 16,4 40,-31 -6,-61 -1,-17 -16,-34 -1,19 -1,14 -5,26 -3,9 -9,23 -10,21 -1,-2 -4,8 -6,11z"/>
   <path class="fil131" d="M5005 6849c41,-11 13,1 33,-12 43,-29 -3,4 23,-23l-48 1 -8 34z"/>
   <path class="fil132" d="M6166 6353l15 -5c31,-43 6,-39 -15,-38 -33,2 -4,-3 -25,17l36 -8 -11 34z"/>
   <path class="fil108" d="M6209 6715c23,1 19,-5 12,16 37,-12 13,7 22,-27l-48 -10 -8 4c0,37 -6,1 22,17z"/>
   <path class="fil113" d="M4852 3118l60 -11 11 -16c-40,0 -50,-4 -71,27z"/>
   <polygon class="fil61" points="5133,3625 5189,3614 5135,3589 "/>
   <path class="fil116" d="M5013 3452l50 -7c-27,-26 6,-17 -52,-17l2 24z"/>
   <path class="fil127" d="M5415 3021c10,23 -23,19 37,17 1,-12 3,-12 18,-27 -25,3 -44,7 -55,10z"/>
   <polygon class="fil133" points="4460,2808 4497,2761 4460,2761 "/>
   <path class="fil134" d="M4852 2952l52 -9c-13,-14 23,-13 -35,-17l-17 26z"/>
   <path class="fil123" d="M4858 2896l48 -7 6 -14 -31 -4c-28,19 -12,10 -23,25z"/>
   <polygon class="fil135" points="4962,6838 5005,6849 5013,6815 "/>
   <path class="fil108" d="M6195 6481c12,6 5,18 41,8 23,-6 23,-15 29,-23 -51,14 -5,9 -70,15z"/>
   <polygon class="fil68" points="6115,6227 6089,6212 6129,6181 6087,6185 6078,6209 "/>
   <path class="fil136" d="M6378 6730c20,-12 17,1 31,-32l-24 -8 -7 40z"/>
   <path class="fil114" d="M6390 2889l-7 -14c-41,-38 -12,-14 -25,-5 14,25 -29,23 32,19z"/>
   <path class="fil129" d="M5257 3573c31,3 22,8 16,-25l-27 -3 11 28z"/>
   <path class="fil137" d="M6444 6854l7 4c-25,-24 39,-30 -46,-17 23,23 -2,6 39,13z"/>
   <path class="fil61" d="M6054 6480l4 -33 -25 11c16,43 3,5 21,22z"/>
   <polygon class="fil108" points="6374,6674 6385,6690 6409,6698 6398,6670 "/>
   <polygon class="fil114" points="6247,6450 6239,6427 6203,6440 "/>
  </g>
  <rect class="fil138 str0" x="46" y="3932" width="957" height="3056"/>
  <rect class="fil5 str0" x="407" y="6988" width="224" height="129"/>
  <rect class="fil138 str0" x="1296" y="4084" width="957" height="3056"/>
  <rect class="fil5 str0" x="1669" y="3954" width="224" height="129"/>
  <g>
   <path class="fil6" d="M4916 5102l40 92 -120 52 -119 49 -118 46 -118 44 -116 41 -115 39 -114 36 -114 34 -112 30 -111 28 -111 26 -109 23 -108 20 -108 17 -106 15 -105 13 -105 9 -103 7 -102 4 -102 2 -100 -1 -100 -4 -98 -6 -98 -9 -96 -12 -95 -14 -95 -17 -93 -20 -93 -22 -91 -25 -90 -28 -90 -30 34 -95 86 30 88 27 88 24 90 22 90 19 92 16 92 14 94 12 95 8 95 6 97 4 98 1 99 -2 99 -4 101 -7 102 -9 103 -12 104 -14 106 -18 106 -19 107 -23 108 -25 110 -27 110 -31 111 -33 113 -35 113 -38 115 -41 116 -43 116 -46 118 -49 119 -51zm551 -188l-437 527 -246 -560 683 33z"/>
  </g>
  <path class="fil7" d="M2990 5323l74 -10c9,43 23,73 43,92 21,18 46,28 76,28 35,0 65,-13 89,-37 24,-24 36,-54 36,-90 0,-34 -11,-62 -34,-85 -22,-22 -50,-33 -85,-33 -14,0 -32,3 -53,8l9 -65c5,1 9,1 12,1 32,0 60,-8 86,-25 25,-16 38,-42 38,-76 0,-27 -10,-50 -28,-68 -19,-18 -42,-27 -72,-27 -29,0 -53,10 -72,28 -19,18 -32,46 -37,82l-75 -13c9,-50 30,-89 62,-116 32,-28 73,-42 121,-42 33,0 63,7 91,22 28,14 49,33 64,58 15,24 22,50 22,78 0,26 -7,49 -21,71 -14,21 -35,38 -63,51 36,8 64,26 84,52 20,26 30,58 30,97 0,53 -20,98 -58,135 -39,37 -88,55 -147,55 -53,0 -97,-16 -132,-47 -36,-32 -56,-73 -60,-124z"/>
 </g>
</svg>
