<?xml version="1.0" encoding="UTF-8"?>
<!DOCTYPE svg PUBLIC "-//W3C//DTD SVG 1.1//EN" "http://www.w3.org/Graphics/SVG/1.1/DTD/svg11.dtd">
<!-- Creator: CorelDRAW X7 -->
<svg xmlns="http://www.w3.org/2000/svg" xml:space="preserve" width="210mm" height="100mm" version="1.1" style="shape-rendering:geometricPrecision; text-rendering:geometricPrecision; image-rendering:optimizeQuality; fill-rule:evenodd; clip-rule:evenodd"
viewBox="0 0 21000 10000"
 xmlns:xlink="http://www.w3.org/1999/xlink">
 <defs>
  <style type="text/css">
   <![CDATA[
    .str1 {stroke:#2B2A29;stroke-width:100}
    .str0 {stroke:#2B2A29;stroke-width:20}
    .fil6 {fill:none}
    .fil1 {fill:#D9DADA}
    .fil7 {fill:#C5C6C6}
    .fil3 {fill:#727271}
    .fil5 {fill:#2B2A29}
    .fil0 {fill:#EF7F1A}
    .fil11 {fill:#E31E24}
    .fil4 {fill:#A2D9F7}
    .fil9 {fill:#009846}
    .fil8 {fill:#B2B3B3;fill-rule:nonzero}
    .fil2 {fill:#2B2A29;fill-rule:nonzero}
    .fil10 {fill:#E31E24;fill-rule:nonzero}
   ]]>
  </style>
 </defs>
 <g id="Laag_x0020_1">
  <metadata id="CorelCorpID_0Corel-Layer"/>
  <rect class="fil0 str0" width="21000" height="10000"/>
  <g id="_947853354720">
   <polygon class="fil1" points="17058,5618 17285,5832 17285,8740 17058,8586 "/>
   <path class="fil2" d="M17094 5580l227 214 17 38 0 2908 -82 44 -227 -155 -24 -43 0 -2968 89 -38zm139 275l-122 -115 0 2818 122 83 0 -2786z"/>
   <polygon class="fil1" points="17058,8586 17285,8740 3911,8740 3411,8586 "/>
   <path class="fil2" d="M17087 8542l228 155 -30 96 -13374 0 -15 -3 -500 -154 15 -103 13647 0 29 9zm28 146l-73 -50 -13283 0 160 50 13196 0z"/>
   <polygon class="fil1" points="3464,5671 17005,5671 17005,8533 3464,8533 "/>
   <path class="fil2" d="M3411 5566l13647 0 53 0 0 52 0 2968 0 52 -53 0 -13647 0 -52 0 0 -52 0 -2968 0 -52 52 0zm13594 105l-13541 0 0 2862 13541 0 0 -2862z"/>
   <path class="fil2" d="M4836 6347l10758 0 52 0 0 52 0 1640 0 53 -52 0 -10758 0 -52 0 0 -53 0 -1640 0 -52 52 0zm10705 105l-10652 0 0 1534 10652 0 0 -1534z"/>
   <polygon class="fil3" points="4889,7740 15541,7740 15541,7986 4889,7986 "/>
   <path class="fil2" d="M4836 7635l10758 0 52 0 0 53 0 351 0 53 -52 0 -10758 0 -52 0 0 -53 0 -351 0 -53 52 0zm10705 105l-10652 0 0 246 10652 0 0 -246z"/>
  </g>
  <rect class="fil4" x="2032" y="1143" width="5635" height="3090"/>
  <path class="fil2" d="M7667 1103l-5635 0 -44 0 0 40 0 3091 0 40 44 0 5635 0 44 0 0 -40 0 -3091 0 -40 -44 0zm-5591 81l5548 0 0 3009 -5548 0 0 -3009z"/>
  <polygon class="fil5 str0" points="5511,2351 4361,2350 4193,2510 4189,3027 5511,3027 "/>
  <path class="fil6" d="M2044 3590c-2033,910 -963,1256 3212,1038"/>
  <rect class="fil7 str1" x="4077" y="6855" width="603" height="783"/>
  <path class="fil6" d="M1988 3944c-1757,617 -1060,1718 2089,3302"/>
  <path class="fil8 str0" d="M2005 3991c-332,117 -574,250 -725,400 -149,148 -208,312 -178,494 32,188 158,397 378,626 464,482 1337,1045 2620,1691l-45 89c-1293,-651 -2175,-1221 -2647,-1711 -234,-244 -369,-470 -404,-679 -36,-215 32,-409 206,-581 161,-160 415,-301 762,-423l33 94z"/>
  <rect class="fil9 str1" x="4994" y="6894" width="307" height="667"/>
  <g>
   <path class="fil10" d="M5895 7290l-8 -100 127 -7 123 -2 121 2 117 7 115 11 111 17 108 21 104 25 102 31 98 36 96 40 92 45 88 50 86 54 82 60 79 64 75 69 72 73 69 79 65 83 62 87 58 92 55 97 52 102 48 105 45 111 42 115 38 120 35 124 32 129 28 133 25 138 -98 17 -25 -135 -28 -131 -31 -125 -34 -121 -37 -117 -40 -111 -44 -107 -46 -102 -50 -97 -53 -93 -56 -88 -58 -84 -62 -79 -65 -74 -69 -69 -71 -65 -74 -61 -78 -56 -80 -52 -84 -47 -87 -42 -90 -38 -93 -34 -97 -29 -100 -25 -103 -20 -107 -16 -110 -11 -113 -6 -116 -2 -120 2 -123 7zm-583 -6l588 -351 46 610 -634 -259z"/>
  </g>
  <path class="fil11" d="M7468 6995c-31,-11 -54,-27 -69,-48 -15,-21 -22,-46 -22,-75 0,-45 16,-82 47,-112 32,-30 74,-45 127,-45 52,0 95,16 127,46 32,31 48,68 48,113 0,28 -7,52 -22,73 -14,21 -37,37 -67,48 37,12 66,32 85,59 19,27 29,59 29,97 0,51 -18,95 -55,130 -37,35 -85,53 -144,53 -60,0 -108,-18 -145,-53 -36,-35 -55,-80 -55,-132 0,-40 10,-73 30,-99 20,-27 49,-45 86,-55zm-15 -126c0,29 9,52 27,70 19,18 43,28 72,28 29,0 53,-9 71,-27 18,-19 27,-41 27,-67 0,-27 -9,-50 -28,-69 -18,-19 -42,-28 -70,-28 -29,0 -53,9 -71,27 -19,19 -28,40 -28,66zm-25 280c0,21 5,42 15,62 10,19 25,35 45,46 20,11 41,16 64,16 36,0 65,-11 88,-34 23,-23 35,-52 35,-87 0,-36 -12,-66 -36,-89 -23,-24 -53,-35 -89,-35 -36,0 -64,11 -87,34 -23,23 -35,52 -35,87z"/>
 </g>
</svg>
